<?xml version="1.0" standalone="no"?>
<!DOCTYPE svg PUBLIC "-//W3C//DTD SVG 1.1//EN" "http://www.w3.org/Graphics/SVG/1.1/DTD/svg11.dtd" >
<svg xmlns="http://www.w3.org/2000/svg" xmlns:xlink="http://www.w3.org/1999/xlink" version="1.1">
<metadata>
Created by FontForge 20170731 at Wed Jun  6 03:03:08 2018
 By Aleksey,,,
</metadata>
<defs>
<font id="Abirhand-one" horiz-adv-x="479" >
  <font-face 
    font-family="Abirhand one"
    font-weight="400"
    font-stretch="normal"
    units-per-em="1024"
    panose-1="2 0 6 3 0 0 0 0 0 0"
    ascent="812"
    descent="-212"
    x-height="388"
    cap-height="561"
    bbox="-8 -212 592 682"
    underline-thickness="0"
    underline-position="50"
    unicode-range="U+000D-2033"
  />
<missing-glyph horiz-adv-x="374" 
d="M34 0v682h272v-682h-272zM68 34h204v614h-204v-614z" />
    <glyph glyph-name=".notdef" horiz-adv-x="374" 
d="M34 0v682h272v-682h-272zM68 34h204v614h-204v-614z" />
    <glyph glyph-name=".null" horiz-adv-x="0" 
 />
    <glyph glyph-name="nonmarkingreturn" unicode="&#xd;" horiz-adv-x="332" 
 />
    <glyph glyph-name="space" unicode=" " horiz-adv-x="332" 
 />
    <glyph glyph-name="space" unicode="&#xa0;" horiz-adv-x="332" 
 />
    <glyph glyph-name="exclam" unicode="!" horiz-adv-x="471" 
d="M194 64q4 13 18 15q14 1 26 1q3 0 6 1h6q3 -1 9 -7q6 -5 7 -7q-1 -3 -7 -3h-7l-1 -1v0v0q2 -3 6 -7q3 -3 6 -5q8 -8 11 -18q3 -11 -1 -21q-6 -9 -15 -10q-10 0 -18 4q-5 2 -9 6t-7 8q-10 9 -18 20q-9 11 -12 24v0zM204 141q1 4 3 9q1 4 2 9l4 32q-2 -15 -1 -12q0 3 1 12
v10v10q2 17 1 33v33q0 35 1 71q1 35 1 70v47v48q0 13 2 26q-1 -12 -1 -10q0 3 1 10q0 2 1 3q1 2 3 1q1 -1 7 -6q5 -6 6 -7q0 -3 -1 -9q-1 -5 -1 -9q0 -17 -1 -34v-33q0 -46 -1 -92q0 -46 -1 -92q1 -13 1 -27t-1 -27q-1 -5 0 -11v-12q-1 -13 -3 -26q-1 -13 -6 -25q-1 -4 1 -9
q1 -5 1 -7q-2 -2 -5 0q-2 3 -4 4q-4 5 -7 9t-3 11v0zM210 55q1 -7 6 -17q6 -10 10 -15q3 -2 7 -2q3 -1 7 -1q8 -2 14 1q5 3 5 14q0 5 -5 16q-4 10 -10 13q-5 0 -15 -1q-11 -2 -16 -4q0 -1 -1 -2q-1 -2 -2 -2v0z" />
    <glyph glyph-name="quotedbl" unicode="&#x22;" horiz-adv-x="460" 
d="M124 387q1 3 1 6v6q1 11 3 21q-2 -10 -1 -8q0 2 1 8q2 19 5 37q4 18 4 38q0 11 -3 20t-4 20q0 2 -1 7q0 5 3 4q2 0 4 -3l3 -3q1 -2 4 -3q2 -2 3 -4v-5v-4q1 -6 3 -11q1 -6 3 -11q5 -25 -1 -54q-5 -28 -9 -54q-1 -6 -1 -14q-1 -7 0 -14q1 -2 3 -4q3 -2 3 -4l-1 -1l-1 -1
q-3 -2 -6 1l-5 5q-7 7 -8 11q-2 4 -2 14v0zM307 369q7 28 8 57q1 28 1 57q0 21 2 42q-2 -20 -1 -16q0 4 1 16v8q0 6 3 6l3 -3q1 -2 2 -2q2 -2 5 -4q3 -3 4 -5q1 -4 0 -12q-1 -9 -2 -14q-2 -21 -1 -42q0 20 0 16v-16q0 -9 1 -18v-18q-3 -20 -5 -39q2 18 2 15q-1 -4 -2 -15
q-1 -5 -2 -14q-2 -8 -2 -12q1 -3 3 -4t0 -3t-3 0l-3 3q-4 4 -9 8q-4 4 -5 9v0z" />
    <glyph glyph-name="numbersign" unicode="#" horiz-adv-x="504" 
d="M64 201q4 5 10 5q5 1 11 1q7 1 14 3q6 2 13 3h5q2 0 4 1q2 2 2 4v4q2 15 3 30q-1 -14 -1 -11t1 11l4 38q2 18 5 37l5 20q4 11 4 18q-1 2 -4 1q-4 -1 -5 -2q-6 -1 -15 -4t-15 -3q-2 1 -8 7t-6 7q1 3 7 4q5 1 8 1l32 8q-15 -3 -12 -3q3 1 12 3q2 1 6 1q3 0 5 2q2 1 2 4
q1 4 1 6q4 11 8 23q-4 -11 -3 -9q0 2 3 9q6 17 12 35t14 35q1 2 3 4t3 4l2 8t2 7q0 2 1 4q1 3 2 4q1 0 2 -1l2 -2l6 -6q4 -3 5 -7q-1 -8 -5 -16l-8 -14l-10 -26q-4 -13 -9 -25q-1 -2 -1 -4q-1 -2 -1 -4l-4 -10q-1 -5 -3 -10q-1 -1 -1 -2q-1 -2 -1 -3q1 -1 8 -1q7 1 9 1
q5 0 10 1q4 1 9 1q9 1 19 1q9 0 19 1q17 1 34 0t34 -1h9q4 0 8 -1q1 0 2 -1q2 0 3 1t1 2q0 2 1 3q3 7 5 15q-2 -7 -2 -6q1 2 2 6q4 12 10 24q5 12 7 25q1 4 0 11q0 8 2 10q1 1 2 1h-1h1q1 -1 1 -2l2 -2l5 -5q3 -2 5 -5q1 -3 0 -6v-7q0 -12 -5 -24q-5 -11 -9 -22
q-3 -8 -5 -15q2 7 2 6q-1 -2 -2 -6q-1 -1 -2 -3v-2q2 -1 9 -1q7 -1 10 -1q10 -1 20 0q11 0 21 -1q5 0 8 -1q3 0 7 -4q2 -1 6 -5t4 -5l-1 -2q-1 -1 -2 -1h-1q0 1 -1 1q-3 1 -7 1h-8h-27q-13 0 -26 2q-4 0 -9 1q-6 1 -9 -1q-1 -2 -1 -4t-1 -4q-2 -7 -5 -14q-2 -7 -3 -14
q-6 -21 -10 -43q-5 -23 -8 -43q-1 -8 -2 -15q-2 -7 -3 -14q0 -2 -1 -5q-2 -4 -1 -6q1 -1 3 -1h2h21q-10 0 -8 0h8q13 0 30 3q18 3 29 1q2 -1 5 -4l4 -4l7 -7t5 -8l-1 -2q0 -1 -2 -1q-2 1 -4 4t-4 4q-3 2 -8 2q-4 -1 -8 -1q-5 0 -10 -1q-6 -1 -11 -2q-9 0 -18 -1q-9 0 -18 -1
h-8h-8q-1 1 -4 1q-3 1 -4 1q-2 -1 -2 -4v-5q-1 -5 -1 -10l-2 -10q-3 -10 -4 -21q-2 -11 -3 -22q-2 -12 -5 -23q-4 -12 -6 -23q-1 -12 -4 -22q2 10 2 8q-1 -2 -2 -8q-1 -3 -2 -5q0 -3 -3 -4q-2 0 -3 1q-1 2 -2 3q-6 5 -7 7q-2 3 1 11q4 15 6 31q-3 -15 -2 -12q0 3 2 12
q1 8 4 16l4 16l2 16l2 16q1 6 2 13q1 6 2 13q1 1 1 4q1 2 -1 3q-3 1 -15 1q-11 1 -16 1q-22 3 -45 4q-22 0 -44 -2q-7 0 -13 -1h-13h-4q-2 0 -3 -2q-2 -5 -3 -13t-2 -13q-4 -18 -7 -37q-4 -18 -6 -36t-2 -36q0 17 0 14v-14q0 -2 1 -6q0 -4 -3 -4q-1 0 -3 3l-3 3q-7 7 -8 13
q-2 6 -1 15t2 19q0 9 1 18t3 19l4 18q1 5 2 11t3 11q0 2 1 5q2 4 1 6q0 1 -2 1q-1 0 -2 -1q-9 -2 -17 -3q8 2 6 1q-1 0 -6 -1h-8t-7 -1q-1 -1 -2 -1q-1 -1 -2 -1q-4 3 -7 7t-7 7v0zM140 218q3 -2 6 -2t6 1q6 0 12 1h13q21 2 42 0t41 -4q13 -1 25 -2q-12 1 -9 1q2 0 9 -1
q2 0 5 -1h5q1 2 2 8q0 7 1 9q3 13 5 26q1 13 4 25q5 19 8 37l8 38q2 4 3 9q1 4 3 9q0 1 1 2q0 2 -1 2q-3 2 -8 1h-8q-11 1 -23 2q-13 1 -24 -1h-13h-13q-13 -2 -26 -3q-13 0 -26 -2q-4 0 -12 -1q-8 0 -11 -3q-4 -7 -6 -17q-1 -10 -3 -18q-3 -18 -6 -35q-3 -18 -5 -36
q-1 -11 -2 -23q0 -11 -3 -22v0z" />
    <glyph glyph-name="ampersand" unicode="&#x26;" horiz-adv-x="469" 
d="M67 150q1 7 1 14t1 14q0 6 1 12l2 12q1 7 4 13q3 7 6 13q5 12 14 26t18 23q10 11 23 22q12 12 24 21q4 2 9 4q5 1 9 1q1 0 6 -1q4 -1 4 0q0 2 -2 5q-3 3 -5 4l-8 12l-8 12q-9 13 -17 27t-15 28q-3 8 -6 17t-2 18q0 5 3 10q2 4 5 9q5 10 11 20t13 18t14 13l16 12q5 4 11 9
q7 4 13 6q10 2 22 -1q12 -2 21 -7q12 -4 23 -8q12 -4 23 -9q4 -2 8 -6q3 -4 6 -7q7 -6 14 -13q6 -7 10 -16l2 -6v-6q2 -13 -2 -24q-3 -10 -9 -22q-1 -1 -2 -3q-1 -1 -2 -3q-4 -9 -11 -17l-14 -14q-15 -15 -31 -30q15 14 12 11t-12 -11q-6 -6 -13 -11q-6 -4 -13 -10
q-5 -5 -11 -9t-11 -8l-6 -4q-2 -1 -4 -3q-1 -2 0 -4q2 -2 3 -4q4 -5 7 -11t7 -11q8 -13 15 -25q7 -13 15 -25q7 -11 14 -21q8 -11 14 -22q7 -14 14 -27q8 -13 15 -27q2 -4 5 -7l4 -8l1 -2l1 -2q2 0 4 3l2 4q4 4 7 10l6 10q10 21 15 43t13 43q5 12 11 23q-5 -11 -4 -9t4 9
q1 2 2 3t3 -1q3 -2 6 -6q4 -3 5 -6t-1 -6t-3 -5q-5 -13 -11 -26q5 12 4 10q-1 -3 -4 -10q-3 -8 -5 -17q-1 -9 -4 -17q-4 -9 -7 -19q-2 -9 -6 -18q-3 -8 -8 -15l-10 -14q-1 -2 -3 -4q-2 -1 -3 -3q0 -2 1 -4l2 -2q4 -11 12 -19q-7 8 -6 7q2 -2 6 -7q3 -3 6 -8l6 -10
q7 -10 13 -20q7 -10 11 -22q2 -3 7 -8q4 -4 4 -8q0 -1 -1 -3q-1 -3 -2 -3t-2 1q-1 2 -2 2l-6 6q-3 2 -6 6q-2 3 -3 8q-2 4 -3 8q-7 12 -14 23q-7 12 -14 23q-6 8 -11 16q5 -8 4 -6q-1 1 -4 6q-1 1 -2 3t-3 2q-1 -1 -3 -4q-1 -3 -2 -4q-6 -7 -12 -15q5 7 4 6q-1 -2 -4 -6
q-11 -13 -28 -29q-17 -17 -31 -26q-10 -5 -21 -9q-12 -5 -23 -7q-10 -3 -24 -5q-14 -1 -24 -1q-7 1 -18 6t-17 10l-7 7t-7 8q-10 9 -18 19q8 -9 6 -7q-1 1 -6 7q-4 4 -7 9l-4 10q-3 6 -6 11q-2 6 -5 12q-7 17 -8 36q-1 20 -1 38v0zM83 143q0 -24 3 -47q3 -22 13 -44l8 -18
q5 -9 11 -16q7 -7 17 -11q11 -5 20 -6h13l12 2q20 2 42 9q22 8 38 21l14 14q7 8 14 15t13 14t12 15l5 5t4 6q0 3 -3 8q-4 4 -5 7q-5 9 -11 18l-10 18q-7 13 -15 27q-8 13 -15 27q-7 13 -16 25t-17 25l-18 32q9 -15 7 -12t-7 12q-1 2 -4 7q-2 4 -4 5q-3 2 -8 -1q-4 -4 -7 -4
q-4 0 -6 4t-5 6q-2 0 -5 -3q-3 -2 -5 -4q-6 -5 -12 -11q-6 -5 -12 -11q-3 -3 -7 -5l-6 -6q-12 -13 -22 -29q-9 -17 -16 -33q-6 -14 -6 -30q-1 -16 -4 -31v0zM142 437q1 -25 14 -47q13 -21 26 -41q3 -6 6 -11q4 -4 7 -9l2 -4t3 -2t4 2q2 3 3 4q6 5 12 9q7 5 13 10t12 9
q7 5 13 10q18 15 34 32q16 18 25 39q3 6 6 13t4 14q1 9 -2 19t-9 16q-6 5 -15 8q-10 3 -17 5l-26 10q-14 5 -29 5q-7 0 -16 -6q-8 -6 -14 -11q-16 -12 -27 -24q-10 -11 -19 -30q-2 -5 -5 -10t-5 -10v0z" />
    <glyph glyph-name="quotesingle" unicode="'" horiz-adv-x="484" 
d="M225 393q0 23 3 47q-2 -22 -2 -18q0 5 2 18q2 16 5 31q4 16 6 32q1 6 2 13t1 13v6t2 5q1 -1 7 -6t7 -7t1 -5v-6l-4 -30q2 14 1 11q0 -3 -1 -11q-3 -20 -7 -40t-6 -40v-17q-1 -9 0 -17q0 -3 1 -6q1 -4 0 -7l-1 -1l-2 -1q-1 1 -7 6q-5 6 -7 7q-1 5 -1 11v12v0z" />
    <glyph glyph-name="parenleft" unicode="(" horiz-adv-x="474" 
d="M154 141q2 6 1 12v12v20q1 9 2 19q1 6 0 13q0 6 1 13q1 10 1 20t1 20q5 64 19 124q13 61 62 107q25 22 48 45q-22 -22 -18 -17q5 4 18 17l9 9t9 6l7 -7q5 -6 6 -6q0 -2 -2 -3t-3 -2q-5 -4 -9 -8q-5 -4 -9 -8l-32 -32q15 15 12 12l-12 -12t-19 -17q-9 -9 -17 -20
q-5 -8 -11 -16q-5 -9 -9 -18q-2 -6 -5 -12l-4 -12q-5 -12 -8 -28q-2 -16 -4 -30q-11 -57 -13 -116q4 55 3 44q-2 -11 -3 -44q-1 -25 -2 -49l-2 -50q0 -16 3 -33q2 -16 4 -33q3 -19 11 -39t16 -38q8 -19 21 -36q14 -17 31 -29q7 -5 15 -8q8 -4 14 -9l5 -5q4 -3 1 -5
q-4 -2 -10 2q-5 3 -8 5q-11 7 -21 16q-10 8 -19 18q-23 22 -35 44t-24 51q-3 8 -7 18q-4 11 -5 20q-1 12 -3 23l-4 24v14q0 7 -2 14v0z" />
    <glyph glyph-name="parenright" unicode=")" horiz-adv-x="465" 
d="M138 -124q2 2 5 4l6 4q5 5 11 10q5 4 10 9q12 11 22 24q10 12 19 26q12 18 23 39q10 20 17 41l6 16l6 16q0 3 1 5q0 3 1 6q10 23 15 48t7 50q1 6 0 12v11q1 10 1 21l-2 20q-1 6 0 12q0 5 -1 11q-1 10 -3 20q-1 10 -3 21q-2 12 -5 25q-4 13 -8 25q-6 17 -11 34t-13 33
q-9 16 -18 33q-10 16 -19 33q-4 9 -9 18q-4 9 -10 16q-5 7 -11 13t-11 13t-7 16q3 -8 2 -7q-1 2 -2 7v3q-1 2 1 3q2 0 4 -3t3 -4l20 -20q-9 10 -7 8q1 -2 7 -8l4 -4q3 -2 4 -5q1 -4 3 -8q1 -5 4 -8q5 -6 11 -13q5 -6 11 -12q4 -5 7 -12l6 -12q4 -9 10 -18q5 -9 10 -19
q7 -13 15 -26t15 -28q5 -13 9 -27t9 -28q16 -46 20 -99t-2 -101q-4 -31 -14 -61q-10 -29 -20 -59q-1 -5 -4 -9l-4 -10q-13 -30 -31 -58t-42 -52l-13 -13q-7 -6 -14 -11q-1 -1 -4 -3q-2 -2 -4 -2q-2 1 -4 4q-3 3 -4 5q-6 6 -12 13q-7 7 -13 12v0z" />
    <glyph glyph-name="asterisk" unicode="*" horiz-adv-x="472" 
d="M68 452q3 3 7 3t9 -1t11 0q6 0 11 -1h7q3 1 7 0l30 -2q16 -2 31 -3q6 -1 12 -3t11 -4q5 -1 11 -2q6 -2 9 -5q3 -2 6 -6t6 -5q1 -1 2 0l-1 -1l1 1q1 2 -2 4q-3 3 -4 5q-1 4 -1 8v8q0 25 -4 50t-6 50q0 7 -1 14l-2 14q0 1 1 4q0 2 2 3q1 0 3 -2l2 -2l13 -13q-6 6 -5 5l5 -5
l8 -8q5 -3 7 -7t2 -11t1 -11q0 -14 1 -28q1 -15 4 -29q2 -10 3 -20q-1 9 -1 7t1 -7v-5t1 -4q1 0 4 2q4 2 5 3l22 8q-11 -4 -8 -3q2 1 8 3q12 4 25 6q12 2 25 4l10 2l10 2q3 0 5 -2t5 -4q10 -11 20 -21q-10 10 -8 8l8 -8q1 -1 4 -3q3 -3 2 -5t-3 -2h-5q-5 0 -10 -2
q-5 -1 -9 -2q-21 -3 -39 -8t-37 -13q-4 -2 -8 -3l-8 -4l-2 -2q-2 0 -2 -1q0 -2 3 -4q2 -2 4 -3q4 -4 8 -9q5 -5 8 -11q6 -9 10 -22q5 -13 8 -24q1 -5 2 -11q1 -5 3 -10q3 -7 6 -15q2 -7 5 -14q1 -1 5 -6q4 -4 0 -5q-1 0 -3 1q-2 2 -2 3l-17 17q8 -8 6 -6l-6 6q-5 4 -11 10
q-6 5 -8 11q-4 8 -7 17q-4 8 -6 17l-2 8l-2 8q-2 6 -4 11q-1 6 -3 12q-1 1 -2 5t-2 5q-2 0 -5 -3q-3 -4 -4 -5q-7 -6 -15 -12l-13 -13q-10 -10 -20 -19t-19 -20q-6 -7 -10 -14q-5 -8 -10 -15q-5 -6 -10 -13q-5 -6 -8 -13q0 -2 -2 -5q-1 -3 -3 -2t-4 4q-3 2 -4 4l-12 12
q-7 5 -12 12q-2 2 0 4l2 4q3 7 8 14l10 12q6 7 11 16t11 16q8 9 17 18q9 8 18 17q8 7 15 14q-7 -6 -5 -5l5 5q2 1 4 3q3 2 4 4h-1l-1 1q-4 1 -7 1q-4 1 -8 1q-12 1 -25 2l-24 2q-10 1 -19 1q-10 0 -19 1h-9q-4 -1 -7 1q-2 1 -5 4q-2 2 -3 4l-13 13q-6 7 -13 12v0z" />
    <glyph glyph-name="comma" unicode="," horiz-adv-x="431" 
d="M176 -66v6q0 4 2 7q2 6 5 11q3 6 5 12q2 4 3 9t1 10q1 8 4 15q2 8 3 15q2 14 4 29q3 15 9 29q2 5 3 13t3 13q3 3 6 0l5 -5q9 -9 18 -19q-8 9 -7 7l7 -7q2 -1 5 -4q3 -2 3 -4t-2 -6q-1 -5 -2 -7l-6 -24q3 11 2 9q0 -3 -2 -9q-1 -5 -3 -10q-2 -6 -3 -11l-2 -16
q-2 -8 -3 -16q0 -4 -2 -8l-2 -8q0 -7 -2 -15t-5 -14q-2 -6 -6 -12q-3 -6 -4 -12v-8q-1 -7 -3 -8q-2 0 -4 3q-3 4 -4 5l-20 20q9 -9 7 -7l-7 7q-3 2 -5 4q-1 2 -1 6v0z" />
    <glyph glyph-name="hyphen" unicode="-" horiz-adv-x="481" 
d="M104 228q3 3 9 3q6 1 10 0q5 -1 10 0h10q7 -1 13 -2q7 -1 13 -2q13 -1 25 0q13 1 25 0q17 -2 34 -3q17 -2 34 -2q4 0 9 1q4 0 8 1q5 0 10 -1h10q3 0 10 1t10 1q2 -1 4 -4q3 -3 4 -5q8 -8 17 -16q-8 7 -7 6q2 -2 7 -6q1 -2 4 -5q4 -3 4 -4q0 -3 -6 -3q-6 -1 -9 -1
q-15 0 -30 -1t-30 0q-14 2 -29 2q-15 1 -29 3q-11 1 -21 -1q-11 -1 -21 0q-6 1 -11 2l-12 2q-7 1 -15 1h-16q-2 -1 -5 -1q-3 -1 -5 0q-3 1 -6 5q-2 3 -4 5q-6 6 -13 11q-6 6 -11 13v0z" />
    <glyph glyph-name="period" unicode="." horiz-adv-x="470" 
d="M192 63q2 8 5 14t7 12q1 1 2 4q2 2 3 4q4 1 6 -1q3 -2 6 -3t5 -1q3 0 5 -2q5 -3 8 -7q4 -4 7 -8q9 -8 20 -19t12 -24q0 -3 -2 -6t-2 -6q0 -7 -1 -14q-2 -7 -11 -7q-2 0 -3 1l-4 2q-4 0 -8 -2t-11 1q-6 5 -12 12q-5 6 -11 12q-4 3 -8 7t-6 9q-1 3 0 6q0 3 -1 5q-1 4 -3 5
q-2 0 -3 6v0z" />
    <glyph glyph-name="slash" unicode="/" horiz-adv-x="470" 
d="M81 23q1 4 2 9q0 4 1 8q5 20 13 39q7 19 15 38q5 13 9 27q5 13 11 26q15 37 31 73l34 72q14 27 27 53t30 51q5 8 9 16q5 8 11 14l2 4q0 1 1 3q5 5 8 10q4 6 8 11q9 15 20 30q10 15 22 28q5 5 8 10q4 6 8 11l2 4q2 2 4 1q6 -4 12 -11l12 -12l4 -4q3 -2 4 -5q0 -2 -3 -7
t-5 -7q-7 -10 -16 -19q-8 -10 -15 -20q-26 -38 -53 -77q-27 -38 -45 -79q-2 -5 -5 -9q-2 -4 -5 -9q-13 -30 -28 -61t-29 -62q-9 -20 -16 -40q-8 -21 -17 -41q-4 -11 -8 -23t-9 -23q-5 -13 -10 -28t-7 -29q0 -6 1 -11q2 -6 4 -11q1 -1 2 -3q1 -1 -1 -3q-2 -1 -6 4l-6 6
q-7 6 -16 16q-10 10 -13 18q-1 3 -1 6t-1 6v0z" />
    <glyph glyph-name="zero" unicode="0" horiz-adv-x="445" 
d="M76 226v24l2 24q1 8 0 16q0 8 1 16q2 18 2 36q1 18 3 36q1 9 5 21q3 12 7 21q1 3 1 7l2 6q3 9 6 17q3 9 7 17q2 5 4 9q3 4 5 9q3 7 11 14q7 6 13 12t13 12t15 10q21 9 45 9q23 1 45 -8q2 -1 4 -1h5q1 -1 3 -2q1 -1 3 -2q1 -1 3 -1q1 0 2 -1q3 -2 6 -5q3 -4 6 -7h1l1 -1
q0 -4 -4 -2q-5 1 -4 -1q1 -5 5 -10q3 -5 5 -10q5 -10 13 -19q7 -9 12 -19l10 -24q-5 11 -4 9t4 -9q4 -8 7 -22t4 -23q1 -5 3 -10q1 -4 2 -9q1 -10 4 -20q2 -9 3 -19q5 -44 10 -87q-4 41 -3 32q1 -8 3 -32q2 -19 0 -39q-3 -19 -5 -38q-1 -8 -2 -17q-2 -9 -5 -16
q-5 -12 -11 -24t-11 -24q-8 -17 -21 -33q-12 -15 -30 -23q-10 -3 -26 -4q-16 0 -26 1q-15 1 -27 3q-11 2 -25 8q-12 6 -22 15t-19 18q-21 20 -34 42t-20 51q-2 5 -3 10q-2 6 -3 11q-1 11 -1 23v23v0zM93 218q0 -10 -1 -21q0 -10 1 -20q3 -31 17 -61q14 -31 36 -53
q19 -17 47 -22q29 -5 54 -3q10 1 20 3t18 9q14 13 24 29t17 34q6 12 11 23q5 12 7 26q3 20 6 43q2 24 1 44q-2 13 -3 26l-2 26q-2 15 -5 31t-6 31q-4 25 -10 49t-15 46q-4 10 -11 18q-6 8 -11 17l-6 12q-3 7 -7 12q-5 4 -15 6q-11 1 -17 2q-31 3 -55 -8q-23 -11 -43 -34
q-12 -14 -18 -30q-5 -17 -11 -34q-6 -13 -10 -28t-6 -30q-1 -10 -1 -20l-2 -20q-1 -11 -1 -22t-1 -21t-1 -21q-1 -10 0 -20v-10t-1 -9v0z" />
    <glyph glyph-name="one" unicode="1" horiz-adv-x="390" 
d="M104 443q6 9 14 15q9 7 17 14q16 16 34 31t35 30q6 6 13 11t15 8q2 1 5 2q2 1 5 0q4 -3 10 -10q7 -7 9 -11q3 -7 3 -16q1 -8 1 -16q2 -16 2 -31v-32v-83q0 39 0 31v-31v-23q0 -12 -1 -23q-1 -6 0 -4q0 3 1 -2v-27t-1 -26q-1 -6 -1 -11v-12q-1 -22 -1 -45q0 -22 2 -44
q1 -14 4 -27q2 -13 3 -26l2 -20q2 -10 6 -19q2 -7 4 -13q1 -5 1 -12v-4t-1 -4q-3 0 -9 7q-6 6 -7 8v7v7q-1 6 -4 13q-4 7 -6 14v6v6l-4 22q-1 11 -3 22q-3 30 -5 59q-2 30 1 59q2 15 1 30q0 15 1 29q1 10 0 20v20v87q0 -41 0 -32v32q0 19 -1 38v38q0 11 -1 22q1 -10 1 -8
q-1 2 -1 8v5t-2 4q-1 1 -5 -1q-4 -3 -5 -3q-8 -4 -16 -11t-14 -13q-16 -16 -34 -30t-34 -29q-7 -8 -15 -15q7 7 6 5q-2 -1 -6 -5q-1 -1 -3 -2q-2 -2 -3 -2q-2 1 -6 6l-7 7v0z" />
    <glyph glyph-name="two" unicode="2" horiz-adv-x="531" 
d="M83 509q4 5 10 6q6 2 11 4t10 5t10 5q9 3 22 5q14 2 24 3q5 1 11 2t11 2q20 2 39 3q20 1 39 -1q26 -4 51 -23q26 -20 36 -44q5 -11 6 -25q1 -13 -1 -25l-4 -36q2 16 2 13q-1 -3 -2 -13q-1 -9 -4 -18q-3 -8 -5 -17q-2 -6 -3 -12t-3 -12q-8 -21 -15 -42t-15 -41
q-5 -12 -11 -23t-11 -22q-5 -10 -10 -19l-10 -18q-2 -5 -5 -9q-3 -3 -5 -8q-2 -4 -5 -8q-2 -5 -6 -8q-5 -6 -10 -14q-4 -7 -10 -13l-22 -24q-11 -13 -22 -25q-6 -6 -13 -12q-6 -7 -13 -12q-5 -3 -10 -7q4 4 3 3l-3 -3q-1 0 -4 -1q-2 -1 -2 -2q3 -2 9 -2q5 0 9 -1
q19 -2 39 -4q-19 2 -15 2q4 -1 15 -2q17 -2 35 -4l36 -2q27 1 54 3t54 5q10 1 23 1q13 -1 22 -3q2 -1 5 -1q2 1 4 0t7 -7q6 -5 7 -7l-1 -1q1 1 1 0h-1q-3 -3 -8 -2q-5 2 -8 2q-14 1 -28 1t-27 -1q-26 -3 -54 -5q-28 -3 -54 0h-7h-6l-76 8q36 -4 28 -3q-7 1 -28 3t-43 7
q20 -4 16 -3t-16 3q-3 1 -8 2q-4 1 -7 3l-4 4q-2 3 -4 5q-1 1 -3 2t-2 2q-2 4 3 5q4 1 6 1q8 4 17 7q9 4 16 10q18 17 36 35q-17 -16 -14 -13q4 3 14 13q7 7 13 15q7 8 13 15q4 4 7 10q4 5 8 9q8 10 17 24q8 14 14 25q2 4 5 9q3 4 5 8q6 14 13 27q6 14 13 27q6 13 10 27
q5 13 10 27q8 19 14 39l10 40q5 18 7 39t0 39q0 9 -3 19q-3 9 -9 16q-8 9 -24 16q-16 8 -28 9q-4 1 -9 0q-5 0 -10 1q-28 2 -56 -3t-55 -9q-9 -1 -18 -4q-8 -4 -17 -8q-3 -1 -9 -4q-7 -4 -10 -3t-7 6t-7 7v0z" />
    <glyph glyph-name="three" unicode="3" horiz-adv-x="435" 
d="M35 61l2 2q0 1 2 0q3 -2 5 -6l6 -6q3 -2 7 -3q4 -2 7 -3q18 -7 37 -14q19 -6 38 -8q15 -1 30 1q16 2 31 4q2 0 5 1t5 1q10 2 19 4q8 3 18 4t20 5q11 3 20 8q29 10 53 28q24 17 37 45q5 13 6 30t0 30l-2 14t-6 12q-7 6 -22 10t-24 7q-15 4 -29 9q-15 5 -29 10q-10 5 -20 9
q-11 4 -21 7q-7 1 -14 1q-7 1 -14 0q-5 -1 -11 -1q-5 0 -10 2q-2 1 -4 3q-1 2 -3 3q-1 2 -5 4q-3 3 -3 4q-1 5 6 6h10q6 0 12 -1q5 -1 11 -2q9 -1 19 2q10 2 17 5q15 7 34 16q18 10 30 21q12 10 23 20q-11 -10 -8 -8l8 8q16 14 26 31q10 18 11 39q-1 13 -9 28t-16 24
q-10 14 -21 26q-11 13 -26 21q-9 5 -20 7q-11 1 -21 2q-27 3 -58 1q-32 -1 -58 -5q-10 -2 -20 -6t-18 -9q-3 -2 -7 -7l-5 -5q-1 0 -1 1l-1 1l-6 6q-5 4 -6 5q0 2 2 4q1 2 2 2q7 9 18 14q10 5 21 8t23 4l24 2q23 2 46 2q22 0 45 -3l14 -2t13 -4q8 -4 15 -10t13 -12
q18 -14 35 -35q17 -20 27 -40q3 -6 7 -13q3 -6 4 -13q1 -12 -3 -25q-3 -12 -8 -23q-3 -7 -9 -13q-6 -5 -11 -10q-10 -10 -21 -19q-10 -8 -20 -17q-5 -4 -10 -7q-6 -3 -11 -6l-14 -8t-15 -7h-2h1h-1q-3 -1 -5 -2q-3 -1 -5 -2v-1q-1 0 -1 -1q1 -1 5 -2t5 -1q19 -7 37 -13
q-17 6 -14 5q4 -2 14 -5q16 -6 33 -10q17 -5 33 -12q6 -3 11 -8l10 -10t10 -11q5 -5 7 -12q2 -9 3 -19v-18q0 -11 -2 -22t-6 -21q-5 -11 -13 -21t-17 -19q-9 -8 -21 -15q-11 -7 -22 -12q-15 -6 -30 -13q14 7 11 5q-3 -1 -11 -5q-3 -1 -6 -1q-2 -1 -5 -2q-15 -5 -35 -9
t-37 -6l-16 -2q-8 -2 -16 -3q-16 -1 -33 2t-33 9q-15 6 -32 11q-16 5 -28 16q-4 4 -8 7q-4 4 -5 10v0z" />
    <glyph glyph-name="four" unicode="4" horiz-adv-x="505" 
d="M67 149q6 10 11 22q6 12 10 23q3 6 6 11q4 5 6 11q8 17 16 33q9 17 17 34q6 13 13 25q7 13 13 26q7 17 16 33q9 17 18 33t19 31q10 16 18 32q3 5 7 10q3 5 7 10q16 24 30 50q-14 -24 -11 -19t11 19q3 5 5 10q3 4 6 9q0 1 1 4q1 2 3 2q1 -1 7 -6l7 -7q0 -3 -4 -9
q-4 -7 -6 -10q-8 -16 -17 -31q-10 -15 -19 -30q-10 -13 -19 -27t-16 -29q-1 -2 -3 -5q-2 -2 -3 -5q-4 -8 -9 -16t-9 -16q-1 -3 -2 -5q-2 -1 -3 -4q-5 -10 -10 -21q-6 -10 -11 -21q0 -2 -2 -3q-1 -2 -2 -3q-8 -19 -17 -36q-9 -18 -17 -36q-2 -4 -4 -7l-4 -6q-6 -14 -14 -28
q-7 -14 -13 -28l-8 -16q4 7 3 6l-3 -6q0 -1 -2 -4q-1 -2 -1 -3q2 -1 3 -1q2 1 4 1h13q7 0 13 1h11h12q15 2 30 3t30 1h18t17 1q9 1 19 0h18h12q7 0 9 3v6v7q3 21 5 42q-2 -20 -2 -16q1 4 2 16q6 49 11 99q-5 -47 -4 -37q1 9 4 37q2 13 2 26q1 13 2 27q2 14 2 28t2 28v13
q0 6 2 11q2 6 5 11q2 5 7 8q1 2 2 2q2 1 4 0q2 -3 6 -6t5 -6q0 -1 -4 -6q-4 -4 -5 -7q-4 -8 -5 -17q-1 -8 -1 -17q-1 -45 -6 -90q-4 -45 -9 -89q-2 -14 -3 -27q-2 -13 -4 -27v-9q-1 -7 0 -9q2 -1 6 0t6 1l22 2q11 0 22 1q8 1 15 2q8 0 16 1h7q4 1 7 2q3 2 4 5q1 4 3 5
q2 0 5 -4q2 -3 4 -4l2 -2q2 -1 3 -3q1 -3 -2 -7q-4 -4 -7 -6q-5 -3 -13 -3h-14q-15 -2 -30 -3q-15 -2 -31 -3q-4 -1 -9 -1h-10h-5q-2 0 -3 -2q-2 -5 -1 -14v-15q-1 -13 -1 -27l2 -28v-23q0 -11 1 -22q1 -15 1 -29q0 14 0 11v-11v-6t-2 -5q-2 0 -4 3l-3 3l-4 4q-2 1 -3 3
q-1 4 -1 13v14q0 25 -2 49q-1 24 -1 48q-1 6 -1 12t1 12v5q1 3 0 4t-5 1q-3 -1 -5 -1h-16q-8 1 -16 0q-13 -1 -25 -1q-13 1 -25 0q-9 -1 -19 -1q-9 0 -19 -1q-24 -3 -47 -3q22 1 17 1q-4 -1 -17 -1h-19q-11 0 -17 2q-3 1 -5 3q-2 3 -4 5l-4 4t-2 6v0z" />
    <glyph glyph-name="five" unicode="5" 
d="M83 69q2 1 3 4q2 2 4 3l6 -6q5 -4 7 -6q2 -3 -1 -4q-2 -1 -2 -4q2 -2 9 -5t9 -4q17 -7 33 -14q-15 7 -12 5q3 -1 12 -5q5 -2 10 -3l10 -4q8 -3 19 -5q10 -2 19 -3q16 -2 29 -3q13 -2 29 0q9 1 18 5l16 8q21 9 40 27q18 18 28 39q3 9 4 19q-1 -9 -1 -8q1 2 1 8q1 2 2 5
t1 5q1 11 2 23q1 11 0 22q-2 21 -8 40t-14 38q-5 13 -14 26t-21 19q-17 7 -33 6q-17 0 -34 -3q-5 0 -11 -2l-10 -4l-8 -2t-7 -2q-20 -9 -39 -22q18 11 14 9q-3 -2 -14 -9q-8 -5 -19 -14q-12 -8 -20 -10q-5 0 -11 7q-7 6 -9 11t-2 11q-1 6 -1 12q-2 20 -4 39q2 -18 1 -14
q0 3 -1 14t-1 21q1 11 0 21q-1 7 -1 14q1 8 0 15q-2 17 -2 35q0 17 -1 35q-2 11 -3 22q-2 11 -3 22q-1 5 0 9t4 8q8 7 19 8t21 1q10 2 21 2q11 -1 22 -1h84q-39 0 -31 0h31h17q8 0 16 1q4 0 8 1q4 0 7 -1q4 -2 10 -8t4 -9q-2 -1 -4 0q-2 0 -4 1h-14t-14 -1q-10 -1 -21 -1
h-21h-20t-20 1q-13 1 -27 0q-14 0 -28 -1q-8 0 -17 -1q-10 -1 -17 -4q-2 -1 -4 -1t-4 -2q-1 -1 -2 -3v-4q-1 -6 0 -12l2 -12q3 -20 5 -41q-2 19 -2 16q1 -4 2 -16q2 -26 2 -53q-1 -27 2 -53v-7v-6q1 -9 2 -19q0 -9 1 -18q0 -4 1 -9q0 -6 1 -9q2 -1 5 1q3 3 5 4q6 3 12 8
q7 6 14 9q4 2 8 5t8 5q14 6 29 12q15 7 31 9q14 2 30 2q15 1 29 -4q10 -5 18 -12t16 -15q21 -21 35 -49t17 -59q2 -11 3 -23q2 -11 1 -23q-2 -14 -5 -28t-8 -26q-4 -9 -11 -16q-6 -8 -13 -14q-15 -16 -36 -30q-21 -13 -44 -17q-22 -2 -43 1t-43 8l-26 8q-13 5 -25 11
q-9 3 -17 7q-9 4 -17 9q-7 4 -15 11q-8 8 -9 16v0z" />
    <glyph glyph-name="six" unicode="6" horiz-adv-x="454" 
d="M71 208q0 11 3 21q2 11 5 21l6 24t7 23l6 16q2 9 5 17q13 30 26 61q-12 -29 -10 -23q3 5 10 23q7 14 15 28t15 28q2 5 7 11t9 10l4 6t5 5l26 28q-12 -13 -10 -10l10 10q19 18 45 28q25 9 52 12q5 1 14 2t14 -1q2 -1 3 -3q2 -2 3 -4q2 -1 4 -3q3 -1 3 -3q0 -3 -5 -3
q-5 -1 -7 -1h-8h-8l-10 -2l-10 -2q-5 0 -9 -2q-5 -1 -9 -3q-5 -2 -11 -3q-5 -1 -10 -3q-12 -5 -24 -13q-12 -9 -21 -18q-18 -20 -34 -40q16 19 12 15q-3 -4 -12 -15l-10 -16l-8 -16q-12 -19 -21 -40t-18 -41q-4 -11 -7 -22q-4 -10 -8 -21q-6 -15 -10 -32q-4 -16 -8 -33
q-2 -7 -3 -14q-2 -7 -1 -15q1 -29 16 -57t34 -50q7 -9 14 -19q7 -9 16 -17q29 -23 70 -21q42 1 67 29q12 15 22 31q10 17 17 34q6 14 12 27q6 14 9 29q2 11 1 22q-1 12 -2 23q-2 11 -4 23q-3 11 -8 22q-4 7 -12 13q-8 5 -16 8q-29 13 -62 17t-60 -15q-20 -17 -31 -38
t-23 -42q-4 -2 -10 4q-6 7 -7 9q0 1 2 4q2 2 3 4q9 17 19 34q-9 -16 -7 -12q1 3 7 12q8 15 20 29q12 13 28 20q35 14 75 4q41 -11 67 -37q6 -5 13 -11q6 -6 10 -13q7 -15 9 -29q3 -15 4 -31q2 -12 1 -24q0 -13 -5 -24q-11 -29 -24 -56q12 26 10 21q-2 -6 -10 -21
q-1 -4 -3 -7l-4 -6q-11 -25 -34 -45q-23 -21 -50 -24q-17 -2 -33 0q-16 3 -31 9q-5 2 -9 4q-5 3 -9 6l-28 28q13 -13 10 -11q-2 3 -10 11q-5 5 -10 11q-4 5 -9 10q-6 7 -11 16q-5 8 -12 15q-13 14 -22 32q-8 18 -13 37q-1 6 -3 12q-1 7 -1 13v0z" />
    <glyph glyph-name="seven" unicode="7" horiz-adv-x="447" 
d="M67 511q3 3 8 4t10 1q3 0 5 1l6 2q10 1 20 1l20 2q11 1 23 1q13 0 24 -1t23 -1q12 1 24 1h41q21 1 42 3l14 2q8 1 15 2q5 1 11 3q5 2 10 3q2 -1 8 -6l8 -8q1 -4 0 -15q-1 -10 -2 -15q-3 -11 -4 -22q-2 -12 -6 -22q-3 -6 -5 -14l-4 -14q-3 -13 -8 -27q-4 -13 -9 -26
q-3 -6 -4 -12q-2 -7 -4 -13q-6 -12 -10 -25l-10 -26q0 -2 -1 -4q0 -2 -1 -4q-4 -10 -8 -21l-8 -22q-13 -31 -25 -62l-26 -62q-4 -9 -7 -19t-7 -19q-2 -5 -3 -9q-1 -5 -3 -9q-5 -12 -8 -25q3 12 3 9q-1 -2 -3 -9l-4 -10l-4 -10q0 -1 -2 -4q-1 -3 -3 -4q-1 0 -2 2q-1 1 -1 2
q-3 2 -7 5q-4 4 -3 7q1 4 3 8l4 8q2 5 3 12q2 6 4 11q6 15 10 30q5 15 11 29q14 34 27 68l28 68q7 16 12 32q6 17 13 33q0 2 1 4q0 2 1 4q6 16 11 32l12 32q2 5 3 10t3 10q7 18 12 37q5 20 9 39q3 10 4 20q-1 -10 -1 -8t1 8q0 1 1 2q1 2 0 3h-1h-1q-4 0 -7 -1t-7 -2
q-14 -1 -27 -3q-14 -2 -28 -2h-31q-16 -1 -32 -1h-14h-14q-11 2 -26 2t-26 -1q-22 -2 -45 -5q21 3 17 2q-4 0 -17 -2q-4 0 -12 -2t-11 -2q-3 2 -6 7l-7 7v0z" />
    <glyph glyph-name="eight" unicode="8" horiz-adv-x="470" 
d="M86 117q1 9 3 18q1 8 5 17q12 28 30 49q18 20 44 37q14 10 29 18t30 17q3 1 7 3l6 4q1 0 3 1q2 0 1 1l-2 1h-3q-11 2 -21 3q10 -1 8 -1t-8 1q-13 1 -26 5t-25 10q-4 2 -7 5l-6 6q-3 4 -7 8q-4 3 -7 8q-8 14 -12 37q-4 22 -6 39q-1 11 -1 22q0 12 5 22q2 5 5 9q4 5 7 8
q2 3 4 5q1 3 3 5q11 13 24 25q12 13 28 20q7 3 14 3l14 2q3 2 -1 4q-4 3 1 6q8 2 19 1q10 -2 18 -5q4 -2 10 -4q6 -3 9 -4h7q3 1 6 0q4 -2 8 -8q5 -6 8 -10q10 -8 19 -18q10 -10 14 -22q11 -30 12 -64q2 -33 -12 -63q-7 -12 -17 -22l-19 -19q-6 -5 -12 -9q6 4 5 3
q-1 0 -5 -3q-1 0 -2 -1q-1 0 -2 -1q1 -1 3 -2q2 -2 3 -2q4 -2 8 -5q3 -2 6 -5q11 -10 22 -22t18 -25l8 -18q5 -9 9 -18q4 -10 6 -22q2 -11 3 -22q2 -10 3 -19q2 -9 3 -19q2 -13 1 -26q0 -13 -1 -25q-1 -9 -6 -15q-4 -7 -10 -13q-17 -15 -38 -23t-42 -14q-22 -7 -41 -8t-41 2
q-9 1 -17 4q-9 2 -16 7q-13 8 -24 19q-12 10 -22 21q-10 10 -20 21q-11 11 -16 24q-4 8 -4 17q-1 10 0 19v0zM102 105v-17q0 -8 4 -16q10 -22 31 -41t44 -27q8 -3 17 -3q8 -1 16 -1q19 -2 39 1q20 4 38 11q21 8 46 19q24 11 29 36q2 21 0 42q-1 20 -4 41q-1 13 -4 26
q-2 14 -7 26q-3 7 -7 13q-3 7 -7 14q-3 8 -9 17q-6 8 -12 15q-5 5 -13 8q-7 3 -14 5q-9 4 -14 1q-5 -2 -12 -6q-10 -5 -20 -11t-21 -12q-30 -14 -60 -36t-44 -53q-6 -12 -10 -24q4 11 3 9t-3 -9q-3 -6 -4 -13q0 -8 -2 -15v0zM138 419q-1 -17 1 -38q2 -20 8 -36q2 -6 3 -14
q2 -8 6 -13q3 -3 7 -4t7 -2q11 -5 22 -7t22 -3q9 -1 19 -3q9 -2 19 -3q3 0 7 -1q3 -2 7 -1t11 6q8 5 11 8q2 2 5 4l4 4q14 13 25 28q12 16 15 36q2 20 1 40t-6 39q-2 9 -5 18t-9 15q-13 12 -29 15t-32 3q-14 0 -27 -2q-14 -2 -27 -7q-5 -3 -10 -7t-9 -8q-10 -10 -23 -24
t-19 -27q-2 -3 -3 -8q-1 -4 -1 -8v0z" />
    <glyph glyph-name="nine" unicode="9" horiz-adv-x="460" 
d="M79 52q0 1 1 2t2 0q2 -1 7 -7q6 -5 7 -7v-4t1 -4t3 -2q3 -1 4 -1q19 -4 41 -1t41 5q14 2 27 7q13 6 25 11q4 2 7 4l6 4q7 3 13 7l12 8q17 11 32 25t24 32q4 10 9 18q4 9 8 19q2 3 3 7l2 8q7 16 9 36t0 37v15v15q0 3 1 7q0 3 -1 6q0 1 -1 1h1h-1q-3 -2 -5 -5q-3 -3 -5 -6
q-5 -4 -11 -9q-5 -4 -11 -9q-14 -13 -34 -26q-19 -12 -38 -19q-10 -3 -21 -6q-10 -3 -21 -5q-22 -6 -45 -9q-22 -2 -44 8q-3 1 -5 3t-4 5q-3 2 -6 5l-6 6q-8 10 -13 27q-6 16 -8 29q-6 35 -2 72q5 37 19 70q4 10 8 21q5 10 12 19q3 4 8 7q4 3 8 7q20 16 44 25q23 9 49 12
q19 3 38 3t37 -9q8 -4 14 -9l12 -12l16 -16q7 -9 12 -19q10 -19 13 -38q4 -20 6 -41q1 -7 1 -16v-16v-6q-1 -3 -1 -6q2 -15 2 -30q-1 -16 -1 -31v-20q-1 -10 0 -20q0 -2 1 -5v-6l-4 -30q2 14 2 11q-1 -3 -2 -11q-1 -10 -5 -21q-3 -10 -7 -20q-7 -17 -16 -33q-9 -17 -21 -30
q-9 -10 -19 -18q9 8 7 6q-1 -1 -7 -6q-2 -2 -4 -3t-4 -3q-6 -6 -16 -13q-9 -6 -17 -10q-9 -4 -18 -9l-18 -8q-17 -7 -34 -10q-18 -3 -36 -5q-8 -1 -17 -1q-8 -1 -17 0q-13 1 -20 5q-7 3 -16 12q-5 6 -9 11t-4 13v0zM98 325q-1 -19 2 -38t10 -36q2 -5 4 -11q1 -6 5 -10
q2 -2 5 -3q3 0 5 -1q9 -2 18 -3q8 -1 17 0q22 2 48 9t45 15l16 8q8 5 16 11q32 21 58 48q-26 -24 -20 -20l20 20q5 2 10 -5t6 -3q2 12 1 26q0 14 -1 26q-1 5 0 10v10q-2 15 -3 29t-4 28q-1 3 -1 6t-1 6q-2 4 -4 9q-1 5 -3 10q-1 2 -3 4t-3 4q-1 3 -3 7l-4 6q-14 13 -31 18
q-18 5 -37 2h-5q-3 1 -5 0l-18 -2l-18 -2q-5 -1 -11 -3t-11 -5q-17 -7 -33 -16t-29 -22q-3 -5 -7 -13q-4 -9 -6 -14l-12 -28q-5 -14 -7 -30q-2 -10 -3 -24q-1 -13 -3 -23v0z" />
    <glyph glyph-name="colon" unicode=":" horiz-adv-x="450" 
d="M172 370q2 9 7 17q4 8 11 15l12 16q6 7 18 8q3 0 5 -3l4 -4l20 -20q-9 9 -7 7l7 -7l4 -4q3 -2 3 -3q-1 -2 -5 -3q-4 0 -4 -1v-1q1 0 1 -1q3 -2 6 -6q3 -3 5 -6q6 -10 13 -24q6 -14 4 -25q-1 -4 -3 -5q-3 -2 -5 -4q-6 -6 -14 -8t-16 0q-17 5 -29 16t-23 23q-6 5 -10 10
t-4 13v0zM181 65q1 3 1 6q1 4 2 7q3 6 11 13q9 7 15 8q5 1 11 0l10 -2h6q4 0 6 -1q3 -2 6 -5q2 -3 4 -5q9 -8 17 -17q-8 8 -6 6q2 -1 6 -6q1 -1 4 -3q2 -2 2 -3q-1 -3 -4 -3q-4 0 -6 1q-6 0 -13 1t-13 0q-2 0 -6 -3q-4 -2 -4 -4q0 -1 2 -2q2 -2 3 -2q5 -6 10 -11q-5 5 -4 4
l4 -4q11 -10 16 -19q6 -10 6 -26q0 -5 -1 -10q0 -6 -4 -9q-7 -5 -16 2q-9 8 -14 13q-11 11 -25 24q-13 12 -21 24q-4 6 -4 12q-1 7 -1 14v0zM210 344q7 -1 17 2t13 11q1 4 -1 8q-1 3 -5 6q0 1 -2 3q-1 2 -3 1l-3 -3q-1 -3 -2 -5q-5 -6 -8 -11l-6 -12v0zM217 28q1 -2 1 -4v-4
q1 -2 1 -4q1 -3 2 -4q2 -2 5 -2q3 1 4 3q1 8 0 16q0 7 -2 15q0 1 -1 4q-1 4 -3 4q-2 -2 -3 -6t-2 -6q-1 -3 -1 -6t-1 -6v0z" />
    <glyph glyph-name="semicolon" unicode=";" horiz-adv-x="425" 
d="M146 -86q1 3 2 5t2 5l24 56q-11 -26 -9 -21q3 5 9 21q5 12 9 25q5 12 9 24q5 11 10 21l10 20t12 18q7 9 12 18q0 3 1 7q1 5 3 6q2 0 5 -3q2 -3 3 -5q11 -10 21 -20q-10 10 -8 8l8 -8l3 -3t3 -4q-2 -10 -12 -23q-10 -14 -16 -23q-13 -27 -23 -55t-22 -54q-5 -10 -8 -19
q-4 -10 -8 -19l-2 -6q-1 -4 -3 -5t-5 2q-2 3 -4 5l-16 16q7 -7 6 -6l-6 6q-3 3 -6 5q-3 3 -4 6v0zM182 387q2 6 3 12t3 12q3 5 8 9l8 8t8 6q5 3 10 3h6t6 -1q5 -3 11 -10t11 -12l6 -6l5 -5q-1 -4 -6 -3q-4 1 -6 1q0 -1 2 -4q3 -2 4 -3l7 -7q3 -4 5 -8q3 -8 4 -24
q2 -16 1 -25q-2 -13 -11 -20q-8 -8 -21 -8q-5 0 -9 1t-8 3l-9 9q-4 5 -9 10q-15 14 -22 27t-7 35v0zM219 359v-10q0 -8 1 -10q2 -1 5 0q4 2 5 3q5 3 8 10t4 12v12q-1 5 -2 11q1 1 0 4q0 3 -2 3q-1 0 -2 -2l-3 -3q-6 -6 -9 -14q-3 -7 -5 -16v0z" />
    <glyph glyph-name="question" unicode="?" horiz-adv-x="461" 
d="M77 512q3 4 6 7l8 6q11 11 23 19q13 8 27 14q22 9 47 13q25 3 49 1q12 -2 30 -10q19 -8 29 -15l10 -10l10 -10l28 -28q14 -16 22 -32q7 -16 13 -31q-6 14 -5 11q1 -2 5 -11q3 -7 3 -16q1 -8 1 -16q1 -12 -1 -23t-3 -23q-2 -11 -5 -23q-3 -11 -7 -21q-6 -13 -20 -24
q-13 -11 -26 -18q-7 -4 -14 -6l-14 -6q-17 -7 -34 -16q16 8 13 6q-3 -1 -13 -6q-6 -4 -13 -7q-7 -4 -10 -10q-3 -8 -4 -16q0 -8 -1 -16t-1 -16t1 -16t0 -17q0 -8 1 -16t1 -17v-17v-5t-3 -3l-2 2t-2 3l-17 17q8 -8 6 -6l-6 6q-3 2 -7 5q-3 3 -5 6v4v3q-1 9 -1 18q1 9 0 18
q-3 20 -3 47q1 27 6 46q3 8 10 12q7 5 13 8q17 9 35 17q17 7 34 15q9 5 21 14q12 10 17 19q11 25 15 54t1 57q-1 7 -3 14t-5 14q-4 8 -8 18t-11 16q-5 4 -13 8l-15 5q-4 2 -8 3q-5 2 -9 3q-8 2 -17 2q-10 0 -18 -1t-16 -1q-7 0 -15 -1q-11 -2 -22 -6t-21 -8q-11 -5 -22 -13
t-19 -17q-2 -1 -6 -6q-5 -4 -7 -4q-1 0 -4 4q-2 3 -4 4q-6 6 -12 13t-13 12v0zM170 50q1 6 4 13q3 8 9 10q5 2 9 1h9h7t6 -1q3 -2 6 -5q3 -4 6 -7q5 -4 11 -9q5 -5 9 -11q1 -2 -1 -2q-1 -1 -1 -2q1 -3 7 -8q6 -4 8 -7q2 -4 3 -8q1 -5 1 -9q-1 -14 -11 -19q-10 -6 -23 -1
q-6 3 -11 7q-5 5 -9 10q-11 10 -23 22q-12 11 -16 26v0zM207 22q1 -1 3 -2q3 -2 4 0q0 1 -2 3l-3 3q-1 0 -1 -1q0 -2 -1 -3v0zM215 21q2 0 6 1q5 1 4 4q0 1 -1 1l-1 -1q-2 0 -4 -2t-4 -3v0z" />
    <glyph glyph-name="at" unicode="@" horiz-adv-x="484" 
d="M49 314q1 5 1 10v9l2 16q2 8 3 16q1 7 5 16q3 10 6 16q14 33 34 64q-18 -29 -15 -23t15 23q27 40 70 62q43 21 91 26q18 3 37 2q18 -1 35 -8q14 -6 26 -16l22 -22q7 -7 14 -13q7 -7 12 -15q12 -24 16 -50q3 -25 6 -52q3 -28 4 -57t1 -58q1 -40 -1 -83q-3 -43 -29 -75
q-8 -9 -19 -13q-11 -5 -23 -1q-6 3 -14 11q-7 7 -12 13l-17 17q8 -8 7 -7l-7 7q0 1 -1 3q-2 1 -3 1q-4 -3 -9 -10q-4 -6 -8 -10q-11 -11 -22 -20q-11 -10 -24 -18q-6 -3 -12 -7q-7 -3 -14 -4q-23 -2 -37 10q-15 12 -29 27l-5 5q-3 2 -5 5q-5 14 -7 30q-1 16 -3 30
q-1 14 -3 27q-3 13 -4 26q-3 25 1 55t14 53q3 7 9 14q5 7 11 13q13 14 26 23q14 9 33 14q4 1 9 2q4 1 8 1q19 0 32 -11q14 -11 26 -24q5 -5 11 -10q5 -5 9 -11q7 -13 8 -28l2 -28q2 -20 1 -40t0 -39q1 -4 4 -7q3 -2 4 -5q1 -5 -2 -12t-3 -13q0 -9 2 -19q3 -9 4 -18v-6t2 -5
t4 0q3 1 4 2q20 8 29 28q10 21 12 41q4 22 4 44v45q0 34 -1 67q-1 34 -5 68q-1 17 -4 33q-2 17 -6 33q-1 5 -4 11q-2 6 -6 9q-23 10 -46 10q-24 0 -48 -3q-34 -4 -69 -21q-34 -17 -58 -42q-12 -13 -21 -29t-16 -31q-8 -16 -15 -32q-7 -17 -9 -34q-3 -30 -3 -58q1 -28 5 -57
q1 -7 2 -13q2 -6 3 -12q4 -26 12 -51q9 -25 19 -49q5 -11 11 -25q6 -13 15 -23q4 -3 11 -7t12 -6q23 -10 48 -14t50 -1q7 0 12 2l12 4q2 1 5 3q3 3 6 2q1 0 3 -3l3 -3l20 -20q-9 9 -7 7l7 -7l4 -4q3 -2 3 -3q-1 -2 -4 -4q-4 -3 -5 -3q-9 -5 -18 -6q-9 -2 -18 -2q-19 0 -39 1
q-20 2 -38 9q-11 5 -21 9q10 -4 8 -3t-8 3l-6 4q-3 3 -6 4q-3 2 -7 4q-4 3 -7 6q-10 9 -19 19l-19 19q-6 6 -14 15t-12 16q-2 4 -4 7t-3 6q-4 9 -9 18q-4 9 -8 19q-6 14 -10 29q-5 15 -8 29q-9 33 -13 65q-5 32 -5 66v0zM169 220q0 -23 3 -46q4 -22 6 -45q1 -5 1 -14
q1 -9 3 -13q1 -2 5 -2t6 1q8 0 15 4q7 3 14 8q24 16 44 36q-20 -18 -16 -15t16 15q3 3 5 6q2 4 5 7q8 8 15 18q8 10 9 21q0 4 -1 8t-1 7q-1 7 -1 13v13q-1 6 0 12v11q-2 13 -1 27v26q0 8 -1 15t-2 15v6q0 3 -2 5t-5 2q-3 1 -5 1q-11 1 -21 -2t-20 -7q-27 -12 -43 -34
t-23 -51l-2 -14q-1 -8 -2 -15v-9q0 -5 -1 -10v0z" />
    <glyph glyph-name="A" unicode="A" horiz-adv-x="436" 
d="M39 45q1 5 1 10t1 10q2 6 4 11q2 6 4 11q4 8 6 17q2 8 5 16q8 19 16 37q9 19 17 37q8 20 16 41q7 21 15 41q15 34 27 69t21 71q2 8 4 17t6 16q1 2 1 5v4q3 12 7 24t9 23q2 6 5 10q2 5 6 9q2 2 5 4q3 3 5 3q4 -1 7 -5t5 -7q8 -8 12 -17q3 -10 7 -21q3 -5 5 -11q3 -6 6 -11
l6 -14q4 -7 7 -14q3 -8 6 -17q3 -8 6 -17q4 -10 7 -20t7 -20q1 -3 1 -7l2 -6q5 -13 8 -27t8 -27q1 -3 1 -6q1 -3 1 -6q0 -2 1 -4q1 -1 2 -3q2 -5 2 -11q1 -6 2 -11q1 -3 2 -9t2 -7t2 -1h2l7 -7l5 -5q0 -5 -5 -5q-6 0 -7 -2q-1 -1 0 -4t2 -4q2 -9 2 -18q-1 9 0 7v-7
q1 -5 2 -11q2 -6 2 -11q2 -15 5 -31q2 -16 8 -30q3 -9 5 -18t6 -18l16 -38q-8 18 -6 14q1 -3 6 -14q1 -3 3 -6q2 -4 3 -7q1 -1 3 -2l3 -3l-2 -2q-1 -1 -2 -1q-2 0 -4 3q-3 3 -4 5q-8 8 -13 17t-9 19q-4 9 -7 19q-4 9 -8 19q-3 8 -5 18t-5 18q-2 6 -4 13q-2 8 -3 14
q-1 10 -3 20q-1 11 -3 21v7q0 5 -2 7t-11 0t-13 -3q-16 -2 -31 -5q-16 -4 -32 -6q-2 0 -5 -1t-5 -1q-15 -2 -30 -5q-14 -3 -29 -5q-8 -1 -15 -4q-7 -2 -15 -3q-3 0 -9 -1h-8q-2 2 -4 5l-4 4q0 1 -1 1q0 1 -1 0l-1 -3t-1 -4q-5 -12 -10 -23q4 11 3 8q-1 -2 -3 -8l-12 -26
q-6 -12 -11 -25q-4 -9 -7 -19q-2 -9 -6 -18q-3 -7 -4 -14l-2 -14v-4q0 -3 -2 -4q-2 0 -7 6q-6 5 -8 8v0zM113 193q3 -2 12 -1q9 2 13 3q14 3 27 6q13 2 27 4q3 0 7 2q3 1 6 1q8 1 16 3q7 2 15 3q14 2 27 4q14 2 27 6q6 1 11 2q6 2 11 2h3t3 1q2 2 1 5t-2 5q-2 8 -3 15
q-2 8 -3 15q-8 31 -16 61t-18 59l-10 28q-4 13 -10 27q-4 9 -9 19q-4 10 -9 20q-4 12 -9 24q4 -12 3 -9q0 2 -3 9q-1 1 -2 3q0 2 -2 1q-5 -2 -7 -8t-4 -11l-6 -16q-2 -8 -5 -16q-3 -7 -4 -15q-1 -7 -4 -14q-2 -5 -3 -11q-1 -5 -3 -10q-3 -12 -7 -24q-3 -11 -6 -23l-2 -6
q-2 -3 -3 -6q-6 -25 -16 -50q-9 -24 -20 -48l-8 -22l-8 -22q-2 -4 -3 -8l-4 -8v0z" />
    <glyph glyph-name="B" unicode="B" horiz-adv-x="462" 
d="M53 372q1 22 3 44q2 21 5 43q1 5 2 11t2 11q0 4 2 7q1 3 1 7q0 3 -3 4q-2 1 -3 3q0 1 5 4q4 3 6 5q3 8 4 16l4 16q0 2 1 6q0 3 3 2q1 0 7 -6q5 -6 6 -7q0 -3 -1 -9q-2 -7 -1 -8t5 1q4 3 5 3q6 3 12 4q6 2 12 2q18 2 37 4l36 4q8 1 16 0t15 -2t14 -1q7 -1 13 -3
q27 -7 55 -22q27 -16 47 -36q8 -7 16 -15q7 -8 12 -17q8 -20 11 -47t-5 -48q-3 -4 -12 -14t-13 -14q-11 -11 -28 -18q-18 -8 -31 -13l-10 -4q-6 -1 -10 -3q-2 0 -5 -1q-4 -1 -4 -2q2 -1 7 -3q6 -1 8 -2l24 -8q12 -3 24 -8q8 -3 14 -9q6 -5 12 -11q15 -15 24 -29t11 -36
q1 -6 -1 -12l-2 -12q-2 -16 -11 -33t-21 -29q-2 -2 -5 -4l-5 -5q-40 -38 -88 -51q-48 -12 -102 -17h-15q-8 0 -16 -1t-19 1q-12 1 -19 4t-13 7q6 -4 4 -3q-1 1 -4 3l-3 3l-2 2q-1 -1 -2 -3q-1 -3 -3 -3l-4 4q-3 4 -4 5q-2 2 -4 3q-2 2 -3 4q-6 15 -6 32v32q0 25 -2 50
q-1 25 -1 50q0 43 -2 86l-2 86v0zM70 367q0 -18 -1 -36q0 -19 2 -37q1 -12 0 -24q0 -12 1 -25q1 -14 1 -29q0 -14 1 -29q2 -16 1 -32q0 -16 1 -33q1 -13 1 -29v-30q0 -8 1 -16t7 -13q6 -4 13 -5l14 -2q17 -2 34 0q17 1 34 3q43 4 86 15t75 41l18 16t14 19l2 4q2 2 3 4
q6 13 10 28q5 15 3 29q-1 12 -6 25t-14 22q-8 8 -20 11q-11 3 -22 7q-21 9 -43 14q-23 5 -45 5q-4 -1 -7 -2q-4 -1 -7 -1q-14 -2 -29 -1q14 0 11 0h-11h-13q-6 1 -12 1h-10q-4 -1 -9 0q-6 0 -13 1q-6 1 -11 5q-1 2 -7 7q-5 6 -6 7q1 2 9 3h11q19 -2 39 -3q19 -1 38 -1h8h7
q5 0 15 2q10 3 15 5q4 2 9 2q5 1 9 3q11 4 21 7q11 3 21 7q5 2 9 5t9 5q13 6 27 18q13 12 19 26q2 6 2 12v12q2 13 -1 30t-8 29q-9 20 -27 32q-18 13 -38 21q-11 5 -23 10q-11 4 -24 6q-11 1 -23 3q-11 1 -23 1t-24 -1q-12 -2 -24 -3q-14 -1 -27 -3q-14 -2 -27 -7
q-4 -2 -8 -5t-8 -5q-3 -1 -7 -2q-3 -1 -5 -3q-2 -1 -2 -3q-1 -2 -1 -4q-3 -11 -4 -23q1 11 1 9t-1 -9q-2 -13 -4 -27q-3 -14 -4 -28q-1 -10 -1 -21t-2 -20v0z" />
    <glyph glyph-name="C" unicode="C" horiz-adv-x="484" 
d="M71 317q1 4 1 9t1 9q1 12 6 27q4 15 9 25q5 14 16 32q10 19 20 29q11 12 24 23q-12 -11 -9 -9l9 9q4 4 9 7t10 7q7 7 16 12q9 6 18 10q13 6 26 9q13 4 26 7q20 5 42 6q22 2 43 -2q10 -1 20 -5l20 -8q9 -3 15 -6q5 -3 12 -10q2 -1 5 -4q3 -2 2 -4q0 -2 -2 -2q1 1 1 0h-1
t-2 1l-1 2q-2 1 -5 2t-5 2q-12 5 -23 9q-12 4 -25 7q-22 4 -45 2q-23 -3 -45 -8q-6 -2 -13 -3t-14 -4q-6 -2 -12 -5l-12 -4q-9 -4 -17 -11q-9 -6 -16 -13l-16 -12t-15 -13q-8 -8 -15 -18q-6 -10 -11 -20q-2 -4 -5 -9q-3 -4 -5 -8q-7 -17 -13 -36q-5 -18 -7 -37q-1 -9 0 -20
t3 -20q3 -19 5 -38l6 -38q6 -28 13 -57q-6 27 -5 21q1 -5 5 -21q1 -5 2 -11q1 -5 3 -10q5 -16 11 -31q6 -16 17 -28q10 -10 21 -14q12 -4 24 -9q10 -3 21 -5t21 -3q5 1 3 1q-3 1 3 0l26 -2t26 -3q15 -1 29 -1q13 0 28 4q6 2 13 3l12 2l2 2q2 2 3 2l7 -7q6 -5 7 -7
q0 -3 -5 -5q-5 -1 -7 -2q-10 -2 -21 -4q-10 -2 -21 -5q-12 -2 -26 0l-26 4q-14 1 -28 1q-14 1 -29 2q-13 2 -27 6q-14 5 -27 10q-9 5 -17 12q-8 8 -16 15q-20 21 -30 47q-11 25 -17 53q-6 22 -10 45q-5 22 -8 44q-2 18 -5 36t-3 36v0z" />
    <glyph glyph-name="D" unicode="D" horiz-adv-x="508" 
d="M66 348q1 4 1 8q-1 4 0 8q1 9 1 19q0 9 1 19q2 20 3 41q2 21 1 41v16v17q-1 3 -2 9q-1 5 0 9q2 3 8 -2q5 -5 7 -8q1 -1 1 -5q1 -3 3 -3q5 1 11 6q7 4 13 6q10 2 20 2t21 1q17 2 42 -2q24 -3 41 -10l18 -8q10 -3 18 -10q16 -13 32 -27q-15 13 -12 10t12 -10q7 -6 12 -12
q6 -6 12 -11q16 -12 31 -26q16 -13 29 -28q3 -4 6 -9q3 -4 7 -8q4 -5 9 -12q4 -6 7 -12q13 -28 18 -59q5 -32 2 -62q-4 -36 -21 -68q-16 -32 -41 -58q-18 -18 -44 -34q-26 -15 -50 -25q-21 -10 -43 -21q-21 -11 -45 -16q-10 -1 -20 -3t-20 -3q-7 -1 -14 -1h-15q-5 0 -10 -1
h-9q-5 1 -7 6q-3 4 -6 5q-1 0 -1 -1v1v-1l-2 -6q-1 -4 -3 -6q-2 -1 -7 4l-7 7q0 1 -1 2t-1 3h1l1 1q2 3 3 8q1 4 2 7q3 16 5 32t2 32q-1 33 -6 64q-5 32 -9 65q-3 29 -4 59t-1 60v0zM83 344v-60q1 -30 4 -60q3 -27 7 -54t8 -55q1 -15 1 -31q0 -15 -2 -30q-1 -3 -2 -11
q-2 -7 -2 -9h1q0 1 1 0q2 -1 3 -3q-1 2 -1 1l1 -1q2 -2 3 -4q2 -2 4 -3q5 -2 13 -1q7 1 12 1q24 2 42 6q19 3 41 12q25 9 49 22t48 25q14 8 28 17q15 10 25 23q25 29 38 60q14 30 18 68q1 17 0 32q-2 16 -6 32q-3 19 -10 37q-7 17 -20 33l-6 8q-3 5 -7 9l-22 18
q-10 9 -21 19l-20 18q-9 10 -20 18q-15 11 -32 18q-16 6 -34 10q-13 4 -26 6t-27 0h-17q-9 1 -17 0q-7 -1 -13 -3q-7 -3 -13 -5l-6 -4l-6 -4q-3 0 -5 2q-3 3 -4 5l-1 1q-1 1 -1 0v-4t1 -5v-17v-18q0 -19 -1 -39q-2 -20 -4 -39q-1 -10 0 -21q0 -10 -2 -20v0z" />
    <glyph glyph-name="E" unicode="E" horiz-adv-x="481" 
d="M93 373q0 30 3 60q-2 -28 -2 -22t2 22t3 32q2 15 5 30q4 14 7 27q-3 -12 -3 -10q1 3 3 10q0 2 1 5q1 4 4 4q3 -2 5 -6q3 -5 6 -6t8 -1h8q14 -1 29 0q14 2 29 3q10 1 22 0q11 -1 22 -1h75q-36 0 -28 0h28q16 0 32 -1q-15 1 -12 1t12 -1q3 0 7 -1q3 0 7 -2l2 -2l3 -3l4 -4
q4 -3 4 -5q-1 -2 -6 -1t-7 1q-22 2 -44 1q21 0 17 0h-17q-38 1 -75 1q-38 1 -75 -3q-9 -1 -18 0t-17 2q-2 0 -6 1q-4 0 -5 -2q-3 -4 -4 -10q-1 -7 -2 -11q-4 -19 -5 -38q-2 -18 -3 -37q-2 -19 -3 -38q0 -19 1 -37q1 -14 1 -28q-1 -14 1 -28q3 -32 5 -64q3 -32 3 -65v-22
t-1 -22l-2 -22q-1 -12 1 -23q0 -5 1 -16q2 -10 4 -15q2 -3 8 -3q5 0 8 -1q21 -2 41 -2q-19 1 -15 0h15q39 0 78 3q39 4 79 4h11q6 1 11 1q2 0 6 -1q3 0 4 1q2 1 1 3q0 2 3 4q2 -1 8 -6q5 -6 6 -9q1 -2 -1 -5q-1 -3 -3 -4t-7 -1q-5 1 -8 1q-11 0 -21 -1h-21q-21 0 -43 -1
q-21 -1 -42 -3q-15 -2 -30 -3t-30 1q-14 1 -30 1q-15 0 -27 9q-4 3 -9 8t-7 9q-8 21 -8 47t3 48q1 12 1 29t-2 30q-1 9 0 18v18l-6 48q3 -23 2 -18q0 4 -2 18q-1 9 0 18q0 8 -1 17q-2 17 -2 35v34v0zM119 285q2 3 5 3h7q9 1 19 2q9 1 19 0q7 -1 16 -1t16 1q10 1 19 0h18
q20 3 39 4t39 1q6 0 11 -2t11 -3h5h5q1 1 2 1q2 1 3 1t2 -2l3 -3l4 -4q4 -3 4 -4q0 -5 -6 -5q-6 -1 -9 0l-14 2q-7 2 -14 3q-8 1 -21 0t-21 -2q-28 -3 -56 -3q-29 -1 -57 0q-13 0 -26 -2q12 1 10 1t-10 -1q-2 0 -5 -1q-3 0 -5 1t-7 6q-4 5 -6 7v0z" />
    <glyph glyph-name="F" unicode="F" horiz-adv-x="451" 
d="M92 462q1 9 2 20q0 11 6 18q3 3 7 2h7q6 1 13 2q6 1 13 2q12 2 25 5q12 3 25 5q22 2 44 2h44h12h11q11 1 22 3q11 1 21 1q3 -1 9 -6q6 -6 7 -8q-1 -3 -6 -3h-8q-11 -1 -23 -2t-23 -2h-54q25 0 20 0h-20q-6 0 -13 1q-7 0 -14 -1q-33 -3 -65 -11q31 6 24 5q-6 -1 -24 -5
q-7 -2 -14 -2l-14 -2h-6q-4 0 -6 -2t-3 -6t-1 -6q-4 -40 -3 -81t2 -81v-18q1 -9 1 -18q-1 -2 -1 -6q0 -5 1 -6q3 0 6 3q3 2 5 3q7 3 18 6t19 4q30 3 59 1q30 -1 60 -5q9 0 20 1q10 0 19 -2q3 -1 5 -4l4 -4l2 -2l3 -3q1 -4 -6 -4q-7 1 -10 1q-27 0 -54 3q25 -2 20 -2
q-5 1 -20 2q-5 1 -10 1q-5 -1 -10 0q-19 2 -38 2q-20 -1 -39 -3q-6 -1 -15 -3q-8 -3 -14 -5q-2 -1 -5 -3t-6 -3q-2 0 -5 4l-5 5q0 1 -1 2q-1 2 -2 1v-5v-7q0 -9 1 -17q1 -9 1 -18q0 -17 2 -34q1 -18 3 -35q2 -21 4 -43q1 -21 3 -43q2 -20 2 -41q0 19 0 15v-15v-8q0 -5 -2 -6
l-3 3l-2 2q-6 6 -8 9q-2 4 -1 13q0 20 -2 40q-1 21 -4 41q-3 22 -4 45q-1 22 -3 45l-2 26q0 14 -1 27q-1 4 0 8v9q-2 19 -3 39q0 20 1 39v80q0 -37 0 -30v30v18q1 10 0 17v0z" />
    <glyph glyph-name="G" unicode="G" horiz-adv-x="422" 
d="M31 299q1 22 6 48q6 25 14 46q2 4 3 9q1 4 3 9q6 15 15 30q8 16 20 28q7 9 14 19t17 17q10 6 21 10t21 8t22 9t22 7q38 4 74 -4q-34 5 -27 5q7 -1 27 -5q13 -2 25 -5l24 -6q4 -1 7 -2t7 -1q12 -1 18 -3t15 -11q1 -1 4 -3q2 -2 2 -3q-1 -2 -3 -2q-2 1 -3 1q-11 4 -23 5
q11 -2 9 -1q-2 0 -9 1q-22 3 -44 9q-21 6 -44 9q-26 3 -49 -2q-23 -6 -46 -16q-10 -4 -21 -8q-10 -4 -18 -10q-10 -8 -17 -17q-7 -10 -15 -19q-11 -13 -18 -29q-8 -17 -13 -33q-10 -27 -16 -54q-6 -28 -7 -57q0 -14 3 -27q3 -14 6 -27q1 -8 3 -15q2 -8 4 -15q8 -19 16 -37
q-8 17 -6 14q1 -4 6 -14q4 -9 10 -17q5 -8 9 -17q14 -35 34 -64t55 -45q13 -6 29 -7q15 -1 30 -1q14 -1 32 0q19 0 32 4q32 16 44 43q12 28 15 62l2 24q1 13 -1 25q0 8 -1 16q-1 9 -1 17q-1 8 -3 15t-3 14q0 3 -1 10q-1 8 -3 9q-2 0 -9 -2t-10 -3q-12 -3 -25 -6
q-14 -4 -27 -5q-6 -1 -9 2q-3 2 -7 7q-1 0 -3 2q-1 1 -1 2q1 2 3 3q2 0 4 1q5 1 10 1l10 2q15 4 31 8t32 6q6 1 9 -2q4 -3 8 -7l3 -3q2 -1 2 -2q0 -3 -1 -6t-2 -5q0 -7 1 -15q2 -8 3 -15q4 -24 7 -49t0 -49q-1 -11 -3 -20l-4 -20q-4 -22 -16 -41q-13 -20 -33 -30
q-19 -9 -40 -10q-22 -1 -43 0q-17 0 -33 4q-17 3 -32 11q-14 7 -29 23t-26 29q-15 17 -26 36q-11 20 -20 41q-6 13 -14 25q-7 13 -13 25q-11 27 -18 57q-6 30 -7 59v0z" />
    <glyph glyph-name="H" unicode="H" horiz-adv-x="508" 
d="M69 537q0 1 1 2q1 2 2 2t1 -1v-1q3 -3 7 -6t6 -6v-3q-1 -2 0 -3q0 -9 1 -18q0 -8 1 -17v-19q0 -10 1 -20l4 -48q1 -24 3 -48q1 -11 1 -23q1 -11 1 -22q-1 -4 -1 -10q0 -7 1 -10q2 -2 8 -3q7 -1 10 -1q12 -2 25 -2t25 -1q8 -1 16 -1q7 -1 15 -2h8q5 1 9 0q32 -3 65 -3
q33 1 65 5q17 2 34 2q-16 -1 -13 -1q3 1 13 1q3 -1 8 -1q5 -1 8 1q2 1 2 4t-1 4v17v16q1 35 1 69q1 35 1 69q0 10 -1 20t0 20q0 2 1 7q0 6 2 6q1 -1 3 -2q2 -2 2 -3q2 -2 5 -4t4 -4q1 -3 0 -8v-8v-82q0 38 0 31v-31q0 -22 -1 -44v-44v-12q0 -5 -1 -11v-5v-5q2 -2 7 -1
q5 2 7 2l7 -7q6 -5 6 -6q1 -3 -1 -3q-2 -1 -4 -1q-3 -1 -7 -1h-7h-4h-3q-1 -2 0 -5t1 -5q0 -11 1 -22q-1 11 0 8v-8q1 -6 1 -12v-13q4 -28 7 -57q-3 27 -2 21q0 -5 2 -21q3 -25 5 -50q2 -26 5 -51v-12q1 -7 1 -13v-4t-2 -3q-2 0 -5 3q-3 4 -5 5q-6 7 -6 21q-1 13 -1 23
q-2 35 -6 71q-4 35 -9 71q-1 9 -1 19q-1 9 -1 18v8t-1 8q-2 1 -5 0h-5q-9 0 -17 -1q-9 -1 -17 -2q-19 -2 -40 -3q-22 -2 -41 0q-11 1 -23 2h-24q-23 0 -46 3q-23 2 -47 2q-6 0 -12 2q-6 1 -11 4l-4 2q-2 2 -4 3q-1 0 -1 1h-1q-1 -2 0 -7v-7q0 -9 1 -19v-20v-24
q-1 -12 -1 -24q0 -8 1 -17q0 -8 -1 -16q-2 -32 -2 -63q0 29 0 23v-23q0 -12 1 -23q1 -12 3 -23v-6q-1 -4 -4 -5q-1 1 -2 3q-2 2 -2 3q-2 1 -5 4q-3 2 -4 4q-1 3 -1 9t-1 9q-3 21 -3 43q1 -20 1 -16q-1 4 -1 16t1 25q2 13 2 25v19t1 19q1 8 1 16q-1 9 -1 17v22q1 10 -1 21
q-1 15 0 31t0 32q-1 8 -1 17t-1 18q-2 20 -3 40q0 20 -3 40q-1 15 -1 31t-2 32q-1 9 0 18t-1 17v0z" />
    <glyph glyph-name="I" unicode="I" horiz-adv-x="498" 
d="M75 8q3 3 8 3q5 -1 9 -1h22t22 1q17 2 35 2t35 -2q13 -1 26 -1q13 1 26 0q14 -2 30 -2q15 0 30 1q7 1 15 0q7 0 14 1q13 1 25 1q13 0 25 1q3 0 7 2q3 2 5 1t7 -6l7 -7q0 -4 -7 -5q-7 -2 -11 -2q-5 1 -10 0t-10 -1q-11 -1 -23 -2h-23h-51t-51 2q-6 1 -12 0h-11q-9 1 -21 2
t-21 0l-34 -2h-34q-3 0 -8 -1q-4 0 -7 1q-4 3 -7 7t-7 7v0zM81 555q3 4 9 4q6 -1 10 -1q14 -2 27 -4t27 -3q13 -1 30 -1q18 1 31 3q18 2 35 3q18 0 35 2q6 1 11 1q5 -1 11 0q18 3 36 2q18 0 31 -17v-3t-3 -2q-1 0 -2 2q-2 2 -3 2q-6 2 -12 2q-7 1 -12 0q-16 -2 -31 -3
t-31 -3h-9t-10 -1h-3h-3q-1 -2 -1 -6v-6q1 -10 3 -19t3 -19q1 -14 1 -29l-2 -28q-1 -4 -1 -8v-8q-2 -20 -5 -39q-2 -19 -5 -39q-2 -22 -3 -45t1 -45q1 -8 0 -16v-17q1 -8 1 -16q0 -9 -1 -17q0 -15 1 -31l2 -30q2 -20 5 -40q4 -21 9 -40q1 -5 1 -9t-3 -7q0 -1 -2 -3
q-1 -1 -3 -1l-6 6l-7 7q0 1 2 3l2 2q1 3 0 7q0 3 -1 6q-1 9 -3 17q-3 9 -5 18q-3 24 -5 48q2 -22 2 -18q-1 4 -2 18l-2 18q0 10 -1 19q-1 12 0 23q1 12 0 24q-1 7 -1 14q1 8 0 15q-3 38 1 79q4 42 8 80q3 23 5 46q2 24 0 47q-2 14 -4 27q2 -12 1 -10q0 2 -1 10v4q0 3 -1 5
q-2 2 -5 1q-4 0 -6 -1q-7 0 -15 -1h-14h-16q-8 -1 -16 0q-10 1 -21 3q-10 2 -20 3q-6 1 -16 1q-9 -1 -14 1q-3 2 -7 6q-3 5 -6 7h-1z" />
    <glyph glyph-name="J" unicode="J" horiz-adv-x="444" 
d="M72 26q3 12 7 23q-3 -11 -3 -9q1 2 3 9q1 1 2 3q0 2 3 1q2 -1 3 -3l3 -3q1 -2 4 -4t3 -3q-1 -5 -5 -13t-3 -13q2 -2 11 -4t12 -2q20 -5 39 -9q20 -4 39 -7q19 -1 36 8q17 8 30 20q7 7 14 13t14 13q12 13 22 29q9 17 16 33q10 25 17 56q6 30 9 57v8t1 8q1 11 2 21l2 22v12
q-1 5 0 11q1 15 0 29q0 -14 0 -11v11q-1 6 -1 13q1 7 0 13q-2 21 -5 42q2 -20 2 -16q-1 4 -2 16q-4 28 -9 57q-6 29 -7 57v14v14v5t2 3q1 0 3 -3q3 -2 4 -4q7 -7 8 -12v-16q1 -12 1 -24q0 -11 2 -23q2 -18 5 -35q4 -17 6 -34q4 -31 7 -62q3 -32 0 -63q-1 -3 0 -7v-7
q-2 -16 -3 -33q-2 -17 -3 -34l-4 -18l-4 -18q-2 -19 -8 -37t-13 -35q-2 -5 -6 -10q-3 -4 -5 -9q-4 -7 -9 -15q-5 -7 -10 -13l-12 -12q-6 -5 -12 -11q-16 -16 -35 -27q-19 -12 -43 -12q-15 0 -30 5q-15 4 -31 7q-13 1 -26 4t-25 8q-2 1 -3 3l-4 4l-8 8t-3 11v0z" />
    <glyph glyph-name="K" unicode="K" horiz-adv-x="513" 
d="M90 93q2 8 2 18l2 18q1 17 2 33t2 33q1 5 0 10v10q1 12 1 24q-1 13 1 25q1 16 1 34q0 17 -2 34q-1 13 -1 27t-1 28q-3 27 -4 54t-1 54v26q0 -12 0 -10v10q0 1 1 4q0 3 3 3l2 -2t2 -3q2 -2 5 -4t4 -4v-5v-5v-14q-1 -7 -1 -14q1 -42 4 -83q4 -42 4 -83q0 -11 1 -21v-22v-13
q0 6 0 5v-5v-7v3v-3v-1v-1q0 1 1 2q1 2 2 2q4 6 9 11q-4 -5 -3 -4q0 1 3 4q12 12 22 25q11 13 22 25q15 17 29 35q15 19 30 36q6 7 11 15t11 16q5 5 9 12q3 6 8 12q11 13 22 29q10 15 22 30q13 14 25 28l26 28l9 9q6 6 9 7q2 -1 7 -8q6 -6 6 -8q-2 -1 -3 -2q-2 -1 -3 -2
l-20 -20q9 9 7 7l-7 -7q-12 -12 -23 -24q-11 -13 -21 -26q-18 -21 -33 -45q-16 -24 -33 -46q-8 -9 -15 -19q-7 -9 -14 -19l-6 -6t-4 -7q1 -2 3 -4q3 -3 4 -5q2 -4 4 -9q1 -4 2 -9l6 -28q3 -15 7 -28q12 -34 23 -68q-10 32 -8 25q2 -6 8 -25q4 -13 9 -26q4 -13 11 -25l16 -30
q9 -15 17 -30q11 -21 28 -37q16 -16 34 -31q15 -12 28 -25q-13 12 -10 9q3 -2 10 -9l5 -5q4 -3 1 -5q-1 -1 -3 0q-1 2 -2 3q-3 3 -6 5l-6 6q-5 4 -9 7l-10 8q-17 15 -34 32q16 -15 13 -12q-4 3 -13 12q-18 18 -32 38q-15 19 -25 42q-6 11 -12 21q-7 11 -12 22q-8 20 -14 40
t-14 39q-6 15 -11 34q-4 18 -8 34q-2 10 -4 19q2 -9 2 -7q-1 2 -2 7q-1 1 -1 4t-1 4q-1 0 -3 -2l-2 -2q-3 -4 -7 -8q-3 -5 -6 -9q-11 -12 -22 -25q-10 -13 -22 -25q-9 -9 -18 -19q-8 -10 -14 -22q0 -1 -2 -3q-1 -2 -2 -3t-2 0v-1q-2 -10 -1 -20q0 -10 -1 -19q-1 -10 -1 -19
q0 -10 -1 -19l-4 -36q2 17 2 13q-1 -3 -2 -13q-1 -15 -1 -29q1 -15 5 -29q1 -3 3 -10q2 -6 -2 -8q-2 0 -8 6t-7 8q-5 21 -7 43q3 -20 2 -16t-2 16v7q0 4 -1 8v0z" />
    <glyph glyph-name="L" unicode="L" horiz-adv-x="560" 
d="M104 540q3 4 6 1l6 -6q5 -6 8 -11q2 -6 4 -14q2 -10 3 -21q0 -11 1 -21q2 -19 3 -38q1 -18 3 -37q1 -23 1 -48q0 -24 -2 -47q-2 -18 -2 -37q0 -18 -1 -37q-1 -6 -1 -13q1 -6 0 -13q-3 -25 -3 -50q-1 -25 -4 -50q-2 -17 -2 -37q0 -21 4 -37l4 -16q-2 7 -1 6q0 -2 1 -6
q0 -1 1 -3q0 -2 1 -3l1 1l1 1l12 4q-6 -2 -5 -1q1 0 5 1q10 4 22 5q11 1 22 1q9 1 18 1q9 -1 18 0q33 3 66 3t65 3q6 1 12 0q5 0 11 1q10 1 21 0t21 -2q3 1 10 1q7 1 9 1q2 -1 6 -6q3 -4 5 -6l1 -1q1 0 1 -1l-1 -2q-1 -1 -1 -2q-8 -2 -20 -1q-13 2 -21 2h-29q-14 0 -28 -2
q-9 -1 -18 0q-9 0 -18 -1h-16t-16 -1q-24 -2 -48 -2q-24 -1 -47 -2q-10 0 -20 -2q-11 -2 -20 -5q-3 -2 -7 -4t-7 -2q-2 0 -4 3q-1 2 -3 3l-8 10q-3 4 -5 10q-7 18 -10 37q-2 20 0 39q1 8 0 16q0 9 1 17q3 29 4 58l4 58v23q0 11 1 23q1 15 1 31q-1 16 1 32q2 22 1 45
q-1 24 -3 45q-2 19 -3 38q-1 18 -3 37q-1 8 -3 16q-1 8 -6 15v0z" />
    <glyph glyph-name="M" unicode="M" horiz-adv-x="628" 
d="M36 268q1 3 1 6q-1 3 0 6l2 28q-1 -13 -1 -11q1 3 1 11q3 18 5 37q3 18 5 37q1 10 4 19l4 20q1 14 2 29q2 14 3 29q1 8 2 19q2 11 10 15q6 2 12 -3q5 -4 8 -9q5 -4 9 -8q-4 4 -3 3q1 0 3 -3q1 -1 2 -3t1 -3l6 -10t5 -10q2 -6 5 -12l4 -12q8 -19 13 -39t13 -39l2 -8
q0 -4 2 -8q3 -9 6 -19q2 -10 6 -19l2 -8q0 -4 2 -8q2 -6 4 -13l4 -12v-5t1 -4q3 -8 5 -17t4 -17q9 -30 16 -61q-7 29 -5 23q1 -6 5 -23q5 -20 10 -41q4 -20 9 -41q2 -9 4 -19q-2 9 -1 7q0 -1 1 -7q0 -1 1 -4q0 -3 1 -4q1 0 2 2q1 3 2 4l4 10q3 5 5 10q6 16 11 33q5 16 11 32
q2 6 3 12t3 12q4 10 6 21q3 11 5 21l6 22t4 22q2 10 5 20t5 21q4 27 10 54q6 28 10 55l4 26q1 13 4 26q2 9 3 18q-1 -9 -1 -7t1 7q1 11 5 25q4 13 9 24q1 4 5 12q3 8 8 8q2 0 3 -2q2 -3 4 -4q4 -4 7 -8t5 -10q7 -21 10 -42q4 -22 4 -44q0 -9 1 -19l2 -18q1 -10 1 -20v-19
v-17q-1 -8 0 -17q2 -18 1 -36q0 -19 -1 -37v-25t1 -24q1 -9 1 -19q-1 -9 0 -18q2 -20 3 -40q-1 19 0 15v-15q2 -22 3 -43q2 -22 2 -44v-12q-1 -6 0 -12q1 -1 2 -3q1 -1 0 -3q-2 -2 -4 0t-3 4q-4 3 -7 7q-4 3 -5 8v15v15v29q-1 15 -2 29q-6 50 -6 101q-1 51 -1 102
q0 17 -1 33v33q0 23 -2 45l-4 46l-2 18t-3 17q0 1 -1 5t-2 4t-2 -3t-1 -4q-4 -10 -7 -20q3 10 2 8q0 -2 -2 -8q-10 -42 -15 -85q6 40 4 32l-4 -32q-3 -27 -9 -53q-6 -27 -11 -54q-9 -45 -20 -90t-24 -89q-10 -34 -24 -67q12 31 10 25t-10 -25l-7 -14t-11 -11q-1 -1 -3 -1
q2 0 1 0h-1q-2 1 -8 8t-7 10l-8 42q-4 20 -9 41q-18 70 -35 139q16 -65 13 -52q-4 13 -13 52q-9 35 -20 69l-22 70q-10 35 -24 69q12 -32 10 -26q-2 7 -10 26q-2 3 -5 10t-7 8q-5 -1 -7 -10t-2 -14q-2 -22 -4 -43q-1 -22 -6 -43q-3 -13 -5 -25q-1 -12 -3 -25l-8 -78
q4 37 3 29q-1 -7 -3 -29q-1 -12 -1 -24q1 -12 3 -24l4 -42q2 -22 4 -43q2 -19 5 -38q2 -19 7 -37q1 -6 4 -16t1 -14q-2 -3 -3 0q-2 2 -4 3l-4 4q-3 2 -4 4q-1 3 -2 8q-1 6 -2 9q-6 27 -10 55q-3 28 -6 55l-6 54t-3 55v0zM576 -201q3 3 6 0l6 -6q0 -1 2 -2l2 -2q-1 -1 -3 -1
q-1 0 -3 1q-3 1 -6 4t-4 6v0z" />
    <glyph glyph-name="N" unicode="N" horiz-adv-x="461" 
d="M63 361q1 5 0 10v10q1 9 1 19q1 9 1 19q3 21 8 40q4 20 13 39l7 14q4 7 9 14q1 2 3 5q3 3 5 3q3 -1 8 -6q6 -6 8 -9q4 -4 7 -10q2 -5 5 -10l14 -22t13 -22q1 -4 4 -7q3 -4 5 -8q6 -12 13 -23q6 -12 13 -24q16 -33 33 -65q16 -33 34 -65q8 -16 16 -31l16 -30q3 -6 6 -11
q4 -5 6 -11q8 -17 18 -34l18 -34q2 -5 6 -10q3 -5 6 -11q6 -11 12 -21q-6 10 -4 8l4 -8q2 -2 3 -4q-1 2 -1 1l1 -1v-2t1 -1v5v4v24q0 -11 0 -9v9q1 16 1 32q1 16 1 33q0 11 2 22q-1 -11 -1 -9q0 3 1 9q1 11 0 22q0 12 1 23q1 8 0 17q0 8 1 16q1 12 0 25v25q0 27 -1 55v55
q0 15 -1 30q-1 16 0 31q1 4 1 11t2 10q2 0 5 -2q3 -3 4 -5q1 -1 4 -3q2 -2 2 -4q1 -4 0 -12q-1 -7 -2 -13q1 -34 1 -69q1 -35 1 -70q0 -112 -5 -225q4 106 3 85q0 -22 -3 -85v-26v-26v-9q1 -7 -2 -8q-1 0 -3 2l-3 3q-3 3 -6 7q-3 3 -6 8q-10 16 -20 33t-19 34q-4 9 -9 18
q-6 8 -10 17q-10 20 -21 40q-12 20 -21 41q-4 9 -10 18q-5 8 -9 17q-2 4 -4 7q-3 4 -5 8q-4 9 -9 19q-5 9 -9 19q-4 9 -9 17q-5 9 -9 18q-6 13 -14 26t-14 26q-4 8 -9 15q-4 8 -8 15q-6 13 -14 26q-7 13 -15 25l-6 10q-3 4 -6 9q0 1 -2 3q-1 2 -2 3q0 -1 -2 -3q-1 -2 -2 -3
q-5 -9 -9 -18q4 9 3 7t-3 -7q-8 -18 -14 -36q-6 -19 -8 -39q-1 -12 -2 -25q0 -13 -1 -26v-10q1 -5 0 -10q-1 -10 -1 -21q0 -10 1 -21q1 -8 1 -17v-18q1 -7 1 -15v-15q2 -21 3 -43q0 -21 1 -43l2 -32t5 -31q3 -14 5 -28q-2 13 -1 10q0 -2 1 -10q1 -2 1 -5q1 -3 0 -5
q-2 -2 -9 4t-8 9t0 6q0 3 -1 6q0 5 -1 9l-2 8q0 4 -1 7q-2 3 -2 7q-2 12 -3 24q-2 12 -2 24q0 16 -2 32q2 -15 1 -12q0 3 -1 12q-1 12 -1 24q1 12 0 25q-3 31 -4 62v63v0z" />
    <glyph glyph-name="O" unicode="O" horiz-adv-x="465" 
d="M43 298q2 6 2 13v12q2 12 3 26q2 13 7 25q8 19 16 35t19 33q4 5 7 10t7 9q5 5 8 11l8 10q12 11 24 21q13 10 26 19q26 17 51 15q24 -2 51 -14l14 -6q6 -3 12 -8q2 -2 5 -4q3 -3 3 -5q-1 -3 -4 -1q-3 1 -5 2q-12 4 -23 10q11 -5 8 -4l-8 4q-16 6 -34 9q-18 2 -35 -3
q-9 -3 -17 -8q-9 -5 -17 -11q-33 -23 -57 -57q-24 -33 -39 -70q-7 -17 -10 -36l-4 -36q-1 -17 0 -33t3 -32q2 -18 8 -35q5 -17 11 -33q6 -23 17 -51t27 -46q12 -11 25 -19q14 -8 29 -14q10 -4 22 -6q12 -3 23 -2q41 4 73 30q32 25 54 59q13 20 23 40t19 42q6 14 6 32
q1 18 2 33q3 26 -1 51q-3 25 -7 50q-2 19 -8 44q-6 24 -13 42t-17 35q-9 17 -24 31q-8 7 -17 13q-9 5 -17 13q-1 1 -5 4q-3 2 -3 4q0 3 2 2t3 -2l16 -10q-7 5 -6 4q2 -1 6 -4q14 -9 27 -22q12 -12 23 -26q17 -23 28 -52q11 -28 16 -57l8 -40q3 -20 5 -40q3 -25 2 -51
q-2 -25 -5 -50q-2 -16 -9 -31q-8 -15 -14 -29q-2 -4 -5 -9q-3 -4 -5 -8q-15 -28 -37 -52q-23 -25 -49 -42q-14 -9 -32 -16q-18 -6 -34 -5q-15 2 -28 6q-14 4 -27 9q-5 2 -10 5q-6 3 -10 6q-4 4 -8 7t-8 7q-14 13 -27 26q12 -12 10 -10l-10 10q-14 15 -22 33t-15 37
q-3 7 -5 14l-4 14q-12 29 -18 60t-6 63v0z" />
    <glyph glyph-name="P" unicode="P" horiz-adv-x="492" 
d="M64 511q4 5 11 9t13 7q5 2 10 5t10 5q21 5 47 7q27 2 48 0h12q5 0 11 -1q53 -4 103 -24t78 -68q9 -15 15 -29q6 -13 5 -32q-2 -12 -7 -24q-5 -11 -10 -23q-5 -13 -14 -29q-8 -15 -17 -26q-9 -10 -18 -21t-22 -17q-9 -4 -20 -6q-10 -2 -20 -3q-6 -1 -12 0h-12q-7 -1 -14 0
q-8 0 -15 -1q-12 -1 -23 -2q-12 -1 -23 -2q-8 -1 -19 -1q-12 0 -19 3q-4 2 -7 5l-7 7q-2 2 -7 6q-4 4 -3 8l1 1q0 1 1 1t3 -3l3 -3q3 -3 6 -5t8 -2q11 -1 22 0q12 1 22 2q8 1 16 1q9 -1 17 0q21 2 43 1q22 0 42 7q26 13 45 42q18 28 29 55q4 8 8 17q5 9 6 19q1 5 0 11
q-1 5 -1 11q-2 13 -6 21q-5 8 -11 19q-10 19 -22 27q-12 9 -31 17q-33 13 -68 19t-70 6q-18 0 -35 -2q-18 -2 -35 -4q-5 0 -13 -3q-9 -2 -12 -5q-1 -3 -1 -7q-1 -4 -1 -7q-1 -6 -1 -12q-1 -6 -1 -13q0 -23 1 -46q1 -24 3 -47q1 -8 1 -16t1 -16l2 -30v-30q0 -9 1 -18
q0 -10 -1 -19v-13v-14v-32q0 -17 -2 -33q-2 -17 -3 -35t-1 -36q-1 -16 -1 -32q0 -17 1 -33q-1 -4 -1 -8t1 -7q0 -8 1 -16t1 -16v-7q1 -5 -2 -4q-1 0 -3 2t-2 3q-2 2 -5 4l-4 4q-1 4 -2 9v9q-1 16 -1 32v32q0 11 -1 21q0 11 1 21q2 18 2 35q1 17 2 35q4 57 3 114q0 57 -6 114
q-2 18 -2 37q-1 18 0 37q-1 10 0 19q0 -9 0 -7v7q0 2 1 4q0 2 -1 3l-3 -2q-4 -3 -5 -3q-3 2 -7 7l-7 7v0z" />
    <glyph glyph-name="Q" unicode="Q" horiz-adv-x="488" 
d="M65 326q2 5 1 11v11q2 14 4 27q-2 -12 -2 -10q1 3 2 10q1 11 5 22t8 21l4 10t4 9q8 16 21 32q14 15 30 25q11 6 23 11t25 7q22 3 44 4q23 2 45 -1q15 -1 29 -2t28 -7q10 -4 18 -10q9 -6 16 -13q8 -7 16 -15q7 -8 11 -18q1 -2 1 -4q1 -2 1 -4q2 -4 3 -7q2 -4 2 -8
q4 -40 4 -81q0 -42 -4 -81l-2 -28q0 -15 -1 -29q-4 -40 -16 -78q9 36 8 29t-8 -29q-7 -24 -19 -39t-32 -30q-5 -5 -10 -8q-6 -4 -11 -8q-1 -1 -4 -3t-3 -3l2 -2q1 -1 2 -1q1 -4 0 -8v-9q0 -5 1 -11t3 -11q4 -11 9 -20q4 -9 9 -19l6 -10q3 -6 8 -10q10 -7 25 -17t26 -15
q3 -2 6 -2l6 -2q3 -2 8 -8q6 -6 6 -8q-2 -2 -6 -1l-6 3q-9 4 -16 9l-16 10q-6 4 -14 9q-8 4 -14 10l-18 18q8 -9 7 -7q-2 1 -7 7q-8 8 -16 21q-7 13 -12 24q-7 15 -10 30q3 -14 3 -11q-1 3 -3 11q-1 3 -1 7q0 3 -1 5q-1 1 -3 -2l-3 -3q-3 -1 -6 -1q-2 0 -5 -1q-6 -2 -12 -5
t-12 -4q-5 0 -7 3t-5 5q-4 1 -9 2h-9q-12 2 -25 8t-21 13q-24 20 -43 43q-18 22 -32 50q-4 9 -8 19q-3 10 -7 19q-1 3 -2 7q0 3 -1 7q-5 13 -8 28t-5 29l-2 28t-3 28q0 5 1 11q0 6 -1 11v0zM83 333q0 -16 -1 -33q0 -17 1 -33q4 -34 11 -66q7 -33 20 -64q8 -17 17 -34
q9 -16 22 -30q21 -22 53 -30q33 -8 61 -1q13 4 29 15t26 20q10 8 19 16q10 9 16 19q11 21 17 47q6 25 9 48q5 44 6 88q2 44 2 89q0 16 -1 33q-1 16 -6 32q-1 6 -3 11q-2 6 -5 11q-3 4 -11 9q-9 4 -13 7q-19 8 -38 10q-20 3 -40 2q-35 1 -70 -3q33 2 26 2t-26 -2
q-27 -3 -54 -22q-27 -18 -39 -42q-2 -5 -4 -9q-3 -5 -5 -9q-3 -7 -5 -15q-2 -7 -5 -15q-3 -7 -5 -16q-2 -8 -3 -16v-10q0 -4 -1 -9v0z" />
    <glyph glyph-name="R" unicode="R" horiz-adv-x="501" 
d="M63 510q4 5 10 9t11 7q18 12 38 18q19 5 40 8q18 1 35 2q18 0 35 -2q14 -2 26 -8t25 -12q28 -13 51 -37q24 -24 36 -52q4 -10 8 -19t4 -20q0 -15 -1 -31q-2 -16 -6 -31q-1 -6 -4 -12q-3 -5 -6 -11q-4 -10 -9 -20t-13 -17q-11 -9 -23 -15q-13 -6 -26 -11q-12 -4 -29 -8
t-30 -6q-8 0 -15 -1q7 0 5 0h-5h-4q-1 0 -2 -1q-1 0 0 -1h2q3 -2 2 -1q-1 0 2 -2q8 -5 17 -9q-8 4 -6 3q1 -1 6 -3q11 -6 21 -13t19 -14q34 -25 65 -53q-30 26 -24 21t24 -21q11 -10 23 -19l24 -20l20 -16q11 -9 19 -19q2 -2 6 -8t0 -8q-2 0 -4 3q-3 3 -4 5q-4 3 -6 7
q-2 5 -5 8q-3 2 -6 5l-6 4q-17 13 -33 28l-34 28q-12 11 -26 21q-13 10 -26 21q-7 6 -16 11q-8 5 -16 9q-11 6 -22 13q-10 6 -21 12q-3 2 -7 5q-4 2 -8 3q-2 1 -5 1h-4q-4 0 -8 2q-4 1 -8 3q-8 2 -16 6q-7 5 -13 11q-1 1 -4 3q-2 2 -2 4q0 4 7 3q7 -2 10 -3q9 -2 16 -5
q7 -4 15 -7q5 -2 12 -2t13 1q30 3 63 12t58 27q6 5 11 13t8 15q6 15 10 28q4 14 6 30l2 18q1 10 0 19t-4 18q-4 9 -7 17q-4 9 -9 18q-5 8 -11 16q-7 8 -16 14q-10 6 -19 11l-20 10q-10 6 -21 9q-14 4 -28 4q-14 1 -29 0h-9q-5 1 -9 0q-15 -1 -29 -3q-14 -3 -27 -8l-9 -3
t-8 -4q0 -1 1 -1v-2q-1 -2 -3 -4q-2 -1 -3 -3q-2 -5 -3 -9q-2 -5 -2 -9q-3 -22 -2 -44q1 -21 2 -43q1 -52 0 -104v-103q-1 -52 0 -104q0 48 0 39v-39q0 -10 1 -20q0 -10 1 -21v-7q-1 -6 -4 -4q-2 1 -7 6q-5 6 -6 8q-1 5 -1 11q1 7 1 12q-2 17 -2 34v34v76v75q0 30 1 60
q1 29 -2 59q-1 14 -1 31v31q1 4 1 12q1 9 1 10q-1 1 -3 0q-2 -2 -3 -2q-2 1 -6 6q-5 5 -8 7v0z" />
    <glyph glyph-name="S" unicode="S" horiz-adv-x="476" 
d="M79 57q3 3 6 0q2 -3 5 -5q5 -6 9 -13q3 -6 8 -13q9 -13 23 -17q14 -3 29 -5q15 -1 29 1q15 3 29 5q15 1 29 3q14 3 28 7q33 9 63 31q30 21 42 55q1 6 1 12t-1 12q-2 15 -7 29t-10 27q-8 19 -22 43q-13 25 -31 35q-9 4 -19 8q-10 5 -20 6q-20 3 -39 5q18 -2 15 -2
q-4 1 -15 2q-3 0 -5 1l-6 2q-7 0 -15 2t-15 4q-19 9 -35 22q-17 14 -32 28q-6 7 -12 13q-7 6 -11 14q-5 9 -10 17q-6 9 -8 19t0 20q1 9 3 19q1 13 6 29q4 16 12 26q20 23 53 36t62 14q22 0 43 -4l44 -6q9 -1 19 -3q10 -1 20 -1h9q5 1 9 -1q3 -1 9 -8q6 -6 2 -8q-8 -1 -16 0
l-16 2q-32 4 -65 8q30 -4 24 -3t-24 3l-30 4q14 -2 11 -1q-2 0 -11 1q-23 2 -50 -5q-27 -6 -47 -18q-7 -4 -15 -8q-7 -5 -12 -11q-8 -10 -13 -23q-4 -13 -6 -25q-2 -11 -4 -21q-2 -11 -1 -22q2 -12 9 -27q8 -15 17 -24q6 -6 13 -11q8 -5 14 -11q7 -6 14 -11q8 -4 16 -7
q14 -4 29 -7l30 -4q10 -1 21 -3q10 -2 20 -6q13 -5 23 -13q11 -8 20 -17q10 -10 20 -21q-9 10 -7 8q1 -2 7 -8q11 -11 19 -29q9 -18 15 -33q7 -16 13 -34q5 -17 6 -35q-1 -16 -10 -30q-9 -15 -21 -26q-33 -32 -74 -44t-86 -16q-16 -2 -33 -3q-18 0 -33 6q-16 7 -32 22
t-23 30q-1 3 -3 6q-1 3 -3 6v0z" />
    <glyph glyph-name="T" unicode="T" horiz-adv-x="465" 
d="M48 544q1 1 1 2q1 1 2 1h1l1 -1q4 -1 8 -3q3 -1 7 -2q15 -4 30 -5t30 -1h30q16 0 31 2q10 1 19 1q10 0 19 1q4 1 3 4q-1 4 2 4q1 0 3 -1q1 -2 2 -3q3 -2 5 -3h6q26 3 51 5l52 6q9 1 22 0q13 0 21 -4q4 -1 7 -5q3 -3 5 -6q3 -2 7 -6q4 -3 4 -7q-2 -2 -7 3q-5 4 -8 6
q-7 2 -14 2h-16q-12 1 -24 -1l-24 -4q-12 -1 -23 -2q-12 0 -24 -2q-10 -1 -21 -2q10 1 8 1t-8 -1h-5h-4q-1 -1 -1 -4v-3v-16q0 7 0 6v-6q1 -17 2 -35t-1 -35q-1 -14 -1 -28q1 -14 0 -27q-2 -16 -2 -35q-1 -18 1 -34q1 -4 0 -9v-9v-25q0 -12 1 -24q1 -5 0 -10v-10
q2 -19 2 -37q-1 -19 1 -37q1 -7 0 -14v-13q1 -12 1 -24l2 -24q2 -22 5 -44q-2 21 -2 16q1 -4 2 -16l2 -22q-1 10 -1 8q1 -2 1 -8q0 -1 1 -4q0 -2 -2 -3q-2 0 -3 2l-3 3q-5 5 -7 8q-3 4 -3 12q0 10 -2 19q-2 10 -3 19q-1 14 -3 28q-1 14 -1 28v22t-1 22q-1 5 0 10v10
q-1 7 -1 15q-1 7 -1 14q1 12 1 24l-2 24v14q1 7 0 14q-1 12 -1 25v25v23q-1 12 0 24q2 12 1 24q0 12 1 24q1 14 1 28t-1 28q-1 7 0 18q1 10 0 16q-2 2 -7 2q-5 -1 -8 -1q-23 -3 -47 -3q22 1 18 0h-18h-38q-20 1 -38 3q-4 0 -7 2l-6 2q-4 1 -9 2t-9 4l-6 6q-3 4 -7 7v0z" />
    <glyph glyph-name="U" unicode="U" horiz-adv-x="495" 
d="M71 565l1 2q1 1 2 1t1 -1v-1q3 -2 7 -5t6 -6q1 -4 1 -9v-10q1 -15 0 -30q-1 -16 1 -31q4 -40 9 -81q-5 38 -4 31q1 -8 4 -31q3 -27 5 -54q-2 25 -2 20q1 -5 2 -20q1 -9 1 -18t1 -18q1 -20 0 -41q-2 -21 0 -41l6 -54q-3 25 -3 20q1 -5 3 -20q0 -4 1 -8q2 -4 3 -8
q2 -14 6 -28t10 -27q2 -5 5 -10q4 -6 6 -11q7 -13 15 -25q8 -13 18 -23q3 -4 8 -7q4 -3 8 -7q10 -9 23 -16t26 -8q19 -2 37 2t35 12q7 3 15 8q7 4 13 10q2 1 4 3q3 1 4 2q9 8 17 17q9 9 14 19q7 13 13 27t9 28q7 45 3 91t-10 90q-1 17 -1 34q-1 18 -1 35q0 26 1 52v51
q0 5 -1 9q0 5 -1 9q0 3 -1 6q-2 3 0 5q0 1 3 2q2 2 3 2h2h-1h1q3 -2 6 -6q3 -3 5 -6q1 0 1 -1h1q0 -2 -2 -3t-3 -2q-1 -2 1 -5q1 -4 1 -6q1 -7 1 -14q1 -7 1 -14q1 -7 1 -14q-1 -7 -1 -14q0 -18 -1 -36v-37q0 -34 3 -67q3 -34 6 -67q5 -38 3 -76t-19 -73q-16 -31 -45 -55
q-29 -23 -62 -32q-12 -3 -24 -3q-12 -1 -23 1q-10 1 -17 6q-7 4 -16 8q-8 4 -16 12q-8 7 -15 14q-14 14 -29 28q-14 15 -23 33q-4 8 -9 15q-4 8 -8 15q-10 24 -16 50t-9 52q-3 32 -2 65t-1 66q-1 6 -1 13v13q-7 56 -13 113q6 -53 5 -42q-2 10 -5 42q-2 16 -1 32t0 31
q-1 6 -1 12q-1 7 -1 13v0z" />
    <glyph glyph-name="V" unicode="V" horiz-adv-x="476" 
d="M54 519q1 3 1 6t2 4q1 1 2 0q-1 1 0 1v-1q2 -1 7 -6q5 -6 6 -8v-4q-1 -2 -1 -4v-13l2 -12q3 -16 13 -35q10 -18 18 -34q5 -8 9 -16q5 -8 9 -17q12 -28 22 -57q-10 27 -8 22q3 -6 8 -22q17 -50 31 -101q14 -50 34 -99q6 -14 11 -28q6 -15 12 -29q2 -6 3 -12t3 -11l2 -4
t1 -3q2 1 3 4q1 4 2 5q4 11 9 22q-4 -11 -4 -8l4 8q3 8 5 16t5 16q5 12 9 25t7 26q4 17 9 34t11 34q3 9 5 18t5 19q5 16 9 34q3 17 9 34q7 24 15 47q7 23 15 46q9 22 18 43l18 42q5 11 8 22q-3 -10 -3 -8q1 2 3 8q0 3 1 6q0 3 1 5q4 3 10 -4q6 -6 7 -9q0 -1 -1 -3l-2 -4
q-1 -10 -5 -20t-9 -19q-9 -21 -18 -43q-9 -21 -17 -42q-8 -22 -15 -44q-7 -23 -13 -45q-3 -12 -5 -23q-3 -12 -6 -23q-5 -15 -9 -30q-3 -15 -8 -30l-6 -18q-2 -10 -4 -19l-4 -14q-3 -7 -5 -14q-5 -23 -13 -46t-17 -44q-3 -8 -7 -16t-13 -11q-3 0 -9 6q-7 6 -8 9q-2 9 -4 19
t-5 19q-6 15 -12 31l-12 32l-10 22q-4 11 -9 23q-10 29 -18 58q-9 30 -18 59q-6 22 -13 43q-7 22 -15 42q-7 15 -15 30l-14 28q-4 8 -9 16q-4 7 -8 15q-6 13 -9 26q-3 14 -3 28v0z" />
    <glyph glyph-name="W" unicode="W" horiz-adv-x="490" 
d="M13 530l2 2t2 1v0q1 -1 1 -2q3 -2 7 -5t5 -6q1 -2 1 -9q1 -8 2 -12q3 -12 6 -25q2 -13 7 -25q3 -7 4 -14q2 -8 4 -15q3 -6 4 -13q2 -7 2 -14q1 -9 4 -18q2 -9 3 -19q1 -7 1 -15q1 -8 1 -15q3 -29 5 -57q3 -29 5 -57q3 -22 4 -42q2 -20 7 -41q8 -35 22 -68q-12 31 -10 25
q2 -7 10 -25q1 -3 4 -10q3 -8 4 -9q2 0 6 6q5 6 7 8q7 12 12 26q4 14 7 28q13 49 25 99t24 99q3 13 6 25q3 13 8 25q1 3 3 7q1 5 5 5q3 -1 7 -5q3 -4 5 -7q10 -9 16 -22q6 -12 11 -24t9 -24l10 -24l2 -8q0 -5 2 -8q4 -11 6 -22q3 -11 7 -22q2 -6 3 -12t3 -12l14 -40t19 -38
l6 -10q3 -6 5 -11q5 -10 10 -19q6 -9 11 -17q3 -6 6 -11q-3 5 -2 4q0 -1 2 -4l2 -4q-1 2 0 1v-1q1 -1 1 -2v-1q2 1 1 3v3q1 4 2 9q0 4 1 9q2 19 5 38q2 19 4 39q10 79 26 157q16 79 27 158q3 22 5 45t5 45q0 5 1 10q0 6 3 9q1 1 2 3q2 1 4 0q3 -2 6 -5q2 -4 5 -7h1t1 -1
t-2 -3q-2 -1 -3 -2q-1 -4 -2 -9v-9q-2 -16 -4 -33q-1 -17 -3 -33q-1 -8 -1 -16q-1 -8 -2 -15q-2 -20 -6 -40q-5 -20 -7 -40q-1 -4 -2 -7t-1 -7q-2 -14 -6 -28q-3 -14 -5 -28q-6 -39 -13 -78t-12 -78q-3 -23 -6 -47l-6 -48q-1 -11 -3 -22q2 10 1 8q0 -2 -1 -8q0 -2 -1 -4
t-3 -2q-1 0 -5 5q-5 4 -6 6q-4 3 -5 9q-2 5 -4 9q-7 16 -15 31q8 -14 6 -11t-6 11q-13 21 -25 42l-22 42q-6 15 -11 30q-4 15 -10 29q-2 6 -3 12t-3 12t-4 13q-1 7 -3 13q-3 6 -5 11q-1 6 -3 12q-4 16 -11 32q-6 15 -13 31l-6 14q3 -7 2 -5q0 1 -2 5q0 1 -1 2q0 2 -2 2
q-1 -1 -1 -2q0 -2 -1 -3l-2 -8l-2 -8q-7 -30 -16 -61q8 29 6 23q-1 -6 -6 -23q-11 -41 -20 -83q-10 -42 -20 -83q-5 -20 -13 -42q-7 -22 -25 -34q-1 -1 -3 -2q-3 -1 -4 -1q-5 2 -11 10q-6 7 -8 12q-9 22 -18 45q-8 23 -14 46q-6 24 -8 48q-2 23 -4 47q-3 30 -5 59t-5 58
l-4 28l-4 28q-3 19 -9 39q-7 21 -12 40q-2 6 -4 13t-3 13q0 5 -1 11q0 5 -2 10v0z" />
    <glyph glyph-name="X" unicode="X" horiz-adv-x="478" 
d="M47 37q1 4 3 7t4 7q5 11 13 23t15 22l6 8t5 8q3 7 7 14q5 7 8 14q11 23 23 46t22 46q5 11 11 22q7 11 13 22q1 2 5 8t4 8q-1 4 -4 9t-5 9q-9 16 -17 33q8 -16 6 -12q-1 3 -6 12q-8 21 -17 41q-9 21 -17 42q-3 7 -5 15l-6 14q-6 14 -12 24q-7 11 -15 23q-3 5 -5 10
q-3 5 -5 10q0 2 1 3q1 2 2 1q2 -1 3 -2q1 -2 2 -3q7 -8 11 -15q3 -7 9 -16q2 -4 6 -7q3 -4 5 -8q4 -9 8 -17q4 -9 8 -17q1 -3 2 -7l2 -6q14 -34 29 -68q-14 32 -11 25q2 -6 11 -25q4 -11 9 -23q5 -11 10 -21q1 -3 3 -8t4 -6v0l1 1l4 6q2 4 4 7q5 10 13 22q8 13 15 23t14 21
q7 10 15 20q10 13 21 26q11 12 22 25q10 11 20 23q9 12 20 23q15 15 30 31q-14 -14 -11 -12q3 3 11 12q1 2 3 5q2 4 4 4h1v-1q3 -3 7 -6q3 -3 5 -6q1 -2 -4 -7q-4 -6 -6 -7l-21 -21q-11 -11 -18 -21q-4 -6 -9 -11q-5 -6 -10 -10q-1 -2 -2 -3q-1 -2 -2 -3q-8 -9 -15 -18
q-7 -10 -15 -18q-14 -15 -30 -37t-25 -40q-4 -9 -10 -17l-12 -18q-2 -3 -5 -7q-2 -3 -3 -7q-1 -3 2 -7l4 -6q11 -21 22 -41q-11 19 -9 15q3 -4 9 -15q17 -34 40 -65q22 -31 47 -59q7 -8 19 -16q13 -7 23 -12q8 -6 20 -12t19 -12l8 -8q4 -3 9 -6q2 -2 8 -7t6 -7q-3 -3 -8 1
q-5 3 -7 6q-5 4 -10 7q-5 4 -11 6q-4 2 -8 6q-3 3 -8 5l-8 4l-8 6q-9 5 -18 11q-9 5 -16 12q-27 25 -50 54t-43 60q-8 12 -15 24q-6 13 -13 25q-2 4 -5 11t-5 9q-1 0 -2 -1q0 -1 -1 -1q-3 -7 -7 -13q4 6 3 5t-3 -5q-13 -24 -25 -49q12 23 9 19q-2 -5 -9 -19
q-26 -49 -50 -100q23 47 18 38q-4 -10 -18 -38q-2 -4 -5 -8l-6 -8q-8 -16 -18 -30q-11 -14 -18 -30q-1 -2 -1 -4v-4q-1 -1 -2 -1q-1 -1 -2 -1l-7 7q-6 5 -7 7v3v-1v1v0z" />
    <glyph glyph-name="Y" unicode="Y" horiz-adv-x="460" 
d="M48 534q0 1 1 2t2 1h1q0 -1 1 -2q3 -2 6 -5q4 -3 6 -6q2 -4 4 -9q1 -6 3 -10q3 -6 8 -12t10 -11q4 -5 7 -11q4 -6 7 -11q9 -14 18 -29q9 -14 20 -27q5 -7 10 -15q6 -7 10 -15q5 -9 10 -17q6 -8 10 -16q11 -20 22 -39q-10 18 -8 14q2 -3 8 -14q7 -13 13 -27q7 -14 14 -26
q1 -3 4 -8q2 -5 5 -6q3 0 6 5t5 7q8 9 15 20t11 21q7 15 14 28l14 28q8 20 17 38q9 19 17 39q4 9 10 18q5 9 11 18q6 11 13 21l14 22q1 3 4 7q3 5 7 4q3 -1 8 -7q6 -6 6 -8q-1 -1 -3 -2q-2 0 -3 -1q-2 -3 -3 -6q-2 -2 -3 -5q-7 -10 -15 -21q-7 -11 -12 -22q-4 -8 -9 -15
t-9 -15q-21 -46 -41 -92q19 43 15 35q-4 -9 -15 -35q-6 -13 -13 -26q-7 -12 -13 -25q-4 -9 -12 -21q-8 -11 -15 -19q-2 -2 -7 -6t-6 -5v-5q1 -2 0 -5q0 -7 -1 -14q0 -7 -1 -14q-3 -35 -2 -70q2 -35 -1 -70q-1 -17 1 -34q-1 16 -1 13t1 -13q1 -3 3 -10q3 -7 1 -9q-2 0 -4 3
q-3 3 -4 5q-9 9 -12 20q-3 10 -2 23v8q1 4 1 7v51q0 -24 0 -19v19v29q-1 15 1 30q1 10 1 19q0 10 1 19l2 14v14q-1 3 -2 5q-2 1 -4 3l-8 18q4 -8 3 -6q-1 1 -3 6l-30 58q14 -27 12 -22q-3 6 -12 22q-27 52 -60 100q-33 49 -67 97q-5 7 -8 15q4 -7 3 -6l-3 6l-2 6t-3 6v0z
" />
    <glyph glyph-name="Z" unicode="Z" horiz-adv-x="483" 
d="M43 546l2 2q1 2 2 1q1 0 3 -3l3 -3q5 -3 11 -5q5 -2 10 -5q4 -1 8 -1h8q8 -1 18 -1h18q19 1 38 3l38 4q21 2 41 3t40 3q12 1 23 0q12 0 23 -1h13q6 -1 13 -1h11t11 -1q2 -2 9 -8q6 -6 8 -9q0 -1 1 -4v-4q1 -7 -1 -14t-5 -13q-2 -9 -5 -17q-2 -8 -5 -16q-7 -15 -16 -29
t-17 -29q-4 -7 -8 -13q-5 -7 -9 -13q-9 -18 -21 -35t-23 -34q-13 -20 -27 -40q-13 -20 -24 -41q-2 -4 -5 -9q-4 -4 -6 -9l-20 -34q-10 -16 -19 -34q-12 -22 -27 -41q-15 -20 -27 -42q-3 -6 -6 -11t-6 -11q-1 -3 0 -2l-2 -2q0 -1 -1 -1v-1q1 -1 7 0h9q12 0 23 1l24 2
q59 7 119 14q-56 -6 -45 -5q12 2 45 5l40 4q20 1 40 3q11 1 27 -1t24 -8q3 -2 8 -7q4 -4 3 -7q-1 -1 -2 -1q1 1 1 0h-1t-2 1l-2 2q-4 1 -7 1q-4 1 -7 1q-11 3 -26 3q-15 -1 -26 -2l-38 -4q-19 -1 -38 -3q-34 -4 -67 -8t-66 -7q-19 -1 -39 -1q19 0 15 0h-15q-8 -1 -13 0
q-5 0 -11 6l-4 4q-4 2 -4 4t2 3t3 2q3 2 6 7q2 6 4 9q10 21 23 39q12 19 25 38q12 18 23 37t21 38q9 18 20 34t20 33l10 14t9 14q5 10 12 20q7 9 13 19q6 9 12 19t13 20q5 7 10 16q6 8 10 16q3 5 6 8q3 4 5 9q10 19 20 37q11 18 17 39q1 6 3 12t3 12q1 1 1 4q1 3 0 4
q-3 1 -11 1q-8 -1 -11 -1q-21 3 -42 3t-42 -3h-13q-6 0 -12 -1l-50 -4q-24 -2 -49 -5q-17 -2 -38 -1t-38 7q-9 5 -15 12t-14 13v0z" />
    <glyph glyph-name="bracketleft" unicode="[" horiz-adv-x="537" 
d="M164 354q0 31 1 62t1 61q-1 14 1 31q2 16 11 27q10 8 25 7q16 -1 28 -1h23q11 0 23 1q7 1 15 0h15q6 1 17 3q11 1 16 0q4 -1 8 -6q5 -5 7 -8l14 -14q-7 7 -5 5l5 -5q1 0 3 -2q2 -1 2 -2q0 -3 -4 -4h-5l-16 -2q-7 0 -15 -1t-16 0q-8 0 -15 -1q-15 -1 -30 -1q-15 1 -29 1
q-12 0 -22 -1q-9 -1 -15 -13q-3 -7 -3 -15t-1 -16q-2 -22 -2 -44q-1 -22 -1 -44q0 -2 1 -5v-5q-1 -13 -1 -26v-27q0 -3 1 -6v-7q-1 -10 -1 -20q1 -11 2 -21q1 -9 0 -18q0 -9 1 -17q1 -9 1 -18v-18q4 -34 6 -70q1 -36 1 -70v-34q-1 -17 -3 -34q-1 -10 -1 -20q0 -11 -1 -21
q-2 -17 -2 -35q1 17 1 13q-1 -3 -1 -13v-5q-1 -3 0 -4q0 -1 1 0h1q6 0 12 1q-6 -1 -4 -1q1 0 4 1q11 1 21 2q10 2 21 3q6 1 13 1h12q7 0 14 -1q8 -1 14 1q3 0 6 2q4 1 7 2q2 -1 4 -3q3 -3 4 -5q5 -4 14 -12q8 -8 11 -13q1 -3 -5 -5l-9 -3h-7h-7q-9 1 -18 1t-18 -1
q-31 -4 -63 -7q30 3 24 3q-6 -1 -24 -3q-8 -1 -17 -2t-16 2q-4 2 -10 9t-10 11t-8 7q-4 4 -7 9q-1 2 0 4q1 1 1 4q1 12 3 24q-2 -12 -1 -9q0 2 1 9v13v13q2 18 3 36q0 18 2 36q1 7 0 14q0 8 1 15q2 23 1 52t-3 52q-1 5 -1 11q1 6 0 11q-2 18 -2 35q-1 17 -3 34q-1 18 -2 37
v37q1 8 1 18q0 9 -1 18v0z" />
    <glyph glyph-name="bracketright" unicode="]" horiz-adv-x="431" 
d="M102 531q2 3 7 4h9q9 0 18 1q10 0 19 1q15 2 31 5l30 4q9 1 18 1h18q10 0 22 1q11 0 20 -3q4 -2 7 -6l6 -8q9 -8 17 -16q-8 8 -6 6q1 -2 6 -6l3 -3q1 -1 2 -3q0 -3 -2 -6t-3 -6q-2 -5 -4 -12q-1 -6 -1 -12q-2 -19 -3 -37v-37q0 -10 -1 -19q0 -9 1 -18q1 -7 0 -15
q0 -7 1 -15v-14v-15q3 -27 2 -53q-1 -27 2 -54q1 -15 0 -30t0 -29q2 -19 2 -38v-38q0 -6 -1 -12q0 -5 1 -11v-20q-1 -10 0 -20q1 -9 2 -20q0 -11 -1 -21q-2 -11 -7 -18q-6 -8 -14 -15q-1 -1 -3 -2q-1 -1 -3 -2q-11 -11 -25 -18q-15 -7 -31 -9q-19 -2 -39 -5q19 2 15 2
q-4 -1 -15 -2h-10q-5 1 -10 0q-5 0 -11 -1t-11 1q-3 2 -5 5l-5 5l-18 18q8 -8 7 -7l-7 7q-2 1 -4 4q-3 4 0 5h6q4 -1 6 -1h18q10 0 18 1q25 2 48 8t41 23q4 4 10 8q5 3 8 8q5 14 4 29v29q0 21 -1 41v41v32t-1 32q-1 7 -1 15q1 7 0 14q-1 11 0 22q0 11 -1 21q-1 17 0 35
q0 17 -1 34q-2 16 -2 32v33q0 24 -1 48q-1 25 2 49v11q0 5 1 11q0 1 1 5v4h-10h-10q-16 0 -30 -3l-30 -4q-13 -2 -26 -2q-14 -1 -27 -2q-3 -1 -7 -2q-5 -1 -8 0q-2 1 -4 4t-4 5q-6 6 -12 13q-7 7 -13 12v0z" />
    <glyph glyph-name="a" unicode="a" horiz-adv-x="494" 
d="M60 139q3 13 8 27q5 13 15 23q8 8 17 11l18 8q3 1 6 4l6 4q11 4 21 9q-10 -4 -8 -4l8 4q14 5 28 7q15 2 29 3q8 1 15 2q8 0 16 1q28 -3 61 -2q32 0 47 29q3 8 4 16v17q2 13 -1 27q-2 13 -7 25q-3 6 -9 10q-5 5 -11 8q-11 7 -23 15q-12 9 -25 13q-6 1 -13 1h-12
q-7 0 -14 1h-15q-10 -2 -21 -5l-22 -6l-20 -4q-10 -3 -20 -5q-3 -1 -7 -2q-4 -2 -6 -1l-4 4q-2 3 -4 5q-1 1 -6 5q-4 4 -4 5q1 2 7 4q5 1 8 1q11 3 23 6q11 2 23 5q9 2 18 5q10 3 19 4q8 1 16 0t16 -1h10h9q7 -1 14 -6q6 -4 13 -7q20 -10 38 -25t32 -32q13 -15 17 -31
q3 -15 3 -35v-15q-1 -7 -3 -14l-2 -6q-2 -3 -3 -6q-2 -2 -5 -4q-2 -2 -3 -5q0 -2 4 -6q5 -4 6 -9q-1 -12 -2 -25t0 -26q4 -28 7 -57q-3 27 -2 22q0 -6 2 -22l2 -8l2 -8q3 -12 6 -25q3 -12 8 -24q3 -6 5 -11l6 -12t11 -18q9 -13 13 -18l5 -5t4 -6q0 -1 -2 -2l-1 -1l-5 5l-5 5
q-14 14 -26 32q12 -16 9 -13q-2 3 -9 13l-14 22q-7 12 -12 24q-3 6 -4 12q-2 6 -4 11q-2 6 -3 13l-4 14q-1 5 -2 11q1 -6 1 -5t-1 5v1t-1 1v-1v-2q-1 -5 -1 -3t-1 -2q-5 -11 -11 -23q5 11 4 9q0 -2 -4 -9q-8 -15 -26 -32q-17 -16 -31 -27q-9 -7 -19 -9q-9 -3 -19 -7
q-18 -7 -39 -11q-20 -4 -39 -1q-15 2 -27 11q-12 10 -22 20l-34 34q16 -16 13 -13q-4 3 -13 13q-2 2 -3 5q-2 2 -3 5l-4 8q-3 3 -5 7q-4 10 -5 22q-2 11 -2 23v0zM81 121q1 -19 6 -38q-4 18 -3 14q0 -3 3 -14q1 -4 4 -8q2 -3 4 -7q3 -7 7 -13q4 -5 10 -10q1 -2 3 -3
q1 0 3 -2q21 -18 53 -16q31 3 56 14q6 2 12 3t11 4q10 4 18 11q9 8 16 15l12 12q6 5 12 11q3 4 6 9t5 10q2 4 5 9q2 4 4 9q4 10 7 22q2 13 4 24q0 7 1 15t1 15q1 3 1 7q1 3 1 6q-1 1 -4 -1q-4 -1 -5 -1q-4 -2 -8 -2q-4 -1 -9 -2h-6q-3 1 -6 1q-10 -1 -20 0q-10 0 -20 1
q-21 0 -48 -2q-26 -2 -45 -9q-11 -5 -22 -9q10 4 8 3q-2 0 -8 -3q-5 -2 -9 -6q-5 -3 -9 -5q-11 -5 -19 -8q-7 -3 -15 -12q-2 -1 -2 -2v-2q-1 -2 -2 -3q-2 -2 -2 -3q-4 -9 -7 -17q3 8 2 6q0 -1 -2 -6q-2 -4 -2 -8q-1 -5 -2 -9v0z" />
    <glyph glyph-name="b" unicode="b" horiz-adv-x="447" 
d="M68 576q3 4 6 1l5 -5l3 -3t4 -3q1 -4 3 -10q2 -7 3 -11q2 -8 3 -17q2 -8 3 -17q1 -8 1 -17t1 -17q1 -14 0 -29q-1 -14 0 -28q2 -20 1 -41q-1 -20 1 -41q1 -12 2 -25q0 -13 1 -25q3 -26 4 -51q2 -26 5 -51q2 -16 6 -31q4 -16 8 -31q5 -19 13 -41t20 -36q6 -7 14 -11t15 -7
l12 -4q5 -3 11 -3q10 -1 25 3q16 3 25 7q5 2 10 5q4 4 9 6q6 3 13 5t12 7q6 6 15 22q8 15 12 24q2 3 3 5q2 3 4 5q8 17 15 35q-7 -16 -5 -13q1 3 5 13q3 9 3 18q0 10 1 18q2 26 -3 52t-13 50q-2 5 -4 9l-4 10q-6 15 -12 31q6 -15 4 -12l-4 12t-7 19q-4 9 -11 17q-4 4 -10 7
t-12 4q-3 1 -7 3q-3 2 -7 3q-8 4 -20 4q-11 0 -20 -1q-14 -2 -29 -8q-16 -6 -26 -14q-3 -2 -5 -5t-5 -6q-4 -5 -9 -9q-4 -4 -9 -10q-5 -7 -9 -15t-9 -17q0 -1 -2 -5q-1 -4 -4 -4l-7 7l-6 6q-1 3 2 6q2 3 3 5q5 10 9 19q5 9 12 17q3 4 7 7q3 3 7 6q3 4 7 8q3 4 7 7q4 4 9 6
q4 2 9 4q13 5 25 8t26 4q8 0 15 -1q8 -1 15 -3q18 -8 31 -16q13 -9 26 -25q2 -3 5 -6t5 -7q7 -14 12 -29q5 -16 11 -31q16 -35 21 -71t1 -74q-2 -13 -10 -28q-7 -14 -14 -26l-13 -26q-8 -14 -17 -24q-6 -6 -14 -8q-7 -3 -15 -6q-5 -3 -10 -7q-6 -3 -11 -5q-9 -4 -23 -7
q-13 -3 -22 -2q-16 2 -31 10q-16 8 -28 18q-11 10 -21 22t-16 25l-8 22q-3 11 -7 22q-5 14 -8 28q-4 14 -7 28q-3 17 -5 35q2 -17 1 -13q0 3 -1 13v6q0 4 -1 6q0 1 0 -1v-3q-1 -3 -1 -6v-7v-16q1 -9 0 -17q-1 -11 -1 -22v-23v-29v-29q-1 -19 1 -37q-1 17 -1 14q0 -4 1 -14
q1 -2 1 -6t-3 -5l-3 3q-1 2 -2 3l-4 4q-3 2 -4 4q-2 3 -2 9v9q0 8 -1 16t-1 16q0 16 1 32v32q1 23 1 46q0 -22 0 -17v17v20t1 20q1 17 0 36q0 18 1 36q1 14 0 28q0 14 1 28q1 12 1 24q0 13 -1 25q1 10 1 20t-1 20q-1 16 -2 31q-1 16 -2 31q-2 15 -4 29q-3 14 -3 28v0z" />
    <glyph glyph-name="c" unicode="c" horiz-adv-x="476" 
d="M98 254q2 6 2 13q-1 7 1 14q1 4 3 9q1 4 3 8q6 13 17 22l20 18l10 8q5 5 10 9q2 2 5 3q2 2 5 4l7 7q4 5 9 7q8 3 16 7q9 3 17 6q5 2 10 2q5 1 9 2q12 5 25 6q12 2 24 1q8 -1 17 0q8 0 16 -1t15 -3q7 -3 14 -5q3 0 6 -1q3 0 5 -1q1 -1 7 -6l7 -7q0 -4 -5 -3q-4 0 -6 1
q-12 3 -22 6t-23 3q-8 0 -18 1q-9 1 -18 0l-22 -4q-10 -3 -21 -6q-10 -2 -22 -6q-11 -4 -20 -9q-13 -9 -24 -19q-11 -11 -23 -21q-8 -5 -16 -13q-8 -7 -12 -15q-9 -18 -11 -44q-2 -25 1 -45v-12q-1 -6 0 -12q1 -13 2 -28q1 -14 5 -28q6 -17 15 -33q10 -17 21 -30l8 -10
q3 -5 8 -8q14 -7 30 -11q16 -3 31 -5h10t10 -1q15 -1 31 3l30 6q5 1 9 3q5 2 9 2q8 2 13 1q4 0 10 -6q1 -2 4 -3q2 -2 3 -4q0 -2 -3 -3t-4 -1q-9 1 -18 -2q-9 -2 -17 -5q-31 -8 -66 -7q-34 1 -64 13q-13 6 -23 17t-19 21q-14 15 -25 33q-11 19 -18 37q-4 8 -5 17t-1 17
q-3 23 -3 45q-1 23 -1 46v0z" />
    <glyph glyph-name="d" unicode="d" horiz-adv-x="517" 
d="M112 270q2 6 1 12q0 7 1 13q0 9 2 18t6 17q4 10 13 17l16 14q15 14 35 23t40 9q14 0 27 -4l26 -10q5 -2 10 -3l10 -4t11 -7q5 -4 10 -9q6 -6 14 -12q7 -6 15 -12l10 -10q-5 5 -4 4l4 -4l1 -2l2 -1h1v2v6v7v43q0 -20 0 -16v16q0 22 2 44t4 43q2 18 3 36q2 18 3 35
q3 20 5 39q-2 -18 -2 -15q1 4 2 15q0 2 1 5q1 4 3 5l4 -4t4 -5q1 -1 3 -2q1 -2 2 -3q2 -3 0 -8q-1 -5 -2 -8q-1 -17 -3 -34q2 16 1 13q0 -3 -1 -13q-4 -33 -6 -67q-3 -34 -7 -67q-1 -16 0 -33v-34q1 -39 5 -77q4 -39 8 -77q2 -21 3 -42q1 -22 3 -43q1 -8 1 -17t1 -17l2 -10
t1 -10q1 -4 2 -9q0 -6 -3 -9q-4 -1 -9 5l-9 9l-3 3q-1 1 0 3q2 2 4 0l2 -1q1 1 0 4t-1 4q-2 15 -3 30q1 -14 1 -11t-1 11q-2 20 -3 40q0 20 -2 39q-3 30 -6 59l-6 60l-2 18q0 9 -1 18v7q0 3 -1 6q-1 2 -3 4t-4 3q-4 3 -9 7q-4 4 -9 8q-6 5 -12 11t-14 10t-17 6q-9 3 -17 6
q-10 4 -20 7q-11 2 -21 2q-13 0 -24 -4t-22 -9q-16 -8 -34 -23q-17 -15 -22 -32q-3 -13 -3 -26t-1 -26q-2 -12 -1 -24q1 -11 2 -23q1 -6 0 -13q0 -6 1 -13l4 -32q-2 15 -2 12q1 -3 2 -12q2 -19 6 -37q5 -17 13 -34l6 -12q4 -6 8 -11q6 -5 12 -8l14 -6q5 -2 11 -3q5 -1 11 -2
q24 -2 46 6q21 8 40 23q9 8 17 16q8 9 17 17q2 3 5 7t6 5q2 -1 7 -6q6 -5 7 -7l1 -1v0v0q-2 -3 -5 -5q-4 -3 -6 -5q-5 -5 -9 -10q-5 -6 -10 -11q-17 -17 -38 -30t-46 -17q-15 -1 -30 2q-15 4 -28 10q-11 6 -21 16q-9 10 -18 19q-2 3 -5 7q-2 4 -3 8q-1 2 -3 4t-3 4
q-5 12 -10 25q-4 12 -6 26q-1 11 -3 23t-3 23q-3 21 -3 41q-1 21 -1 42v0z" />
    <glyph glyph-name="e" unicode="e" horiz-adv-x="519" 
d="M86 274q2 9 4 17q2 9 6 17q4 10 13 17q9 8 17 15q4 4 8 6q5 2 8 5q5 5 11 8q5 4 11 7q7 3 12 6q6 4 13 6q6 3 12 3q7 1 13 2q4 0 8 1q3 1 7 1q22 2 49 -3q26 -5 47 -14l14 -6q7 -2 14 -6q18 -10 33 -26q15 -15 27 -31l4 -8t4 -7q7 -10 9 -23q3 -14 -3 -24q-5 -6 -12 -9
t-13 -6q-10 -3 -19 -5q-9 -3 -18 -4q-15 -1 -30 -1q-15 1 -30 1h-44t-44 3q-6 0 -13 2l-12 2q-21 3 -43 5q20 -2 16 -2q-4 1 -16 2h-11q-6 1 -11 5l-6 6q-5 4 -5 5q0 3 8 2t10 -1q16 -2 31 -4q16 -1 31 -4q24 -3 48 -4t48 0q18 -1 37 -1q18 0 36 2q5 1 11 3q5 1 10 4
q9 3 18 7t10 15v11q-1 6 -3 11q-7 19 -21 35q-13 17 -31 26q-5 2 -9 3t-9 3q-15 7 -31 11q-15 4 -32 6l-20 2q-11 1 -21 0q-3 0 -7 -1q-3 -1 -7 -1q-6 -1 -13 -2t-12 -3q-20 -9 -43 -25t-37 -32q-4 -4 -6 -9q-3 -6 -4 -11q-8 -24 -5 -42q2 -17 5 -41q1 -7 3 -14t3 -14
q3 -31 17 -62q13 -30 35 -52q10 -10 20 -18q10 -7 22 -15q28 -17 62 -21q-31 6 -25 5q6 -2 25 -5q12 -1 25 2t25 5q5 0 14 1q10 1 13 2q5 3 8 7t6 9q1 2 2 5t3 3q1 0 4 -3q2 -2 3 -4q1 -1 4 -3q3 -3 3 -5q-2 -5 -8 -13q-6 -7 -11 -11q-3 -3 -12 -3q-8 0 -14 -1
q-26 -7 -49 -7t-47 11q-26 11 -48 29q-22 19 -40 40l-20 24t-16 27q-8 20 -13 41q5 -20 4 -16l-4 16q0 1 -1 3t-1 4q-1 4 -2 9q0 4 -1 8q-11 44 -11 89q2 -42 1 -34q-1 9 -1 34v0z" />
    <glyph glyph-name="f" unicode="f" 
d="M79 374q4 4 14 4q10 -1 17 -1q33 4 65 12q-31 -7 -24 -6q6 1 24 6q3 0 10 1q8 2 9 3q2 2 2 10v12q1 13 1 27q1 13 2 27q0 5 1 9q0 5 1 9q6 26 23 44q17 19 41 29l12 6l12 4l26 2q13 0 26 -2q9 -1 22 -1q12 -1 20 -3q4 -2 8 -6q3 -4 6 -7q1 -1 2 -3t-1 -2q-2 -1 -9 1
t-10 2q-15 2 -30 3t-30 1q-9 0 -18 -2q-8 -3 -17 -6q-25 -10 -44 -29q-20 -19 -24 -47q-1 -14 -1 -28t-2 -28v-6v-7q0 -1 -1 -3v-3q1 -1 3 0q2 0 3 1q5 0 9 1h10q17 1 34 1h34q11 -1 21 -1h22q9 0 18 1q10 2 19 1q2 -1 8 -7q7 -6 7 -8q-1 -2 -5 -2h-6q-8 -1 -16 -1
q-8 1 -16 0t-15 -1q-7 1 -14 1h-43q-22 1 -43 -2l-24 -2q11 1 9 1t-9 -1h-4q-3 -1 -4 -2q-1 -5 -1 -10v-9l-2 -28t-3 -28l-2 -24q0 -13 -2 -25v-13v-13q-1 -8 -1 -17q-1 -8 0 -16q2 -18 5 -35q3 -18 5 -35q4 -23 5 -47q2 -23 -1 -47q0 -5 -2 -11q-1 -6 -3 -11q0 -1 -1 -3
q-1 -1 -3 -1q-5 2 -8 6t-6 7q-1 1 -3 2q-1 1 -1 3q1 3 3 1t3 -1q2 2 3 8q0 5 1 8q3 13 3 28q0 16 -1 29q-3 26 -8 51q-4 26 -7 51q-1 10 -1 20t1 19q1 13 1 26t1 26q2 15 3 30q1 16 2 31q1 4 2 13t1 11q-1 1 -5 1q-4 -1 -6 -2q-6 -2 -13 -3q-7 -2 -14 -3q-11 -1 -23 -3
l-22 -2h-9q-5 -1 -8 0q-3 2 -7 7q-3 4 -7 7v0z" />
    <glyph glyph-name="g" unicode="g" horiz-adv-x="482" 
d="M73 301q1 3 1 6q1 3 1 6q1 8 7 18q6 11 12 17q11 11 20 16t23 10q3 2 7 4q3 2 6 3q8 3 15 5q8 3 15 6q5 2 11 3q5 0 11 2q27 5 55 6q27 0 54 -4q13 -2 25 -4q13 -2 25 0q8 0 16 1t15 1q3 -1 10 -7q6 -5 7 -7q0 -2 -3 -3h-4q-6 0 -13 -1q-6 0 -13 -1h-11q-6 -1 -11 0
l-20 2q-10 2 -20 3q-6 1 -11 0q-5 0 -11 1l-12 2h-13l-20 -2q-10 0 -20 -1q-21 -2 -40 -10q-20 -7 -39 -15q-4 -2 -9 -4q-5 -1 -10 -4q-13 -7 -25 -22q-11 -15 -13 -30q-1 -11 -1 -22q0 -12 2 -23q1 -11 5 -26q5 -14 13 -23q8 -8 20 -10l22 -4q9 -2 18 -5q10 -4 19 -5
q22 -2 45 4q22 6 39 22q7 6 15 15q8 8 13 17q6 14 9 30q3 15 3 31q-1 10 -3 18q-2 9 -5 18q-1 4 -3 8q-1 3 -2 7q-1 2 0 3q1 2 3 0q13 -10 18 -26q6 -16 8 -32q3 -32 -8 -58t-36 -47q-8 -6 -15 -12q-8 -5 -18 -9q-13 -4 -25 -5q-13 -2 -26 -1l-10 2t-9 3q-2 1 -6 2
q-3 1 -5 1q0 -1 3 -4q3 -4 4 -5q-1 -1 -4 -3q-3 -1 -4 -2q-4 -4 -10 -9l-9 -9q-12 -19 -15 -37t0 -39q0 -4 1 -9q0 -4 3 -7q6 -3 12 -4q7 -1 14 -1q9 1 19 3q10 3 19 6q5 1 10 1q5 1 10 3q4 1 9 3q4 1 9 2h6h7q8 1 15 2q8 1 15 0l8 -2t8 -3l6 -2l6 -2q10 -4 19 -11
q8 -7 15 -15q4 -3 7 -6q4 -4 6 -8q5 -11 9 -22t6 -23q3 -10 5 -21t1 -23q-2 -16 -12 -29q-9 -14 -20 -25q-9 -9 -18 -19q-10 -10 -21 -16q-17 -7 -36 -10l-36 -8q-19 -4 -31 -5t-31 5q-19 7 -31 16q-13 9 -27 23q-9 10 -17 21q-7 12 -6 26q1 20 11 44t24 39q3 3 11 9
q7 6 13 6l3 -3q2 -3 3 -4q2 -1 4 -3t3 -4q0 -2 -5 -4t-7 -3q-5 -2 -10 -7q-5 -6 -9 -11q-5 -8 -8 -16q-4 -9 -7 -18q-7 -15 -8 -30q-2 -15 4 -30q2 -6 7 -10q4 -5 8 -8q3 -3 6 -5q4 -2 7 -3q16 -7 30 -11q15 -3 33 -2q7 1 15 4q7 2 15 3q15 2 31 6t30 10q11 6 20 15
q8 9 16 19q12 12 22 27q9 15 8 33q-3 26 -10 51q5 -24 5 -19q-1 5 -5 19l-6 15q-4 11 -8 14q-9 8 -23 13q-13 5 -25 6q-6 1 -12 0q-7 -1 -13 -2h-8q-4 1 -8 0q-4 0 -7 -1q-3 -2 -6 -3l-10 -2q-4 -1 -9 -2q-17 -5 -38 -9q-20 -4 -36 8q-6 5 -13 12t-10 14q-3 5 -3 10
q-1 5 -1 10q-2 11 -2 22t4 22q4 10 9 20q6 9 14 17q6 4 11 9q-5 -4 -4 -4l4 4l2 2q2 2 1 3q-4 2 -9 2h-9q-3 1 -7 3q-3 2 -7 3q-5 3 -10 8t-9 10q-6 5 -12 11q-6 7 -9 14q-8 18 -10 37q-3 19 -3 38v0z" />
    <glyph glyph-name="h" unicode="h" horiz-adv-x="463" 
d="M75 301q1 7 1 15q-1 7 -1 14q2 13 2 25q1 13 2 25q4 34 7 67q-3 -31 -3 -25q1 6 3 25q2 13 4 27q2 13 2 27q0 13 1 26v27q-1 3 -2 8q-1 4 3 7h2h-1h1q1 -1 6 -7q6 -5 7 -7t0 -6v-7q1 -9 1 -19t-1 -20q-1 -11 -1 -22t-1 -22q-2 -20 -5 -39t-5 -38q-3 -22 -3 -44q1 21 0 17
v-17q-1 -2 -1 -6q0 -5 1 -5q1 -1 1 1q1 1 1 3q4 6 9 11q-4 -5 -4 -4l4 4q7 7 15 13q8 7 15 13q16 15 34 25t37 18l8 4l8 4q9 3 25 5t25 1q18 -2 33 -11t28 -21l20 -22q10 -12 16 -25t9 -27t5 -27v-15v-14q3 -27 2 -55q-2 -28 -2 -55v-39q0 -19 2 -38q1 -5 2 -14t0 -12
q-1 -1 -1 -2h-1h-1q0 1 -1 2q-2 2 -6 5t-5 6t-1 6q0 -3 0 -2v2q-3 23 -4 46t-1 46v25q1 12 1 25v18q1 10 1 19q1 36 -6 77q-6 41 -33 67q-6 5 -12 7q-7 3 -13 6l-4 2q-3 1 -5 2q-13 2 -30 1t-29 -5q-4 -2 -7 -4q-3 -1 -7 -3q-11 -5 -23 -9q11 4 9 3l-9 -3q-19 -9 -36 -22
q-18 -13 -33 -27q-6 -5 -10 -11l-10 -12q-3 -3 -4 -6l-4 -6q-4 -3 -7 0q-2 3 -3 1q-1 -10 -1 -25q1 -16 3 -27l2 -36q0 -18 2 -36l4 -54t5 -54q1 -13 1 -25q0 12 0 9v-9v-5t-2 -3q-1 0 -3 2q-3 3 -3 4q-8 7 -8 11q-1 4 0 14q-1 10 -2 19l-2 18q-1 13 -2 25t-2 25l-2 16
q-1 9 -1 17q0 14 -2 28q1 -13 1 -10q0 2 -1 10l-2 24q0 12 -1 24q-1 8 0 17t-1 18v0z" />
    <glyph glyph-name="i" unicode="i" horiz-adv-x="476" 
d="M91 1q2 3 4 3h6q9 1 18 3q8 1 17 2q8 1 16 1t16 1q12 2 25 3q12 2 25 4q5 0 16 1q10 1 14 2q2 1 0 3t-3 2q-1 2 0 6q1 3 2 5q4 18 2 36l-2 36v22q-1 11 -1 21q1 12 3 24t3 25v17v17q1 6 1 12q1 6 0 11q-2 21 -5 42q-2 21 -8 42q-2 10 -4 21l-2 20v7v6v2v1q-1 1 -3 0
q-1 -1 -3 -1q-4 -1 -9 -1h-9l-34 -4q16 2 13 1q-3 0 -13 -1q-12 -2 -23 -5q-12 -4 -24 -4q-9 -1 -12 0t-8 7q-2 1 -4 3q-2 1 -3 3q0 3 4 4h5q10 0 19 1q9 2 19 4q15 4 29 5q15 2 30 3q5 0 12 2q6 2 11 1q2 -1 9 -7q7 -7 8 -9q3 -5 2 -11v-11q3 -20 6 -41q-3 19 -2 16
q0 -4 2 -16q2 -11 5 -22t4 -22l4 -36q-2 17 -1 13q0 -3 1 -13q1 -6 1 -12q-1 -6 -1 -12q0 -9 1 -18q0 -9 -1 -18q-2 -20 -4 -39t-2 -38q0 -18 2 -37q1 -18 1 -37v-9q0 -5 -1 -10l-2 -2q-1 -2 0 -3h3q2 1 3 1h11q5 1 10 1q6 1 13 0q7 0 12 -1q14 -2 27 -3t26 -1q3 -1 10 -7
q6 -5 7 -7q0 -3 -4 -3h-6q-16 2 -31 3q15 -1 12 -1q-3 1 -12 1q-17 2 -35 2t-36 -2q-21 -2 -42 -5q-22 -3 -43 -6q-12 -1 -23 -1q-12 0 -23 -2q-14 -1 -27 -3q12 2 10 1q-3 0 -10 -1q-2 0 -5 -1q-4 -1 -6 0q-3 2 -6 6t-7 7v0zM203 558l2 4q1 3 2 5q4 2 14 2h16h5t4 -1
q3 -1 5 -4q2 -2 3 -4q8 -8 11 -14q2 -5 1 -17q-1 -10 -8 -20q-7 -9 -18 -5q-4 2 -7 5q-3 4 -5 6q-9 9 -17 19q-7 10 -8 24v0zM220 546q0 -6 3 -16q4 -10 10 -11q10 2 14 13q5 12 2 19q-1 1 -3 0l-3 -3q-2 -3 -4 -8q-2 -6 -4 -7q-2 0 -7 5l-8 8v0zM220 549v0v0z" />
    <glyph glyph-name="j" unicode="j" horiz-adv-x="376" 
d="M55 -145q4 4 10 -2q5 -7 10 -10q10 -5 21 -9q10 -5 22 -4q18 2 35 8q17 5 33 11q9 4 19 8q9 3 18 8l12 8q5 3 11 7q11 5 22 13q11 9 15 20q3 10 3 25q0 14 -1 25q-1 7 -1 15q0 7 -1 14q-1 11 -2 21q-2 10 -3 21q-1 6 -1 12v13q-1 8 -1 16q0 9 1 17q1 4 0 8v8q2 15 3 30
q0 15 2 29q4 40 4 80q1 39 1 79q-1 14 -1 28t2 28q1 5 1 11q1 6 0 11q-1 2 -3 2q-2 -1 -4 -1q-7 -1 -13 -2q-7 -1 -13 -2q-14 -2 -29 -5q-14 -3 -28 -5q-15 -1 -29 -2q-14 0 -29 1q-6 0 -14 2q-7 1 -13 4q-2 1 -4 3q-1 2 -3 4q-1 0 -3 3q-3 2 -3 3q2 3 8 2q7 -2 10 -2
q13 -3 27 -4q13 -1 27 1q20 2 40 6t41 7q8 1 17 3t17 1q4 -2 11 -9q6 -6 8 -10q1 -9 0 -19t-2 -19q-2 -15 -2 -30v-31q1 -33 0 -67q0 -34 -3 -67q-5 -39 -7 -79t2 -79q3 -21 5 -42q2 -20 2 -42v-20q-1 -11 -7 -19q-7 -8 -17 -14l-18 -12q-17 -11 -35 -19t-37 -16
q-5 -2 -10 -3t-10 -3q-11 -4 -22 -7t-22 -3q-11 1 -21 5q-9 4 -18 10q-3 2 -6 3t-5 3q-4 4 -8 9q4 -4 3 -4q-1 1 -3 4q-3 3 -6 5q-3 3 -5 7v0zM254 559q3 9 9 14q6 4 14 7q2 0 6 1q3 1 5 0l7 -7q5 -6 6 -7q-1 -1 -4 -2l-2 -1q1 -1 3 -1q3 -1 4 -1q2 -1 4 -4q1 -2 3 -3l8 -8
q4 -4 4 -10q0 -2 -2 -4l-2 -4q-8 -11 -20 -13q-11 -3 -23 2q-2 1 -4 3q-1 2 -3 4q-3 2 -6 5t-5 7q-2 5 -2 11v11v0zM271 541v-4t1 -4q4 -3 12 -1t12 4q2 1 5 6q4 4 3 6q-2 2 -9 2h-9q-2 1 -4 5q-2 3 -5 3q-4 -1 -5 -7q-1 -7 -1 -10v0z" />
    <glyph glyph-name="k" unicode="k" horiz-adv-x="489" 
d="M86 195v8v8q1 7 1 15q0 7 1 14q3 23 4 46l4 46q3 23 5 47l4 48q2 17 3 35q2 17 4 35q0 7 2 14q1 8 2 15q2 12 3 24q-1 -11 -1 -9t1 9q0 1 1 3q1 3 2 3l2 -2l-1 1l1 -1q2 -2 6 -5q4 -4 6 -7q1 -3 0 -7l-2 -8q-1 -10 -2 -21q-2 -10 -3 -20q-5 -48 -9 -95l-10 -94
q-1 -10 -1 -20q0 -11 -1 -21q-2 -12 -2 -24q-1 -13 -2 -25q-1 -7 -1 -13v-13q-1 -8 -1 -16q0 7 0 6v-6v-4v-3q1 0 3 1q1 1 2 1l12 8q-6 -4 -4 -3q1 1 4 3q13 9 24 20q11 10 21 21q9 9 18 19t16 20q2 3 2 2t1 -1q2 1 6 5q4 5 6 7q9 8 17 17q9 9 18 17q8 7 15 14t15 14
q10 8 19 17q10 9 18 20l16 20t17 20l4 4t3 5v1v2l1 1t2 1q2 -1 8 -7q6 -7 6 -9q-1 -3 -4 -7q-4 -4 -7 -6q-4 -5 -8 -11t-9 -11l-16 -18q-7 -10 -15 -18q-14 -14 -29 -27l-28 -26q-15 -14 -29 -28q14 13 11 10q-3 -2 -11 -10q-2 -2 -7 -6q-4 -3 -5 -6q0 -2 3 -7q3 -4 4 -6
l12 -20q6 -9 13 -18q14 -18 25 -37q12 -19 26 -37q13 -16 29 -31q15 -15 28 -31q4 -6 9 -10q4 -5 9 -10q1 -2 3 -5q2 -2 5 -4q2 -1 5 0q3 0 6 -1l7 -7t5 -7q-2 -3 -8 -2q-5 0 -8 2q-9 7 -16 16t-15 17l-12 14q-6 8 -12 15q-18 18 -36 37q16 -18 13 -14q-3 3 -13 14
q-6 6 -11 13q-5 6 -11 12q-3 3 -5 7t-4 7q-11 16 -22 33q10 -16 8 -13q-2 4 -8 13q-6 10 -13 19l-14 20l-4 6q-1 4 -3 7q-1 1 -2 1l1 -1l-1 1l-3 -3q-1 -2 -2 -2q-8 -8 -14 -17q6 8 5 7q-1 -2 -5 -7q-10 -11 -20 -21q-11 -11 -22 -20q-12 -10 -25 -19q12 9 9 7q-2 -2 -9 -7
l-6 -3t-6 -2q-1 0 -3 3t-3 4h-1l-1 1q-1 -2 0 -4v-3q0 -10 1 -19q-1 9 -1 7t1 -7q1 -15 1 -31q0 -15 2 -30q1 -5 2 -11t1 -12q1 -2 1 -4q0 -3 -1 -4q-2 -1 -4 1q-2 3 -3 4l-4 4q-3 2 -4 4q-2 4 -3 10q0 6 -1 10q-3 33 -4 66t0 66v0z" />
    <glyph glyph-name="l" unicode="l" horiz-adv-x="498" 
d="M79 4q2 2 3 2q2 0 4 1q8 3 16 4q7 1 16 1q8 2 17 3l18 2l24 2t24 4q6 2 13 3q6 0 13 1h4t4 1q0 1 -1 1l-1 1v3v-1v1q1 5 3 10q1 4 2 9q1 7 1 14q1 7 1 14q1 5 1 11q-1 6 -1 11q-1 7 -1 13t-1 13l-4 38q2 -18 2 -14q-1 4 -2 14q-2 18 -2 35q-1 18 -2 35q-1 10 -1 20t1 19
q2 16 1 31t1 30q1 13 1 26v25v27q0 13 -1 26q-3 24 -4 48l-4 48q-2 11 -2 22q1 -11 1 -9q-1 3 -1 9v3v3h-1q0 -1 -1 -1q-2 -1 -5 -2q3 1 2 1l-2 -1q-5 -1 -9 -2l-10 -2q-12 -1 -23 0t-23 4q-5 1 -11 2q-5 2 -10 3q-8 0 -11 2q-2 1 -7 7q-1 0 -3 2t-2 3q0 3 4 3q5 0 7 -1
q10 -1 20 -4q11 -3 21 -4q13 -2 27 0q13 1 25 6q4 2 11 5q8 4 11 4v-1l1 -1q3 -2 7 -5q4 -4 5 -6t0 -4q0 2 0 1v-1q-1 -3 -3 -7q-2 -3 -2 -7q-1 -10 -1 -19q1 -10 2 -19q2 -15 2 -29q1 -15 3 -30q2 -24 3 -49q2 -24 1 -48v-19l-2 -18v-22q1 -10 0 -21q-1 -5 -1 -11
q-1 -6 -1 -11q1 -14 0 -29q0 -15 1 -29q1 -11 1 -22l2 -22q3 -33 7 -67q-3 31 -3 25q1 -6 3 -25q1 -12 0 -24q0 -12 -2 -24q0 -3 -1 -7q-1 -3 -2 -7q1 -2 5 -1q3 1 5 1q7 1 15 1h14q48 0 96 -5q-45 4 -36 3q9 0 36 -3h10q6 1 8 0t5 -4q2 -3 4 -5l2 -2l3 -2q0 -2 -3 -3
q-2 -1 -3 -1q-6 -1 -13 0l-12 2q-12 1 -24 1t-24 1q-4 1 -8 0h-8q-11 2 -22 2t-21 -1q-36 -4 -71 -9q-36 -5 -72 -9q-8 -1 -16 -1q-8 -1 -16 -3q-3 -1 -7 -2t-6 -1q-4 3 -7 7t-7 7v0z" />
    <glyph glyph-name="m" unicode="m" horiz-adv-x="473" 
d="M43 180q3 12 2 27q-1 16 0 29q1 9 1 19q0 9 1 19q2 21 3 44q1 22 1 44v23q0 11 1 22q0 2 1 8q1 5 3 6q0 -1 1 -2q2 -1 2 -2q2 -2 6 -5t4 -6q1 -7 0 -14l-2 -14t0 -15v-16q1 -3 1 -7q0 -3 -1 -7v-2q-1 -3 0 -3q1 -1 1 1q1 2 1 3q3 5 5 9q-2 -4 -2 -3q1 1 2 3q2 6 7 11
q4 5 9 10q12 12 26 22q15 11 30 19q5 3 11 6q5 3 11 5q9 3 21 4q11 0 20 -3q8 -5 15 -13q8 -8 14 -15q5 -5 10 -11q4 -6 7 -12q1 -2 2 -5q0 -3 2 -5v-1h1q2 3 5 9q2 7 6 10q11 14 22 29q11 14 27 22q5 2 12 2t13 -1q5 -1 10 -1q4 -1 9 -3q13 -6 23 -18t15 -24l4 -8
q2 -5 3 -9q2 -16 2 -33t-2 -34q-1 -12 -1 -24t-1 -23t0 -28q2 -16 3 -28q2 -11 5 -23q3 -11 6 -23q2 -5 3 -10l4 -10q2 -17 1 -31q-2 -15 -8 -30q-1 -5 -2 -14q-2 -9 -3 -11q-3 -2 -9 4q-7 5 -8 8q0 1 1 1q0 1 1 1v3v4q1 7 3 14q3 7 5 14q4 11 4 24t-3 25l-4 18l-6 18
q-5 12 -7 33q-3 21 -3 34q1 31 3 63q3 31 0 62q-1 9 -4 18q-4 9 -8 16q-5 6 -18 8t-20 1q-16 -2 -23 -9q-8 -7 -17 -18q-2 -2 -4 -5q-1 -3 -3 -5q-6 -6 -11 -13t-8 -14q-2 -4 -2 -7q-1 -4 -2 -7q-2 -4 -4 -2l-4 4q0 1 -1 1q0 1 -1 1q0 -2 1 -9q1 -6 2 -9q1 -9 1 -18v-18
q-1 -16 -2 -33t-2 -33l-4 -36q-1 -18 -5 -36q-2 -8 -3 -17q1 8 1 7q0 -2 -1 -7q-1 -12 -5 -26t-7 -26q-1 -3 -2 -11q-2 -8 -4 -9q-2 0 -8 6t-7 9q0 4 2 9t3 9q3 11 5 22q3 11 4 23q2 11 5 23t5 24l4 46q-2 -22 -1 -18q0 5 1 18q1 10 1 20q1 11 1 21q2 16 2 32t-2 32
q-1 14 -4 29q-3 14 -11 26q-2 4 -5 8q-4 4 -8 6q-20 7 -40 -1q-21 -8 -37 -20q-12 -7 -24 -16q-11 -9 -21 -20q-6 -7 -10 -16q-5 -9 -9 -18l-10 -28q-4 -14 -6 -29q-2 -22 -2 -43q0 -22 -1 -43q-1 -27 1 -53q1 -26 4 -52q1 -10 3 -20q1 -10 1 -20q1 -2 1 -8q1 -5 -3 -5
q-2 1 -7 8q-6 6 -7 8q-4 38 -8 75q4 -35 3 -28q0 7 -3 28q-1 14 -1 29q-1 14 -1 29q1 6 1 13q1 6 -1 12v0z" />
    <glyph glyph-name="n" unicode="n" horiz-adv-x="468" 
d="M60 232q1 6 1 11v11l4 40q-1 -19 -1 -15t1 15q2 13 5 26q4 14 5 27q1 3 2 7l2 6q1 8 3 15q1 7 1 14q0 2 1 6q1 3 3 4q1 0 2 -1l1 -2q4 -3 7 -7q4 -3 4 -8q-2 -18 -6 -36q-4 -19 -8 -37q-1 -4 -2 -9q-2 -5 -2 -10q-1 -3 -1 -6q0 3 0 2v-2v-3v1v-1v-2v0q2 1 6 9q4 7 5 10
q3 6 8 13t10 12q17 18 38 32q20 14 43 24q3 1 6 3q2 2 5 3q12 5 23 8t24 5q13 1 25 0q11 -2 24 -3h3t3 -1q5 -2 9 -6q4 -3 7 -7l8 -8q4 -3 7 -8q8 -12 13 -27q4 -14 8 -29l6 -22l6 -22v-4q-1 1 0 -2q3 -7 5 -13q2 -7 3 -13q2 -5 2 -10q1 -5 1 -11q1 -9 3 -19q1 -9 2 -19
q2 -15 3 -30q1 -16 3 -31q1 -12 2 -27q1 -14 5 -26q2 -4 6 -14t3 -14q-1 -2 -3 -1t-3 2q-1 2 -6 6q-4 4 -5 6q-3 11 -7 22t-6 22q-1 11 -2 21q0 11 -2 22q-1 13 -2 27l-2 28q-2 13 -4 25q-1 13 -3 25q-1 7 -3 15t-5 14q-2 5 -3 10q-1 6 -2 11q-2 7 -4 15l-4 14q-3 13 -8 31
t-14 28q-3 3 -10 4q-6 1 -10 2q-22 2 -45 0q21 1 17 1t-17 -1q-2 0 -4 -1q-1 -1 -4 -1q-2 0 -5 -1q-3 0 -6 -1q-8 -4 -17 -8q-8 -4 -17 -8q-20 -9 -39 -22q-20 -12 -35 -28q-4 -3 -6 -8l-6 -10q-8 -11 -14 -23q-7 -12 -12 -24q-2 -5 -3 -13q-1 -7 -3 -11q-2 -2 -4 0
q-2 3 -2 1q-2 -11 -1 -22q0 -11 1 -22q1 -7 1 -15v-14q2 -16 2 -31q1 -16 3 -31q1 -11 3 -21t4 -19q0 -3 1 -4q1 -2 1 -4q1 -7 2 -15l2 -14q1 -2 1 -5q1 -3 0 -5q-1 -1 -3 -1q-2 1 -2 2q-2 2 -7 6q-4 4 -5 6q-1 4 0 8q0 4 -1 8q0 3 -1 6q0 3 -1 5q-1 9 -3 17q-3 8 -4 16
q-1 9 -3 18q-1 8 -2 17q-3 31 -4 62t-1 62v0z" />
    <glyph glyph-name="o" unicode="o" horiz-adv-x="428" 
d="M47 205q2 6 2 12q1 6 1 12q2 13 5 26q3 12 8 24q9 19 26 41q16 22 32 35q10 8 22 15t24 13q13 7 26 15t28 11q8 2 17 2t18 -1q7 -1 13 -6q6 -6 12 -9q4 -1 10 -2q5 0 8 -3l7 -7t5 -7q-2 -2 -5 -1q-4 1 -4 0t1 -2q1 0 2 -1q1 -2 2 -5v2v-2q3 -5 5 -12t4 -13q4 -15 9 -30
t11 -30l4 -12q2 -7 5 -13q9 -20 17 -42q9 -23 13 -45q2 -13 4 -27q2 -13 -1 -27q-3 -11 -9 -22q-6 -10 -13 -19q-11 -16 -25 -29q12 13 10 10l-10 -10q-18 -21 -42 -39t-55 -16q-21 3 -41 19t-34 32q-31 29 -60 57t-47 67q-3 9 -4 19t-1 20v0zM64 191q0 -23 8 -43t23 -37
q2 -3 5 -7q2 -3 5 -6q24 -21 47 -43q-22 20 -17 16q4 -4 17 -16q15 -16 33 -30q18 -15 40 -18q11 -1 21 2t19 8q22 11 39 29q18 18 33 37q8 9 15 21q8 12 9 25q3 25 -2 51q-5 25 -16 48q-2 5 -3 10q-2 5 -3 10q-8 19 -16 39q-7 19 -14 39q-3 11 -8 28q-4 16 -9 25
q-4 5 -10 9q-7 3 -13 5q-4 1 -9 1h-9q-6 -1 -13 -1q-7 -1 -13 -3q-7 -3 -15 -7q-7 -4 -14 -7q-2 -1 -4 -3q-2 -1 -4 -3q-8 -3 -14 -7q-7 -5 -14 -9q-29 -14 -49 -41q-21 -28 -33 -57q-5 -10 -7 -21q-2 -12 -3 -23q0 -5 -1 -11q0 -5 -1 -10v0z" />
    <glyph glyph-name="p" unicode="p" horiz-adv-x="488" 
d="M73 -52q0 23 2 47l4 46q3 23 3 46v46q0 12 1 24q0 12 1 24q1 6 0 3q0 -2 -1 3q0 8 1 17q0 9 1 17q1 7 1 14q1 7 1 14q0 31 2 61q2 31 2 61v31q0 -14 0 -11v11v5q1 3 3 3t5 -3q2 -4 3 -5q6 -5 6 -10v-12q0 -10 -1 -20v-19q0 -3 -1 -10v-8q1 -1 1 1l2 2l2 4l-1 -1l1 1
q3 4 5 8q2 3 5 6q7 10 17 20q11 10 21 16q19 10 42 19q23 8 45 11l16 2t16 1q4 -1 7 0h7q7 -1 15 -3q7 -2 14 -5q6 -2 10 -7l8 -8q13 -13 24 -27q11 -15 18 -31q8 -14 18 -27t13 -29q3 -27 -1 -54q2 25 2 20t-2 -20q-1 -10 -3 -19q-3 -8 -4 -18q-1 -9 -3 -19q-1 -11 -5 -19
q-3 -8 -7 -15t-7 -15q-1 -3 -4 -6q-2 -3 -5 -5q-2 -3 -5 -7q-2 -3 -5 -6q-6 -7 -13 -14q-6 -7 -13 -13q-7 -7 -14 -13q6 6 5 4q-1 -1 -5 -4q-19 -17 -46 -26q-27 -8 -52 -5q-11 1 -22 6t-20 12q-4 4 -8 7q-5 3 -9 6q-10 9 -18 19q-9 10 -15 22q-5 9 -6 19q-1 11 1 21v7t3 6
q1 0 1 -1q1 0 1 -1q3 -2 6 -5q4 -4 6 -7q1 -3 0 -9q-1 -5 -1 -9q-1 -11 2 -21q2 -10 8 -19q3 -5 7 -8q3 -4 8 -7q36 -28 77 -21q41 8 73 37q18 16 34 36q15 19 25 42q5 11 7 24t4 25q1 10 3 20q3 10 4 20q1 11 1 22q0 12 -2 23q-2 13 -10 25l-16 22q-7 13 -15 26
q-7 14 -17 25q-5 4 -12 6q-8 1 -14 2q-8 1 -17 3q8 -2 6 -1q-1 0 -6 1q-9 0 -19 -1l-18 -2q-17 -2 -32 -8q-15 -5 -29 -12q-8 -3 -15 -6q-8 -3 -15 -8q-5 -3 -10 -8l-9 -9q-7 -7 -14 -15q-7 -9 -10 -18q-1 -3 -2 -10q-2 -7 -4 -8q-1 1 -4 5q-4 4 -6 5q0 1 -1 1v0
q-1 -1 -1 -7q1 -7 1 -9q-2 -16 -2 -32q0 -15 -1 -31q-3 -58 -4 -115q0 -58 -6 -115q-4 -37 -3 -74q0 35 0 28v-28q-1 -10 0 -20q0 -10 2 -20q2 -7 3 -14q2 -6 5 -12q2 -6 4 -11q3 -6 4 -11q0 -3 -1 -10q0 -7 -2 -8q-2 0 -4 3t-3 4l-3 3q-2 1 -3 3q-2 4 -2 9q1 4 0 9
q-3 11 -8 22t-7 23q-1 15 -2 29v29v0z" />
    <glyph glyph-name="q" unicode="q" horiz-adv-x="438" 
d="M38 204q2 7 3 15q0 7 1 15q2 14 7 28l12 26q5 10 15 21l19 19q20 20 48 38q28 17 56 25q12 2 26 2q13 0 25 -1l10 -2l10 -2q16 -3 32 -7t29 -15t24 -23q-11 11 -9 9q3 -2 9 -9l4 -4q2 -3 4 -5q0 -1 1 -3q1 -1 2 -1v7v7v22l-2 22q0 3 -1 9q0 7 3 7q2 -1 4 -4q3 -3 4 -5
q1 -1 3 -2t2 -2q1 -3 1 -6q1 -4 1 -6q1 -9 1 -18q1 -9 1 -18q-1 -44 -2 -89q1 42 1 34q0 -9 -1 -34q0 -4 1 -9q0 -5 -1 -9q-2 -22 -4 -43q-1 -22 -4 -43q-1 -18 -3 -35q-1 -18 -3 -35q-3 -22 -4 -46q-2 -23 0 -45q1 -4 0 -8v-9q1 -8 3 -16l2 -16t4 -16q2 -8 3 -17
q2 -7 3 -15q2 -7 5 -14q6 -14 11 -25q5 -12 4 -27q0 -2 1 -3t0 -3q0 -1 -1 -1q-1 -1 -2 0q-3 1 -7 6q-5 4 -7 7q-1 4 -1 10q1 6 0 10q0 5 -3 10q-2 5 -4 9q-7 17 -12 35q-5 17 -8 35q-2 12 -4 23q-3 12 -3 24q-1 20 -1 40q-1 21 1 41l10 90q-5 -42 -4 -33q2 8 4 33
q2 14 3 28t3 27v16t1 16q1 13 1 26v26q1 5 1 10q0 6 -1 10l-3 3l-2 2q-9 19 -22 29q-14 10 -34 15q-22 6 -48 8q-26 3 -48 -2q-13 -4 -26 -10q-12 -6 -24 -13q-8 -5 -17 -10q-8 -5 -16 -11q-6 -5 -12 -11t-11 -12q-8 -7 -14 -15q-7 -8 -12 -17q-17 -34 -20 -74
q-4 -39 11 -76q8 -21 23 -46q14 -25 36 -36q14 -5 29 -5q16 0 30 2q8 1 16 3t16 3q10 0 21 2q11 1 21 5q11 5 21 11t21 11q1 1 1 2q1 1 2 1q1 1 2 0h-1h1q3 -2 6 -6l6 -6l1 -1v0q0 -2 -3 -4q-2 -2 -4 -3l-12 -6l-12 -6l-6 -4l-6 -4q-14 -5 -28 -7q-15 -2 -29 -4
q-15 -2 -31 -4t-32 -1q-19 3 -34 14q-14 12 -26 26q-27 29 -42 66q-16 37 -16 77v0z" />
    <glyph glyph-name="r" unicode="r" horiz-adv-x="510" 
d="M113 377q3 4 5 2l5 -5q5 -5 9 -11q3 -5 5 -12q3 -12 3 -24q1 -12 2 -25q0 -6 1 -12q-1 6 -1 5q1 -1 1 -5v-2q-1 -1 0 -1t1 2v4t1 5q0 3 1 6l8 14q4 6 9 13q7 11 17 19q10 9 20 17q9 8 19 15q10 8 21 12q15 5 32 8q16 3 32 5q2 1 5 2q3 0 5 1q9 1 19 1t18 -3q12 -6 21 -16
q8 -10 15 -21l6 -9t1 -8q-2 0 -4 3q-3 3 -4 5q-6 7 -13 18q-8 10 -16 13q-14 3 -28 0q-15 -3 -29 -5q-13 -2 -26 -5q-14 -2 -26 -7q-10 -5 -19 -12q-10 -7 -18 -14q-15 -13 -25 -24q-11 -11 -20 -28q-4 -8 -6 -17q-2 -10 -2 -19q-1 -2 0 -6q0 -4 -1 -6q-2 -4 -5 0q-4 3 -6 5
v1h-1q-1 -2 0 -9t1 -10q0 -26 -2 -51q2 24 1 19q0 -5 -1 -19q-2 -13 -3 -26l-2 -26q-1 -6 -2 -11l-2 -12q-2 -15 -2 -30q0 -16 2 -31q1 -11 3 -22q3 -11 7 -21q1 -4 3 -7l2 -8l2 -2q1 0 1 -2q0 -1 -1 -3q-1 -1 -3 0q-8 5 -12 14q-5 8 -7 17l-6 16q-3 9 -4 17q-1 10 -1 19
q-1 10 -1 20q-2 20 1 41q3 22 6 42q3 31 4 63q1 31 -3 63q-1 20 -2 41q0 21 -11 39v0z" />
    <glyph glyph-name="s" unicode="s" horiz-adv-x="444" 
d="M79 314q5 17 18 30q12 13 27 22q27 18 56 31q-27 -13 -21 -11q5 3 21 11q6 2 12 3t12 3q18 7 38 9q21 2 39 -3q14 -4 28 -9q-13 5 -10 4q2 -1 10 -4l12 -4q7 -2 12 -5t9 -8q4 -4 8 -9q3 -2 9 -8q6 -7 5 -10q-2 -2 -4 0t-3 4q-4 4 -7 8q-4 5 -8 7q-7 4 -15 6q-7 2 -15 5
q-7 3 -15 6q-8 2 -15 3q-38 3 -73 -10t-67 -31q-11 -6 -24 -17q-12 -11 -18 -22q-9 -27 10 -47q20 -19 43 -29q8 -4 16 -9q9 -5 18 -7q16 -4 34 -5q17 -1 34 0h19t19 -2q9 -3 15 -9q6 -5 12 -11q18 -19 23 -40q4 -20 6 -45q1 -8 1 -16q1 -8 1 -16q0 -6 -1 -13q-1 -6 -4 -12
t-7 -10q-5 -4 -9 -8q-16 -14 -42 -20q-25 -6 -46 -8q-14 -2 -27 -4q13 2 10 2q-2 -1 -10 -2q-12 -1 -25 -2t-25 2q-21 5 -37 19q-17 13 -19 35q0 8 6 3q5 -6 8 -9q3 -4 4 -10q0 -5 2 -10q2 -3 6 -5t7 -3q24 -7 49 -5q26 2 50 7q21 3 43 9t38 21q8 8 10 18t1 20q1 20 -1 41
q-1 21 -8 40l-4 10q-2 4 -5 8q-3 5 -11 6q-7 1 -12 1q-14 1 -29 1q-14 -1 -28 0l-22 2q-12 1 -22 5q-8 4 -17 8q-8 5 -16 9l-4 2q-2 2 -4 3q-5 2 -10 5t-9 7q-10 9 -20 20q9 -10 7 -8q-1 2 -7 8q-11 10 -21 23q-10 12 -11 29v0z" />
    <glyph glyph-name="t" unicode="t" 
d="M73 382q5 7 15 7h17q11 1 22 3t22 3q6 1 11 1q6 0 11 1h10h10q2 -1 4 -1q1 0 3 1q1 1 1 8v10v30q0 14 -3 29l-4 12t-3 12v3q0 3 2 3q1 0 2 -1q1 -2 2 -2q2 -3 6 -6t5 -6q1 -8 0 -4q-1 3 0 -2l4 -12q3 -5 4 -11q1 -10 1 -19q1 -10 1 -19v-20q0 9 0 7v-7v-3q0 -2 1 -2
q6 -2 17 -1h18q12 -1 25 -1q12 0 25 1q15 1 31 1q16 1 31 3q5 0 15 1t14 0l3 -3t3 -4q2 -1 4 -3q3 -2 3 -4q0 -3 -4 -3h-6q-14 0 -28 -2q13 1 10 1q-2 0 -10 -1q-12 -1 -23 -1q-12 0 -23 -1q-18 -2 -35 -2q-18 0 -35 2h-13h-14h-5q-4 0 -5 -2q-2 -3 -1 -10v-11v-20
q0 -9 -1 -19q-1 -7 -1 -14v-15q-3 -30 -3 -66t3 -66q1 -7 3 -14q2 -6 5 -12q1 -3 1 -6q0 -2 1 -5q4 -8 7 -17t6 -17l4 -6q2 -4 3 -7q6 -11 13 -23t16 -22q18 -16 44 -17q27 -1 49 2q4 1 5 4q2 3 4 4q1 0 2 -1h-1h1l7 -7t6 -7q-1 -5 -7 -7t-10 -3l-26 -2t-26 2l-12 2
q-6 2 -11 4q-9 5 -16 12q-7 6 -13 13q-18 18 -31 39t-23 44q-5 13 -10 30q-6 17 -7 30q-1 11 -1 22q0 12 -1 23q-2 11 -2 24t2 24v18v19q2 14 2 28q1 15 1 29q0 5 1 11t0 10q-1 2 -4 2h-5q-13 0 -25 -2q12 1 9 1q-2 0 -9 -1l-54 -6q25 3 20 3q-5 -1 -20 -3h-8h-8l-4 -2
t-4 -1q-2 1 -6 6t-7 7v0z" />
    <glyph glyph-name="u" unicode="u" horiz-adv-x="472" 
d="M77 364q1 7 2 13q0 7 3 13q0 1 2 4q3 2 4 1q2 -1 7 -7q5 -5 6 -7q0 -1 -2 -3q-1 -2 -2 -3q-1 -3 -2 -7t-1 -7q-1 -14 1 -28t3 -29l2 -8l2 -8q2 -13 5 -25t5 -25q4 -28 8 -57q3 -29 12 -57q4 -11 10 -22l10 -22q6 -15 13 -30q7 -16 19 -28q3 -2 5 -5l6 -4q8 -3 16 -5
t16 -3q19 -1 36 11q17 11 30 24q18 17 34 37q15 20 24 45q6 15 6 34q1 18 2 35q0 14 2 27q2 14 3 28q3 20 6 41q2 21 5 42q0 5 1 11q0 5 1 10v6q-1 3 1 5q1 1 2 1h-1h1h1v-1q3 -3 7 -6t5 -6q2 -4 1 -11q-1 -6 -2 -11q-3 -24 -5 -48q2 23 2 18q-1 -4 -2 -18q-2 -19 -5 -39
q-2 -19 -5 -39v-11q0 -5 -1 -11q0 -1 -1 -3v-3q2 -3 7 -5q4 -3 5 -6q1 -2 0 -4q-1 -3 -1 -5q-1 -8 -1 -17t-1 -18q-1 -12 -1 -25t-2 -25q-1 -10 -2 -21t0 -20q0 -6 1 -13q1 -6 4 -12q2 -2 4 -5l4 -4l1 -1v-1t-1 -1q-1 -1 -2 -1q-3 1 -6 5t-6 6q-10 11 -13 23q-4 13 -2 27v15
q0 7 1 14q1 9 1 19q0 -9 0 -7v7q1 1 1 3q1 1 0 3l-1 -1v-1q-1 -2 -2 -5l1 2q-1 0 -1 -2q-2 -6 -6 -11q3 5 3 4q-1 -1 -3 -4l-12 -18t-13 -17l-26 -26t-28 -23q-5 -4 -10 -7q-6 -4 -12 -5q-6 -2 -13 -1q-7 0 -14 1q-4 0 -8 1q-5 1 -9 2q-6 3 -11 7l-9 9q-8 7 -15 14
q-8 6 -14 14q-7 10 -13 20q-5 11 -9 22q-5 11 -11 22q-5 12 -10 23l-4 10q-1 6 -3 10q-3 8 -4 17q-2 9 -3 17l-12 78q6 -37 5 -29q-2 7 -5 29q-4 27 -10 54q-7 27 -7 54v0z" />
    <glyph glyph-name="v" unicode="v" horiz-adv-x="464" 
d="M60 384q0 1 1 3q1 1 2 1t1 -1t1 -1l6 -6q4 -2 6 -6q1 -2 3 -9t3 -11q3 -4 7 -8t7 -8q3 -6 6 -13q3 -6 5 -13q2 -3 3 -7q0 -4 2 -8q6 -15 10 -30q-4 14 -3 11q1 -2 3 -11t4 -17q2 -9 5 -17q2 -5 3 -10q1 -6 3 -11q14 -31 26 -62q13 -32 26 -63q6 -13 11 -27t11 -28
q1 -4 4 -9q3 -6 7 -7q5 0 8 6l5 10l12 32q5 16 12 31q4 9 7 19q2 9 6 18q7 15 13 31q6 15 13 30q18 44 37 87q-18 -41 -14 -33t14 33l10 20q5 9 10 20q6 13 10 26q5 13 11 26q1 3 6 9q4 5 7 5q2 -1 4 -3t3 -4q1 -1 4 -3q2 -2 2 -4q1 -2 -3 -4q-3 -1 -5 -3q-2 -4 -4 -9
q-2 -6 -3 -10q-2 -9 -6 -17l-8 -16q-9 -20 -18 -39l-18 -38l-22 -52q-10 -26 -21 -52q-8 -18 -14 -36q-6 -19 -14 -37q-5 -12 -8 -24q-4 -12 -11 -23q-2 -3 -5 -7t-7 -5q-5 -1 -11 5q-7 6 -10 10q-4 4 -9 8q5 -4 4 -3t-4 3q-9 11 -15 29t-11 31q-16 36 -30 72q-15 37 -30 73
q-8 19 -12 41q-4 21 -12 41q-3 9 -6 17q-4 8 -7 17q-2 4 -5 8t-7 7q-4 5 -7 12q-2 7 -4 13v0z" />
    <glyph glyph-name="w" unicode="w" horiz-adv-x="491" 
d="M21 382l1 2q1 1 2 1l6 -6q6 -5 7 -7q3 -4 5 -9q2 -6 3 -10l8 -16q4 -7 8 -15q2 -5 3 -11t2 -11q0 -6 2 -11q1 -6 2 -11q1 -9 3 -18l2 -18q4 -38 10 -76t15 -76q4 -14 9 -27q5 -14 9 -28q1 -5 3 -9t3 -8q1 -3 2 -5q0 -3 2 -5q0 -1 1 -1q-1 0 0 0v0q2 3 3 12q1 10 2 14
q2 16 5 33t5 34q0 6 2 12t3 12q2 19 7 36l8 36q5 31 13 62q7 31 19 59q4 10 7 19q2 10 5 20q5 12 9 24q-4 -11 -3 -9t3 9q1 4 4 11q3 8 7 8q2 -1 7 -6l7 -7q3 -3 5 -7q1 -4 3 -8q4 -10 8 -21t6 -22q2 -17 6 -34t7 -34q4 -40 15 -81q10 -41 26 -78q6 -15 11 -32q5 -16 12 -32
q1 -4 3 -8t5 -7q0 -1 1 -2q1 -2 2 -2q1 1 1 3l1 2q2 4 3 8l2 8q5 17 9 34q-4 -16 -3 -13t3 13q1 6 3 12q1 6 3 12q4 8 6 18l4 18q2 10 5 19t5 18q8 34 17 67q-8 -31 -6 -25q1 6 6 25l4 16l4 16q2 17 6 33q4 17 8 33q2 10 5 19q2 10 4 19q0 6 1 11q1 6 4 11q1 3 4 9q3 7 5 8
q2 0 8 -6q5 -6 6 -9l-2 -4q-2 -2 -3 -4q-3 -6 -4 -13q-2 -7 -3 -13q-5 -19 -9 -37q-4 -19 -7 -38q-1 -7 -3 -13q-2 -7 -3 -14q-11 -50 -24 -100q-14 -50 -27 -100q-3 -11 -6 -24t-7 -23q-1 -3 -2 -7q-2 -5 -5 -6q-3 1 -9 6q-5 5 -7 8q-13 13 -18 22t-12 25l-8 24
q-4 11 -9 23q-1 2 -1 4t-1 4q-16 37 -25 78q10 -38 7 -30q-2 7 -7 30q-2 5 -3 10q-2 6 -3 11q-1 14 -4 29q-2 14 -6 28q-4 17 -6 34q-3 17 -7 34q-1 6 -3 13q-2 6 -4 13q0 1 -1 4t-2 3q-3 -3 -4 -9q-1 -5 -2 -9q-5 -13 -9 -26q-3 -14 -9 -27q-12 -29 -20 -60q-7 -32 -13 -63
q-5 -25 -11 -50t-9 -50q-1 -10 -3 -19t-3 -19q-1 -9 -2 -19t-3 -19l-3 -12t-6 -9q-2 0 -3 1q-1 2 -2 3q-4 3 -7 6q-4 4 -6 8q-4 6 -7 13q-4 6 -6 14q-4 11 -8 24q-3 13 -8 24q-6 15 -10 31t-7 32q-1 11 -4 21q-2 11 -4 21q-2 21 -5 42t-5 41q-2 16 -5 37q-4 22 -9 36
q-3 7 -8 14q-4 7 -7 15q-2 4 -3 8l-4 8v0z" />
    <glyph glyph-name="x" unicode="x" 
d="M88 400q3 4 5 1l6 -6q7 -8 13 -16t12 -17t10 -19q5 -10 10 -21q3 -6 7 -12q5 -6 8 -12q7 -14 16 -27q10 -12 21 -24q5 -5 10 -11l10 -12q0 -1 2 -3q1 -3 2 -3l1 1v1q4 5 7 10q-3 -5 -2 -4q0 1 2 4q5 9 11 18q5 8 11 16q23 31 44 62q22 31 48 57l12 12t12 11q2 2 6 5t6 3
q2 -1 8 -7q5 -6 5 -8q-2 -3 -7 -6q-6 -3 -9 -5l-12 -12t-11 -12q-8 -9 -16 -19q-8 -9 -16 -19q-7 -10 -13 -20q-7 -10 -14 -19q-9 -10 -17 -21q-7 -11 -15 -22q-5 -8 -11 -16l-10 -16q-1 -2 -3 -5q-3 -3 -3 -5t4 -7t6 -7q4 -4 9 -13q5 -8 7 -14q4 -8 9 -16t9 -16
q8 -20 20 -38t27 -32q10 -9 23 -12q14 -3 22 -10q1 -1 6 -5q4 -4 4 -5q-2 -3 -9 -1q-8 3 -11 4q-4 1 -7 2q-4 2 -8 3q-8 4 -17 14q-10 9 -16 16q-18 19 -32 41t-26 46q-3 7 -7 14q-4 6 -8 14q-1 3 -4 7q-2 5 -5 7q-1 1 -3 -2t-2 -5q-4 -6 -9 -12q-5 -7 -8 -14q-4 -8 -10 -15
l-10 -16q-11 -22 -27 -42q-15 -20 -29 -41q-5 -7 -8 -13q-3 -7 -5 -15q0 -2 -1 -8q0 -5 -3 -5q-2 1 -3 3l-2 2q-2 2 -5 4q-2 3 -3 5q-2 4 -1 7q1 4 2 7q2 8 7 16q4 8 9 15q6 9 12 17q7 9 14 17q5 6 9 13l8 14q6 11 13 21l14 22l10 16q6 8 11 16q1 3 3 6q2 2 3 5q0 3 -4 7
q-3 4 -5 6l-12 14q-5 7 -11 13q-13 14 -25 30q-12 15 -20 32q-4 8 -9 15t-8 15l-10 20t-11 19q-3 4 -6 9t-7 8v0z" />
    <glyph glyph-name="y" unicode="y" horiz-adv-x="464" 
d="M59 -152q2 3 5 2t6 -1q5 -1 10 -1q6 1 11 1q14 0 27 3q14 3 27 6q5 1 12 4t11 7q10 16 15 34t12 36q13 29 25 58q-12 -27 -9 -22q2 6 9 22q4 8 9 17l8 16q9 21 16 41q8 20 17 40l6 16q2 8 5 16q12 28 22 56t21 56q7 16 18 30q10 15 18 31q5 12 10 26q6 15 12 25q1 3 4 8
q3 6 5 6q1 0 3 -2q1 -2 2 -3q2 -2 5 -4t4 -4q0 -2 -2 -5q-2 -2 -3 -4q-5 -12 -10 -23q5 11 4 9q-1 -3 -4 -9q-7 -17 -14 -33q7 15 5 12q-1 -3 -5 -12q-3 -7 -8 -14q-5 -6 -9 -13q-8 -16 -16 -31q-8 -14 -14 -32q-11 -32 -24 -63q12 29 9 23q-2 -5 -9 -23q-6 -14 -11 -29
t-11 -30l-24 -58q-13 -29 -27 -58q-4 -9 -7 -18q-4 -9 -7 -18l-6 -12t-6 -13q-3 -10 -5 -21q-3 -10 -7 -20q-3 -6 -7 -12q-3 -5 -8 -10q-14 -9 -36 -14t-39 -5q-15 -1 -25 1t-20 15v0zM69 412q0 1 1 2t2 1q2 -1 8 -7q5 -7 6 -9q2 -15 9 -30q6 -14 13 -29q6 -15 11 -30
t11 -30q10 -24 21 -47l20 -46q6 -15 11 -30q5 -14 11 -29q8 -18 15 -38q-7 18 -5 15q2 -4 5 -15q4 -11 8 -23q3 -12 6 -23q1 -3 2 -8q2 -6 -1 -7q-1 0 -8 6q-6 6 -7 8q-4 8 -5 18q-2 10 -5 19l-12 38q6 -18 4 -14q-1 3 -4 14l-4 8t-3 8l-8 20q-3 10 -7 19q-20 48 -41 96
q19 -45 15 -36t-15 36q-7 16 -13 32q-6 17 -12 33q-13 29 -25 58q12 -27 9 -21q-2 5 -9 21q-2 5 -3 10q0 5 -1 10v0z" />
    <glyph glyph-name="z" unicode="z" horiz-adv-x="482" 
d="M73 22q3 4 7 8t8 7q4 4 8 10q3 5 7 9q2 2 4 6l4 6q4 7 9 14t10 13q3 3 4 6q2 4 4 6q10 11 19 23t19 24q2 2 3 4q2 3 4 5l12 16q6 9 12 16q17 20 32 42l32 42q16 20 30 41q15 22 29 44q5 7 10 13q6 6 11 12q2 3 5 5q2 3 5 6l1 1q1 2 0 2q-4 2 -10 1q-5 0 -9 -1
q-10 -1 -21 -1q-10 0 -20 -1q-27 -3 -53 -5q-27 -3 -54 -5q-12 -2 -24 -2q-12 -1 -24 -4q-9 -2 -19 -2q-9 -1 -18 -5q-2 0 -5 -3q-4 -2 -5 -1q-2 1 -7 7q-5 5 -5 6q1 3 5 5t7 3q9 4 26 6t28 3q27 3 54 5q26 3 53 6q17 2 34 3q17 2 34 2h19t19 -2q2 -1 4 -4l4 -4q3 -2 5 -5
q2 -2 3 -5q0 -5 -4 -10t-8 -9q-4 -5 -9 -10t-10 -11q-6 -7 -11 -15q-5 -9 -10 -17q-9 -13 -18 -27q-9 -13 -20 -25q-3 -4 -6 -9t-6 -9q-3 -2 -4 -6l-4 -6q-7 -7 -12 -14q-6 -8 -12 -15q-9 -9 -15 -20q-7 -11 -16 -20q-1 -2 -3 -5q-1 -3 -3 -5q-7 -7 -12 -15q-6 -9 -12 -15
q-4 -5 -7 -10t-7 -9q-3 -2 -5 -5q-3 -3 -5 -6q-3 -5 -7 -9q-3 -5 -7 -9t-7 -9t-5 -9q-4 -6 -9 -12l-8 -12q-3 -5 -7 -10q-3 -5 -7 -9l-7 -7l3 3l-3 -3l-1 -1v-1h1q1 1 2 1q7 0 15 1q-7 0 -6 0h6l22 2q11 0 21 1q8 1 16 0h15q20 2 41 0t41 -4q16 -1 31 0t30 0q7 -1 13 -1
q7 1 13 1q11 3 21 5q10 1 19 -7q2 -1 5 -4q3 -2 4 -4q0 -3 -3 -3q-2 0 -4 1h-13q-8 -1 -14 -3q-9 -3 -18 -2q-9 0 -18 1q-18 0 -35 -1q-17 0 -35 2q-30 4 -62 4q-31 0 -62 -3q-12 -2 -28 -3q-15 -2 -27 2q-3 2 -9 8q-5 6 -8 9v0z" />
    <glyph glyph-name="section" unicode="&#xa7;" 
d="M101 337q4 13 16 28t21 25l10 12q4 7 10 11q4 2 13 4q10 1 13 0q3 -2 8 -7q4 -5 7 -8q7 -7 14 -13q-7 6 -5 5q1 -2 5 -5q0 -1 2 -3q2 -1 3 -2q0 -3 -3 -3q-3 -1 -4 -1q-6 1 -13 0q-6 -1 -11 -6q-4 -4 -8 -10l-8 -10q-10 -11 -21 -25t-13 -28v-9q1 -5 2 -9q4 -24 25 -36
q20 -12 40 -23q14 -9 28 -19q-13 9 -11 7q3 -1 11 -7l10 -6q-5 3 -4 2q1 0 4 -2q1 -1 3 -2l2 -1q-1 3 -6 6q-4 3 -4 6q1 2 3 2q3 -1 5 -1q6 0 11 2q6 1 11 3q15 6 31 13t29 18q3 3 7 6q3 3 5 8q2 4 1 9q0 5 -1 9q-5 18 -12 34q6 -16 5 -12q-1 3 -5 12q-5 11 -11 21
q-5 11 -13 20q-5 5 -12 9q-6 5 -12 9q-8 8 -18 14q-9 6 -19 10q-8 3 -15 8q-8 5 -15 8q-18 8 -34 19q-17 11 -30 24q-10 9 -21 20q-12 11 -17 22q-3 5 -5 9q-3 5 -3 10q0 3 1 6q2 3 4 5q5 9 14 16q8 7 17 11q6 2 11 6q6 4 12 7q5 2 11 3q6 0 11 2q7 1 14 3t13 3q21 2 41 1
t40 -1h13t12 -2l2 -2l3 -3q8 -8 16 -17q-7 8 -6 6q2 -1 6 -6q2 -1 7 -6q5 -4 5 -5q0 -4 -6 -3q-7 0 -9 1q-13 0 -26 1t-26 1q-30 0 -60 -5q-30 -6 -56 -23q-8 -5 -18 -13q-10 -9 -10 -19q2 -9 8 -14q6 -4 13 -8q17 -11 34 -18q18 -8 34 -18q22 -15 42 -33q21 -17 40 -36
q15 -15 27 -30q13 -15 22 -34q6 -13 13 -29q7 -15 6 -29q-1 -7 -5 -11l-9 -9q-10 -9 -22 -15q-13 -7 -25 -12q-6 -2 -13 -5q-6 -3 -13 -5q-3 -1 -10 -1q-6 -1 -8 -1q-1 -1 0 -2l2 -2q4 -4 9 -8q-5 4 -4 3q1 0 4 -3q10 -11 21 -22q-10 11 -8 9t8 -9q13 -13 22 -30
q8 -16 10 -35q1 -8 0 -17q0 -9 -5 -17q-6 -8 -16 -16q-9 -7 -19 -12q-3 -1 -5 -3q-3 -2 -5 -3q-11 -5 -22 -9q11 4 8 3q-2 -1 -8 -3q-13 -5 -28 -4q-14 1 -28 3q-7 0 -13 1l-12 4q-5 2 -9 6t-7 8q-7 7 -15 14l-14 14q-5 7 -7 14t-1 15q-1 2 0 5q0 4 3 5q2 -1 4 -4l4 -4
q9 -8 17 -17q-8 8 -6 6l6 -6l4 -4q3 -2 4 -4q1 -3 0 -8q-2 -4 0 -7q1 -1 5 -2h6q8 -1 17 -2t17 0q20 2 32 8q13 6 29 15q6 3 12 8q6 4 10 10q8 13 7 29t-6 30q-3 8 -9 16q-5 8 -11 15q-4 4 -9 7q-6 3 -11 6q-11 7 -22 15q-12 7 -24 12q-20 11 -38 28l-34 34q-9 8 -18 18
q-9 9 -14 20q-3 8 -4 18v18v0z" />
    <glyph glyph-name="uni2010" unicode="&#x2010;" horiz-adv-x="230" 
d="M8 240q2 3 6 2h8q11 0 22 -1l22 -2q7 -1 14 0q7 0 14 1t14 1t14 1q17 2 34 2q-16 -1 -13 0h13q7 0 16 1q9 0 16 -2q5 -3 10 -8q5 -6 9 -10q3 -3 8 -7t7 -8v-2q-1 -2 -2 -2q-3 0 -9 1q-5 1 -9 1h-26q-14 -1 -27 -3q-21 -2 -40 -2q-20 1 -41 3q-6 0 -14 -1q-7 -1 -13 1
q-2 1 -5 5q-2 3 -5 5q-5 6 -12 11q-6 6 -11 13v0z" />
    <glyph glyph-name="endash" unicode="&#x2013;" horiz-adv-x="464" 
d="M55 230q3 4 10 3q8 -1 13 -2q6 -1 12 0q6 0 12 -1q18 -2 35 -2q-16 1 -13 0h13h26q14 0 26 2h17q9 -1 17 0q7 0 15 1q7 0 14 -1q20 -2 39 -4q-18 2 -14 1q3 0 14 -1q14 -2 28 -5q15 -2 27 -8q4 -1 9 -1t9 1q2 1 6 4q3 2 5 2q2 -1 4 -4q3 -3 4 -5l20 -20q-9 10 -7 8t7 -8
q1 -1 3 -2l3 -3q0 -1 -2 -3q-2 -1 -4 -1q-5 -3 -10 -4q-5 -2 -10 -1q-18 4 -35 8t-35 6q-7 1 -13 2q-7 1 -14 1q-13 1 -26 1q-14 0 -27 -1q-5 -1 -10 0h-10q-18 -2 -37 -2q-18 0 -36 2q-6 1 -12 0h-11l-8 2h-7h-7t-7 1q-4 2 -7 6t-6 7q-5 5 -11 10q-5 5 -9 11v0z" />
    <glyph glyph-name="emdash" unicode="&#x2014;" horiz-adv-x="506" 
d="M-8 235q3 3 14 2q10 0 15 -1q21 0 42 -1t42 -1h12q7 -1 13 -2h9h10q20 -3 40 -4t40 -3q19 -2 37 -5q18 -2 37 -4q16 -1 33 -1q18 0 33 2q13 1 27 3l26 4q9 1 22 3q12 2 21 -1q4 -3 10 -10t10 -10q2 -3 7 -7q5 -5 6 -7q0 -3 -3 -2h-5h-18q-10 -1 -19 -3q-14 -3 -29 -4
t-30 -3h-7h-6q-8 -1 -16 0h-17q-11 0 -23 1q-11 0 -23 2q-24 3 -49 5t-50 5q-45 5 -91 6q43 -2 35 -2q-9 1 -35 2q-29 1 -59 1q28 -1 23 0h-23h-14t-14 1l-5 5q-2 3 -5 5q-5 6 -12 12q-6 5 -11 12v0z" />
    <glyph glyph-name="quoteleft" unicode="&#x2018;" horiz-adv-x="473" 
d="M178 391q3 11 8 22l10 20q13 33 29 65q-14 -30 -11 -24q2 6 11 24q3 6 7 13q4 6 7 13t7 13t7 13q1 3 3 7q1 5 3 7q3 3 5 1q2 -1 4 -4l20 -20q-9 10 -8 8l8 -8l4 -4q4 -3 4 -4q0 -2 -2 -4q-1 -2 -1 -3q-4 -7 -7 -13q-4 -7 -7 -13q-9 -20 -20 -40q-10 -19 -19 -39
q-7 -16 -14 -33q6 16 5 13t-5 -13q-3 -5 -5 -10q-3 -5 -5 -10t-2 -11v-11q1 -1 1 -3t-2 -3q-2 0 -6 5l-6 6q-5 5 -12 11q-6 5 -10 10q-2 4 -2 10q1 5 1 9v0z" />
    <glyph glyph-name="quoteright" unicode="&#x2019;" horiz-adv-x="436" 
d="M174 389q3 7 8 13q6 6 10 13q5 8 9 18l6 20q5 13 8 26q4 14 5 28q3 19 5 39q-2 -19 -2 -15q1 4 2 15v5q0 4 2 5t5 -3t5 -6q5 -5 15 -14t10 -16l-4 -28q-1 -15 -3 -29q-1 -11 -6 -23q-4 -12 -9 -23q-2 -6 -4 -13t-5 -14l-8 -12q-5 -5 -9 -11q-1 -2 -2 -6t-4 -5q-1 0 -4 3
l-4 4q-6 6 -15 14q-8 8 -11 15v0z" />
    <glyph glyph-name="quotedblleft" unicode="&#x201c;" horiz-adv-x="490" 
d="M118 385q2 9 2 18v18q2 23 4 47t10 46q2 6 5 11q2 6 4 11v6q1 3 3 4q2 0 4 -2q3 -3 4 -5q9 -9 19 -18q-9 8 -7 7q1 -2 7 -7l4 -4q3 -3 3 -5q1 -3 -1 -6q-1 -4 -2 -6q-2 -6 -5 -13l-4 -12q-5 -21 -8 -43q-3 -21 -3 -43q0 -8 -1 -17q-1 -8 -2 -17q0 -2 1 -4q0 -2 -1 -4
q-3 -2 -6 2q-3 3 -4 5q-6 5 -14 13q-8 7 -12 12v3v3v0zM275 420q2 6 2 12t1 12q1 11 6 22q4 10 9 20q5 14 12 30t18 27q2 2 7 5q4 3 7 3q3 1 4 -1q1 -1 2 -3q9 -8 17 -16q-8 8 -6 6q1 -2 6 -6l7 -7q5 -4 5 -7q-1 -2 -8 -5t-10 -7q-9 -13 -16 -28q-6 -15 -13 -30
q-5 -13 -8 -28q-4 -14 -5 -28v-13q1 -7 0 -11q-2 -3 -8 3q-5 5 -7 8q-4 3 -12 11q-8 7 -10 11q-1 4 0 10v10v0z" />
    <glyph glyph-name="quotedblright" unicode="&#x201d;" horiz-adv-x="413" 
d="M73 391q2 2 5 4q2 1 4 4q6 6 11 13q5 8 11 15q6 6 12 13q6 8 10 16q2 5 3 11q1 7 3 13q2 8 3 17q0 9 1 18l2 10q2 5 2 10q0 2 1 8q1 7 4 7q1 0 2 -2l3 -3q8 -8 16 -17q-7 8 -6 6q2 -1 6 -6q2 -2 7 -6q4 -3 5 -5q1 -3 0 -6l-2 -6q0 -6 -2 -13q-1 -6 -2 -13q-1 -14 -3 -28
q-2 -15 -8 -28q-3 -8 -9 -15l-12 -14t-12 -15l-12 -14q-2 -1 -4 -5q-3 -3 -5 -3q-2 1 -4 4q-3 3 -4 5q-6 6 -12 13q-7 7 -14 12v0zM265 386q3 5 8 9q6 5 10 9q11 12 15 28q4 17 5 32q1 12 0 25q-1 12 -1 25q0 3 -1 9q0 6 3 8q2 1 5 -2q2 -3 4 -4q9 -10 18 -19q-9 9 -7 7
l7 -7l4 -4q3 -2 4 -5q1 -8 0 -16t0 -16q1 -22 -1 -45q-2 -22 -14 -41q-4 -6 -9 -11l-10 -10q-1 -1 -3 -4q-2 -2 -4 -2q-3 1 -5 5l-5 5l-12 12q-7 5 -11 12v0z" />
    <glyph glyph-name="dagger" unicode="&#x2020;" horiz-adv-x="546" 
d="M122 410q4 4 10 4q7 0 12 1q4 0 8 2q4 1 7 3q7 3 16 4q8 1 15 1h21q-10 0 -8 0h8h2q3 0 3 1q1 3 1 9q-1 7 -1 10q0 13 -1 25v25v64q0 -30 0 -24v24q0 3 2 11q1 7 6 6q2 -1 4 -4l4 -4l19 -19q-9 9 -7 7l7 -7l4 -4t3 -5q-1 -2 -2 -1h-2q0 -1 -1 -3v-2q-2 -15 -1 -31
q1 -15 1 -30v-36q0 17 0 13v-13q0 -3 -1 -7q0 -4 2 -5t5 -1t5 1h13q7 0 13 -1q12 -1 24 -1l24 -2q7 -1 15 -3l14 -4q4 -1 11 -3q7 -3 11 -2h1q0 1 1 1t3 -2q1 -2 2 -3q11 -11 22 -21q-10 10 -8 8l8 -8q1 -2 4 -4q3 -3 2 -5q-2 -3 -5 -3l-6 2l-32 8q15 -4 12 -3t-12 3
q-23 5 -47 6h-48h-10q-6 0 -11 1h-5h-5q-1 -2 -1 -8v-9q0 -12 1 -24v-24l2 -42q1 -20 3 -41q1 -6 1 -12q0 -7 1 -13l4 -48q2 -23 4 -47q4 -32 4 -64q-1 30 0 24v-24q0 -7 1 -13l2 -14q0 -2 -1 -4q0 -2 -3 -1q-2 1 -4 4t-4 5q-5 4 -14 12q-8 8 -11 13q-2 5 -2 11v11
q-1 9 -1 19q1 10 0 19q-4 32 -6 65l-6 64q-2 15 -2 30q-1 15 -2 29q-1 8 -1 15q1 8 0 15q-1 14 -1 29q0 -14 0 -11v11q0 8 -1 16q1 -8 1 -6q0 1 -1 6q0 1 1 3q0 2 -1 3t-8 0q-7 -2 -9 -2q-6 -2 -11 -4q-6 -2 -12 -3q-5 -1 -9 -1q-5 0 -10 -1h-1l-1 -1q-2 1 -5 4q-2 3 -3 5
l-13 13q-6 7 -13 12v0z" />
    <glyph glyph-name="daggerdbl" unicode="&#x2021;" horiz-adv-x="483" 
d="M74 415q4 5 17 6q12 2 19 2q12 -1 23 -2q12 -1 23 0q12 2 24 3q-11 -1 -9 -1t9 1q4 0 12 1q8 0 12 2q1 1 1 4v4v20q0 -9 0 -7v7q0 23 1 46t1 46v10q1 5 0 10q0 2 -1 4q0 3 -1 5q1 0 2 1l1 2q1 0 3 -2q1 -2 2 -3q7 -7 13 -14q-6 7 -5 6q2 -2 5 -6q4 -3 8 -7q5 -3 8 -8
q2 -4 2 -11v-13q0 -14 -1 -27v-28q0 -13 -1 -25q1 12 1 9q0 -2 -1 -9v-5q-1 -3 1 -4t6 0t6 1q6 1 12 1q7 1 13 1q14 2 29 2t30 -1q4 0 10 -1l10 -2q4 -2 8 -8q5 -6 8 -9q4 -3 10 -8t7 -9q1 -3 -2 -3q-3 1 -5 1q-9 2 -19 3q-9 1 -18 1q-19 -1 -39 -2q-19 -2 -39 -4
q-5 -1 -13 -2q-9 0 -13 -2q-3 -1 -3 -5q1 -4 1 -6v-19v-20q0 -19 1 -38t3 -38q1 -11 1 -21q0 -11 1 -21q1 -9 1 -17q0 -9 1 -18v-6v-6q1 -1 5 0h5h11q6 1 12 0q8 -1 15 -1h16q16 -2 33 -4q-16 2 -13 1q3 0 13 -1q6 0 13 -1q8 0 13 -3t10 -8q4 -6 8 -10q5 -4 11 -10
q7 -6 7 -12q0 -7 -5 -2q-5 6 -7 8q-6 1 -12 1q-6 1 -12 1q-23 3 -46 3q-22 1 -45 1q-11 0 -22 -1q11 1 8 1q-2 0 -8 -1h-3q-1 0 -3 -1q0 -1 1 -4t1 -5q1 -10 3 -20q-2 9 -1 8q0 -2 1 -8q2 -24 5 -47l4 -48v-10q-1 -6 -1 -11v-4q0 -3 -2 -4q-2 -2 -4 1t-4 4q-10 10 -20 21
q10 -10 8 -8l-8 8q-1 1 -4 3q-2 1 -3 3q-1 5 1 15q1 11 1 17q-1 15 -3 29t-3 29q-1 4 -1 14q-1 9 -3 13q-1 2 -5 1q-3 0 -6 -1q-9 0 -18 -1q-8 -1 -17 0q-15 2 -30 3q14 -1 11 -1t-11 1l-8 2q-4 2 -8 2q-3 1 -6 1t-6 1q-5 3 -11 10t-11 12q-3 2 -6 5q-4 3 -6 6q-1 4 2 4
q4 0 6 -1q6 -1 13 -2l14 -4q18 -3 37 -3q20 1 38 3q9 1 19 2q-9 -1 -7 -1q1 1 7 1h2q2 0 3 1q0 3 -1 8q-1 4 -1 7l-2 18q-1 10 -2 19q-1 15 -1 30q0 14 -1 29q-2 13 -3 27t-1 27v16q-1 8 0 15v8q1 5 0 8q-1 1 -3 0h-2q-10 -1 -19 -2q9 1 7 1t-7 -1q-12 1 -23 2q-11 0 -23 1
l-15 -3q-10 -3 -13 -2q-2 1 -5 4q-2 3 -3 4q-6 7 -13 13q-6 7 -13 12v0z" />
    <glyph glyph-name="ellipsis" unicode="&#x2026;" horiz-adv-x="493" 
d="M40 64q4 12 14 21t21 14q3 1 7 3t8 1q2 -1 3 -3l3 -3l19 -19q-9 9 -7 7q2 -1 7 -7l4 -4q4 -3 4 -4q-1 -1 -3 -2q-2 -2 -3 -2l-10 -4q-5 -1 -9 -4q-1 -1 -3 -2t-2 -3q1 -2 4 -4q3 -3 5 -4q6 -6 16 -15q9 -9 13 -16q1 -2 1 -5v-4q-3 -13 -16 -17q-12 -4 -23 2q-6 3 -11 9
t-9 11q-13 12 -23 23q-9 12 -10 31v0zM77 24q2 0 9 1q7 2 8 5q-2 1 -8 1t-8 -1l-1 -3v-3v0zM165 44q6 9 21 17t27 9q2 0 5 -1t6 -1h8t7 -1q6 -3 10 -9l9 -9l8 -8q5 -4 7 -7q1 -4 -4 -4h-5q5 -7 15 -16q11 -8 8 -20q-3 -5 -8 -8t-9 -5q-3 -2 -7 -4q-3 -2 -7 -2q-8 -1 -17 -1
q-9 1 -16 4q-11 5 -21 16t-18 19q-6 6 -12 14q-7 7 -7 17v0zM201 12q9 -4 20 -1q12 3 20 8q3 1 7 4t2 6q-2 4 -6 4q-5 0 -8 -2q-8 -2 -19 -7t-16 -12v0zM334 65q2 10 9 18q6 7 16 10q3 1 7 2t7 0q4 -3 6 -6q3 -4 6 -6l10 -10q6 -5 10 -10q1 -2 -1 -4q1 2 1 1l-1 -1
q-2 -1 -9 -2t-12 -3t-8 -7q-2 -6 -4 -11v-4q-1 -3 1 -4q1 -1 4 -1q4 1 6 1h12t11 3q6 4 10 12q3 8 -1 15t-11 12l-12 12q-2 1 -5 4q-4 4 0 6q7 1 13 -4q6 -4 10 -9q12 -11 25 -24q14 -13 17 -28q0 -3 1 -6t1 -6l-2 -4t-3 -4q-8 -13 -19 -15t-25 0h-7t-7 2q-7 3 -12 8
q-5 6 -9 11q-13 11 -23 23q-11 11 -12 29v0z" />
    <glyph glyph-name="minute" unicode="&#x2032;" horiz-adv-x="489" 
d="M219 563l1 2q1 1 2 1t4 -4l4 -4l17 -17q-8 8 -6 6q2 -1 6 -6q2 -2 5 -4t4 -4q1 -4 1 -9q-1 -5 0 -9q1 -11 2 -21q-1 10 -1 8t1 -8q3 -22 7 -45q4 -22 4 -45q0 -9 -1 -18l-2 -18q-1 -12 -2 -23q-1 -12 -2 -23q0 -2 -1 -7t-3 -5q-1 0 -4 4q-3 3 -5 4q-8 9 -16 17q8 -8 6 -6
q-2 1 -6 6q-2 2 -5 4t-4 4q-1 3 1 10q1 7 2 11q1 15 2 31q2 15 3 31q1 10 0 20q-1 11 -3 20q-3 24 -6 49q-4 24 -5 48v0z" />
    <glyph glyph-name="second" unicode="&#x2033;" horiz-adv-x="498" 
d="M132 366q1 6 1 11q0 6 1 11q1 10 2 21q-1 -10 -1 -8q1 2 1 8q1 5 1 11q-1 6 -1 12v39q0 19 2 39q0 9 1 18t3 18q0 2 1 6q1 5 3 6q2 0 4 -2q3 -3 4 -5l20 -20q-9 10 -7 8t7 -8q2 -1 4 -3t2 -4q0 -3 -1 -6q-1 -2 -1 -5q-2 -13 -4 -27q2 13 2 10q-1 -2 -2 -10q-2 -21 -1 -42
v-43q0 -14 -1 -28q-1 -13 -3 -27q0 -2 -1 -5v-4q2 -8 2 -3q-1 6 1 -2l-1 -1t-2 -1q-2 0 -4 3q-3 3 -4 5q-7 7 -15 13q-8 7 -13 15v0zM310 532q0 1 1 2t2 1t4 -4l4 -4l17 -17q-8 8 -6 6l6 -6q2 -2 5 -4t4 -4q1 -3 0 -7v-7q1 -9 0 -19q0 -10 1 -19q2 -19 3 -37q2 -19 4 -37
q1 -11 3 -22q1 -11 3 -23v-7q1 -4 2 -7q0 -1 1 -2l2 -2q0 -1 -1 -2t-2 -1q-2 1 -5 5l-5 5q-6 6 -16 15q-10 10 -12 17l-10 90t-5 90v0z" />
  </font>
</defs>
</svg>
