<?xml version="1.0" standalone="no"?>
<!DOCTYPE svg PUBLIC "-//W3C//DTD SVG 1.1//EN" "http://www.w3.org/Graphics/SVG/1.1/DTD/svg11.dtd" >
<svg xmlns="http://www.w3.org/2000/svg" xmlns:xlink="http://www.w3.org/1999/xlink" version="1.1">
<metadata>
Created by FontForge 20170731 at Wed Mar  2 12:25:01 2011
 By Aleksey,,,
</metadata>
<defs>
<font id="alphabetizedcassettetapes" horiz-adv-x="280" >
  <font-face 
    font-family="alphabetized cassette tapes"
    font-weight="400"
    font-stretch="normal"
    units-per-em="1000"
    panose-1="0 0 0 0 0 0 0 0 0 0"
    ascent="750"
    descent="-250"
    x-height="208.5"
    cap-height="604"
    bbox="-110 -184.861 461.182 647.545"
    underline-thickness="50"
    underline-position="-150"
    unicode-range="U+0020-2044"
  />
<missing-glyph horiz-adv-x="191" 
 />
    <glyph glyph-name=".notdef" horiz-adv-x="191" 
 />
    <glyph glyph-name=".null" horiz-adv-x="0" 
 />
    <glyph glyph-name="nonmarkingreturn" horiz-adv-x="333" 
 />
    <glyph glyph-name="space" unicode=" " horiz-adv-x="191" 
 />
    <glyph glyph-name="exclam" unicode="!" horiz-adv-x="143" 
d="M35 601q-3 9 -1 16t7.5 10t13 2.5t14.5 -6.5q15 -25 23.5 -64.5t13 -86.5t5 -97.5t0 -97t-2.5 -85.5t-2 -63q-2 -9 -7 -14t-11.5 -5t-12.5 4.5t-9 12.5q1 58 3.5 118.5t1 120.5t-9 119.5t-26.5 115.5zM102 24q8 -17 -3 -27t-27 0q-1 2 -2 2.5t-2 1.5q-6 9 -5 17t6 12.5
t13 4.5t16 -7z" />
    <glyph glyph-name="quotedbl" unicode="&#x22;" horiz-adv-x="164" 
d="M2 595q1 10 6.5 16t12.5 6.5t13 -4.5t8 -16q1 -36 4 -72.5t4 -73.5q-2 -9 -7 -14t-11.5 -5t-12.5 4.5t-9 12.5q-1 37 -4 73t-4 73zM71 591q1 10 6.5 16t12.5 6.5t13 -4.5t8 -16q1 -30 4 -60t4 -61q-2 -9 -7 -14t-11.5 -5t-12.5 4.5t-9 12.5q-1 30 -4 60.5t-4 60.5z" />
    <glyph glyph-name="numbersign" unicode="#" horiz-adv-x="279" 
d="M227 445q11 -1 16 -7t5 -13t-5.5 -13t-15.5 -7h-55v-8q0 -5 0.5 -14.5t1.5 -19.5t3.5 -19t7.5 -13q8 -7 8 -15t-4.5 -13t-12 -6.5t-16.5 3.5q-18 14 -23.5 43t-6.5 62h-31l3 -82q-2 -9 -7 -14t-11.5 -5t-12.5 4.5t-9 12.5l-3 84h-48q-9 3 -13.5 8.5t-4.5 12t4.5 12
t13.5 7.5h45q0 7 -0.5 14t-1.5 15q-14 -1 -27.5 0.5t-26.5 6.5l-11 22v2q5 14 14.5 16t16.5 -4q13 -3 32 -1q-3 42 -3 84q1 10 6.5 16t12.5 6.5t13 -4.5t8 -16q0 -20 0.5 -39.5t1.5 -39.5q9 3 17.5 5.5t17.5 4.5l-4 30q1 10 6.5 16t12.5 6.5t13 -4.5t8 -16l2 -23
q16 3 31.5 5t31.5 3q11 -1 16 -7t5 -13t-5.5 -13t-15.5 -7q-14 -1 -29 -3.5t-30 -6.5q1 -14 1.5 -27.5t0.5 -27.5h57zM94 480q0 -9 0.5 -18t1.5 -17h35v45q-9 -3 -18.5 -5.5t-18.5 -4.5z" />
    <glyph glyph-name="dollar" unicode="$" horiz-adv-x="200" 
d="M129 517q19 -2 21 -17t-15 -23q-11 -2 -21 -2t-21 -1q3 -39 6.5 -77.5t8.5 -77.5q15 -19 28.5 -37.5t22.5 -37.5t11 -37.5t-6 -37.5q-5 -12 -14.5 -19.5t-20.5 -13.5q5 -38 10.5 -77t1.5 -77q-4 -5 -7.5 -9.5t-8.5 -9.5q-1 -1 -2 -1t-3 -1q-16 -1 -21 11t3 22
q2 30 -1.5 60.5t-8.5 61.5l-10 -6q-8 -3 -15 -1.5t-11 7t-4 12.5t6 14l28 15v6l-15 136q-16 20 -33.5 45t-30 50t-16 47t9.5 36l5.5 4.5t13 10t15.5 10t13 5.5h2q-3 54 -3 108l40 3q0 -53 3 -105q10 1 19.5 1.5t19.5 2.5zM35 452q0 -18 7.5 -35.5t18.5 -35.5l-8 86
q-5 -2 -9 -7t-9 -8zM129 191q-2 17 -3.5 25.5t-6.5 16.5l5 -51q5 5 5 9z" />
    <glyph glyph-name="percent" unicode="%" horiz-adv-x="359" 
d="M250 582q-1 -8 -6 -13q-7 -17 -11.5 -36.5t-10.5 -37.5q-24 -78 -44.5 -155.5t-42.5 -156.5q-4 -14 -10.5 -32t-12.5 -37.5t-10.5 -39.5t-5.5 -38q-2 -9 -7 -14t-11.5 -5t-12.5 4.5t-9 12.5q3 42 16 81.5t24 78.5q14 48 26.5 96.5t25.5 96.5q6 21 13 48.5t15 57t17 56.5
t19 47l38 -10v-4zM59 619q12 -2 17 -9.5t3 -15.5q8 -1 14.5 -1.5t13.5 -2.5q29 -8 33 -27t-7 -39t-32 -36.5t-41 -18.5q-28 -3 -42 18t-14 48.5t13.5 52.5t41.5 31zM280 109q-29 4 -46.5 17t-23.5 29.5t-0.5 32.5t22.5 25q-2 8 4.5 15.5t19.5 5.5q32 -6 54 -28.5t28.5 -45.5
t-6.5 -39.5t-52 -11.5zM59 557q-6 1 -12 7q-4 -12 -2 -27t5 -24q7 -3 15.5 -1t15.5 6.5t12 11.5t6 15q-8 8 -18.5 9t-21.5 3zM285 149q12 -2 15 1t0 8.5t-10.5 12t-16.5 12.5q-4 -7 -11.5 -9.5t-15.5 2.5q-3 -3 -0.5 -7t9 -8t14.5 -7.5t16 -4.5z" />
    <glyph glyph-name="ampersand" unicode="&#x26;" horiz-adv-x="254" 
d="M217 -5q8 -5 10.5 -12.5t0 -13.5t-9.5 -9.5t-17 -0.5q-10 5 -20.5 17.5t-20 28t-18 31t-14.5 27.5q-26 -16 -56 -20q-14 -2 -26.5 2.5t-22 13.5t-14 21.5t-2.5 26.5q5 27 16.5 50t26.5 45q-18 37 -31.5 76t-16.5 74.5t7.5 64t42.5 44.5q23 12 50.5 11t50 -13t34.5 -35
t4 -55q-12 -50 -36.5 -88.5t-54.5 -79.5q-2 -2 -4 -6q9 -20 20 -38.5t22 -38.5q11 9 20.5 18.5l20.5 20.5q7 5 14.5 4t12.5 -5.5t6 -11.5t-4 -15q-12 -12 -24 -23.5t-25 -22.5q15 -24 30.5 -46.5t30.5 -42.5q1 0 1 -1zM54 300q9 -31 23 -63q12 17 24 33.5t22 33.5
q9 16 16.5 32t9.5 31.5t-2 30t-18 29.5q-8 9 -20.5 8.5t-25.5 -6t-23.5 -14t-13.5 -15.5q-5 -11 -5 -24t1.5 -27t5 -27t6.5 -22zM50 119q-6 -18 -2 -25.5t14 -9t22.5 2t23.5 9.5l-37 65q-6 -10 -11.5 -20.5t-9.5 -21.5z" />
    <glyph glyph-name="quotesingle" unicode="'" horiz-adv-x="87" 
d="M7 609q1 9 5.5 15t10.5 7.5t12.5 -1.5t10.5 -12q4 -11 5 -27t1 -31.5t-1 -30t-1 -22.5q-2 -9 -7 -14t-11.5 -5t-12.5 4.5t-9 12.5q0 3 0.5 16t1 29.5t-0.5 33t-4 25.5z" />
    <glyph glyph-name="parenleft" unicode="(" horiz-adv-x="210" 
d="M113 626q5 -8 9.5 -17t9.5 -18q-22 -14 -34.5 -35t-20 -44.5t-12.5 -48.5t-12 -47q-6 -44 -11.5 -100.5t-1.5 -112t21.5 -104t56.5 -76.5q11 -8 23.5 -12t24.5 -10q9 -5 12 -12t1 -14t-9.5 -10.5t-17.5 -0.5q-15 7 -32 12t-29 17q-44 45 -64.5 97t-26 108.5t0 115
t14.5 116.5q4 25 10.5 52t17 52.5t25.5 47.5t36 38l1 1l3 2l5 3v0z" />
    <glyph glyph-name="parenright" unicode=")" horiz-adv-x="268" 
d="M113 506q-5 7 -13.5 19.5t-20 26t-24.5 24.5t-26 16q-11 -5 -20.5 3.5t-4.5 24.5l3 4l22 9q19 -3 36 -14t32 -26.5t27 -32t20 -29.5q34 -53 56.5 -115t31.5 -127t3 -130t-29 -125q-6 -16 -16.5 -38.5t-24.5 -43.5t-32 -37.5t-40 -19.5q-10 -1 -16 4.5t-7 12.5t3 14t14 9
q12 1 24 14t23 30.5t20 37t15 33.5q21 54 26.5 114t-2.5 120t-28.5 117t-51.5 105z" />
    <glyph glyph-name="asterisk" unicode="*" horiz-adv-x="329" 
d="M27 343q-10 3 -14 10t-3 13.5t7 11.5t17 4q44 -6 83 -24q1 9 1.5 18t2.5 18q2 21 4.5 29t3.5 13q-8 10 -1.5 21t22.5 10q15 -5 17 -24t-1 -40q2 5 5 8.5t6 8.5q7 8 15 9t14 -3t8 -12t-4 -17q-11 -16 -21 -32t-19 -33l5 -3l49 13q6 2 17.5 6.5t22.5 6.5t20.5 -1t11.5 -16
q2 -15 -6.5 -21t-18.5 -3q-4 -2 -6 -2l-38 -11q4 -2 7.5 -4t8.5 -4q9 -5 12 -12t1 -14t-9.5 -10.5t-17.5 -0.5q-16 7 -31 15t-29 16l-15 -2q0 -37 4.5 -73t17.5 -71q1 -11 -3.5 -17t-11 -7.5t-13.5 2.5t-11 13q-8 20 -13 41.5t-7 43.5q-3 -6 -6 -11.5t-5 -11.5
q-6 -9 -13.5 -11.5t-13.5 0.5t-9.5 10.5t-0.5 17.5q8 17 15.5 33t15.5 33q-35 -3 -69 -3q-9 3 -13.5 8.5t-4.5 12t4.5 12t13.5 7.5q20 0 39 1t39 3q-20 9 -40 15.5t-42 9.5z" />
    <glyph glyph-name="plus" unicode="+" horiz-adv-x="322" 
d="M15 222q-9 6 -10.5 13.5t2.5 14t11.5 9t16.5 -2.5q14 -8 33 -10t41 -1q-2 29 -0.5 59t11.5 61q12 14 26 7.5t11 -24.5q-8 -25 -10.5 -50t-0.5 -50q28 3 53.5 8t43.5 8q11 5 24 5t21 -12q4 -8 2.5 -15t-6 -11.5t-11 -5.5t-12.5 3h-1q-16 -8 -46 -13t-64 -7q4 -29 9 -57.5
t7 -57.5q-2 -9 -7 -14t-11.5 -5t-12.5 4.5t-9 12.5q-2 30 -6 58.5t-8 57.5q-30 0 -56 3.5t-41 11.5z" />
    <glyph glyph-name="comma" unicode="," horiz-adv-x="127" 
d="M44 52q1 10 6.5 16t12.5 6.5t13 -4.5t8 -16q2 -32 0 -61t-23 -56q-7 -6 -13.5 -6.5t-12 3.5t-7.5 10.5t0 15.5q17 21 17 43.5t-1 48.5z" />
    <glyph glyph-name="hyphen" unicode="-" 
d="M245 196q-51 -6 -102.5 -9.5t-104.5 -3.5q-9 -7 -21 -3q-1 0 -2 0.5t-2 0.5l-9 28q4 5 7 8.5t11 5.5q14 3 28 1.5t28 -1.5q41 2 81 5t80 8q19 -2 21 -17t-15 -23z" />
    <glyph glyph-name="period" unicode="." horiz-adv-x="125" 
d="M53 70q11 2 18 -2t9 -12q8 -8 10 -19t-2 -21.5t-12.5 -18t-20.5 -7.5q-18 0 -26 11t-7.5 25t9 27t22.5 17z" />
    <glyph glyph-name="slash" unicode="/" horiz-adv-x="178" 
d="M137 611q6 18 21.5 16t18.5 -20q-2 -24 -12 -46t-18 -46q-6 -17 -9 -34.5t-8 -34.5q-25 -107 -46 -212.5t-26 -216.5q-2 -9 -7 -14t-11.5 -5t-12.5 4.5t-9 12.5q5 114 26.5 222.5t47.5 218.5q4 18 8 38t10 38q8 20 16.5 39.5t10.5 39.5z" />
    <glyph glyph-name="zero" unicode="0" horiz-adv-x="301" 
d="M129 588q9 6 17 4t12 -7.5t3.5 -13.5t-8.5 -15q-6 -5 -12.5 -9t-13.5 -9q40 -32 60.5 -72.5t38.5 -91.5q12 -33 18 -55.5t10 -42.5t7.5 -43t8.5 -58q2 -13 2 -38.5t-3.5 -53t-12.5 -51.5t-25 -34q-14 -8 -27.5 -15.5t-28.5 -14.5q-7 -4 -12 -3q-19 3 -39 5t-34 16
q-35 38 -54.5 80t-28.5 87.5t-10.5 93.5t0.5 98q2 29 7 57.5t18 53.5q10 20 20 39.5t21 39.5q11 19 30 29.5t36 23.5zM117 499q-4 5 -9.5 8t-10.5 5q-1 0 -1 -1q-28 -35 -43 -80.5t-20 -94.5t-1 -97.5t14 -89.5q4 -18 13 -44t22.5 -49t33.5 -38t47 -12q27 4 42 22.5t21 42.5
t6.5 50t-0.5 45q-3 38 -11 83.5t-22.5 91.5t-34.5 87.5t-46 70.5z" />
    <glyph glyph-name="one" unicode="1" horiz-adv-x="224" 
d="M42 -16q-10 -1 -16 4.5t-7 12.5t3 14t14 9l72 6q-13 57 -11 114t-2 115q-3 45 -9.5 89t-10.5 89q-2 26 -3 50t1 49q-4 -3 -6.5 -5l-5 -4t-5.5 -4.5t-9 -6.5q-6 -9 -13.5 -11.5t-13.5 0.5t-9.5 10.5t-0.5 17.5q8 14 22.5 23t25.5 20q8 8 13.5 19t11.5 20l28 6
q11 -8 11.5 -18.5t-2.5 -21.5q-1 -4 -2 -11t-2 -6q-2 -11 -2.5 -20t-1 -17.5t-0.5 -18.5v-24q2 -56 10.5 -111t12.5 -111q4 -57 2 -113t10 -111l3 -4q20 2 38.5 3t38.5 1q11 -1 16 -7t5 -13t-5.5 -13t-15.5 -7q-46 0 -92 -5t-93 -9z" />
    <glyph glyph-name="two" unicode="2" horiz-adv-x="336" 
d="M43 507q-6 -9 -13.5 -11.5t-13.5 0.5t-9.5 10.5t-0.5 17.5q12 29 36.5 49.5t54 31.5t61 11t57 -12.5t42.5 -37.5t18 -65q1 -46 -8 -85t-24 -74t-34 -67.5t-38.5 -65.5t-37 -67.5t-29.5 -72.5q46 5 91.5 8.5t93.5 3.5v-40q-52 0 -104 -3.5t-104 -12.5l-24 23
q12 55 39.5 103.5t56.5 96.5t53 97.5t29 105.5q3 36 -4 64.5t-24 44t-43.5 17t-62.5 -14.5q-22 -10 -35.5 -22t-22.5 -33z" />
    <glyph glyph-name="three" unicode="3" horiz-adv-x="303" 
d="M11 564q6 15 32 28.5t57 19t59.5 1t39.5 -24.5q14 -23 12.5 -55t-12.5 -64t-30 -59.5t-40 -40.5l-16 -10q29 -13 54.5 -34.5t45 -48t31.5 -57t15 -61.5q2 -18 3 -38.5t-3 -40t-13.5 -37t-28.5 -28.5q-25 -15 -51 -17.5t-52.5 1.5t-53.5 10t-54 9q-10 3 -14 10t-3 13.5
t7 11.5t17 4q16 -2 41.5 -8t52 -10.5t50.5 -3.5t37 13q28 26 29 65t-14 78.5t-41 74t-51 51.5q-16 11 -33 14.5t-36 5.5l-6 38q17 5 33 10t30 17q11 10 26.5 31.5t27 46.5t15 49.5t-9.5 39.5q-8 9 -19 11t-23.5 -1t-24.5 -8.5t-21 -9.5t-13 -6t-13 -7z" />
    <glyph glyph-name="four" unicode="4" horiz-adv-x="284" 
d="M166 605q8 10 18.5 9t15.5 -9q4 -2 7 -6.5t4 -11.5q-2 -46 -5 -91t-6 -91q11 2 20 4t16 3q19 -2 21 -17t-15 -23l-22 -4l-22 -4q-2 -48 -4 -94t-3 -94q0 -11 -1 -35.5t-0.5 -51.5t4 -51t13.5 -33q8 -17 -3 -27t-27 0q-15 14 -20.5 40t-7 55t0 56.5t1.5 44.5q1 45 3 90
l4 90q-34 -8 -68 -11.5t-64 11.5q-2 4 -5 7.5t-6 7.5q-2 28 17 58.5t45 61t52 60t37 56.5zM160 396q2 34 4 67l4 66q-19 -25 -41 -48.5t-41 -47.5q-8 -12 -15 -24.5t-15 -24.5q14 -5 43 0t61 12z" />
    <glyph glyph-name="five" unicode="5" horiz-adv-x="315" 
d="M210 632q11 -1 16 -7t5 -13t-5.5 -13t-15.5 -7q-21 0 -42 -5.5t-43 -6.5q-17 -1 -36 2t-36 -3q-5 -29 -6 -70t1.5 -85t7.5 -87t11 -76l7 7q8 7 20.5 9.5t21.5 3.5q40 2 77 -20.5t59 -54.5q13 -19 11 -43t-14 -49t-31.5 -48.5t-42 -40.5t-45.5 -25.5t-41 -2.5l-18 17
l-6 25q1 9 5.5 15t10.5 7.5t12.5 -1.5t10.5 -12l4 -15q10 -5 29 10.5t37.5 38.5t32.5 47.5t15 36.5q0 18 -13.5 33t-32.5 25t-40 13.5t-36 -0.5q-20 -21 -33 -25.5t-21.5 4t-13.5 27t-8 44.5q-3 22 -7.5 66.5t-7.5 92t-2.5 90t9.5 61.5q7 15 22 20.5t32.5 5.5t35 -2t30.5 -1
q19 2 37 6.5t37 5.5z" />
    <glyph glyph-name="six" unicode="6" horiz-adv-x="299" 
d="M72 625q1 10 6.5 16t12.5 6.5t13 -4.5t8 -16q-3 -36 -11 -70t-17.5 -68t-19.5 -68t-16 -69q-4 -19 -5.5 -38t-2.5 -39q10 7 20 11q21 11 54.5 7.5t65 -17t56 -35.5t27.5 -48q2 -11 4.5 -22t-2.5 -21q-16 -36 -39 -66t-48 -49.5t-51 -26.5t-49 3t-41.5 38.5t-27.5 80.5
q-11 66 -9.5 136.5t18.5 136.5q14 55 32 109.5t22 112.5zM47 233q-4 -2 -6 -2v-16t1 -16q1 -10 4 -36.5t9.5 -54t18.5 -47.5t31 -17q23 5 42 19q7 6 19 17t24.5 24.5t22.5 28t13 28.5q6 25 -10.5 44t-42 31t-53 15.5t-45.5 -2.5q-8 -2 -14 -7t-14 -9z" />
    <glyph glyph-name="seven" unicode="7" horiz-adv-x="197" 
d="M10 582q-10 -1 -16 4.5t-7 12.5t3 14t14 9q18 2 37 7t38.5 9t38.5 6t37 -2q4 -6 7 -12.5t7 -13.5q-5 -21 -7.5 -41.5t-4 -42.5t-2.5 -46.5t-3 -54.5q-2 -32 -3.5 -56.5t-3 -47t-2.5 -45t-2 -49.5q-2 -61 -4.5 -126t-21.5 -125q-10 2 -19.5 2.5t-19.5 1.5q0 3 -0.5 5.5
t-0.5 5.5q0 10 7 17q6 24 9.5 52t5.5 56.5t2.5 56.5t1.5 51q1 27 2 49.5t2.5 45t3 47t3.5 56.5q3 39 2.5 78t3.5 77q1 5 2 10.5t3 10.5q-28 -2 -57 -10t-56 -12z" />
    <glyph glyph-name="eight" unicode="8" 
d="M134 592h2q10 -2 19 -3.5t19 -4.5q10 -2 18 -9.5t16 -13.5q23 -17 30.5 -41.5t4 -50.5t-16.5 -50t-31 -39q-19 -14 -39 -17q1 -3 1 -9q19 -26 37 -51t31.5 -51t22 -55t7.5 -63q-1 -25 -17.5 -53t-40.5 -47t-52 -23t-52 18q-12 11 -24.5 22t-19.5 25q-9 21 -19.5 50
t-16.5 60t-4.5 60.5t15.5 51.5q10 16 18.5 34t25.5 25l18 6l-12 2q-31 4 -47 25t-20 49.5t2.5 59.5t20.5 56.5t32.5 40.5t38.5 10q7 -2 13.5 -4.5t13.5 -5.5zM122 333q-9 -2 -17.5 -4.5t-16.5 -7.5q-26 -18 -33.5 -55t-2 -77.5t22.5 -76t41 -50.5q8 -5 17 -4.5t18 -1.5
q11 8 22.5 16t22.5 16q14 12 18 31t2 40t-9 41t-14 33q-8 16 -20.5 32.5t-20.5 28.5zM129 553q-4 1 -10 5q-3 0 -5 1l-16 6q-18 -10 -31.5 -26.5t-20 -35t-5 -37.5t12 -34t31.5 -24t54 -7q28 2 44 21t19 43t-7.5 47.5t-34.5 33.5q-8 4 -15.5 4.5t-15.5 2.5z" />
    <glyph glyph-name="nine" unicode="9" horiz-adv-x="234" 
d="M200 587q8 -17 -3 -27t-27 0q-6 6 -15.5 6.5t-17.5 -0.5q-33 -3 -55 -16.5t-32.5 -30.5t-10.5 -34t10 -27.5t30 -12t49 12.5q25 12 42 32l33 -22l-2 -11q-2 -11 -3 -32.5t-2.5 -48t-3 -54t-2.5 -50.5q-2 -58 -6 -115.5t7 -116.5q-5 4 -9 6q9 -5 12 -12t1 -14t-9.5 -10.5
t-17.5 -0.5q-12 6 -17.5 25t-7 41t-1 43t0.5 32q1 28 2 46.5t2.5 33.5t2.5 29.5t1 36.5l2 66t4 66l-20 -10q-28 -11 -57 -11q-24 1 -43 12t-30 28.5t-11.5 39.5t13.5 45q44 67 123 74q20 2 37 -1.5t31 -17.5z" />
    <glyph glyph-name="colon" unicode=":" horiz-adv-x="126" 
d="M53 70q11 2 18 -2t9 -12q8 -8 10 -19t-2 -21.5t-12.5 -18t-20.5 -7.5q-18 0 -26 11t-7.5 25t9 27t22.5 17zM67 380q-21 -10 -33 -3t-15 21t4 29t24 22l14 -7q12 0 19.5 -7.5t9 -17.5t-4 -20.5t-18.5 -16.5z" />
    <glyph glyph-name="semicolon" unicode=";" horiz-adv-x="124" 
d="M67 380q-21 -10 -33 -3t-15 21t4 29t24 22l14 -7q12 0 19.5 -7.5t9 -17.5t-4 -20.5t-18.5 -16.5zM44 52q1 10 6.5 16t12.5 6.5t13 -4.5t8 -16q2 -32 0 -61t-23 -56q-7 -6 -13.5 -6.5t-12 3.5t-7.5 10.5t0 15.5q17 21 17 43.5t-1 48.5z" />
    <glyph glyph-name="less" unicode="&#x3c;" horiz-adv-x="147" 
d="M77 362q7 5 14.5 4t12.5 -5.5t6 -11.5t-4 -15q-13 -15 -20.5 -34.5t-19.5 -36.5q-8 -12 -11.5 -16t-11.5 -15l-3 -5q8 -6 11.5 -8t13.5 -10q11 -8 20 -15t23 -9q17 -8 14.5 -22.5t-21.5 -16.5q-18 3 -32.5 12t-28.5 20q-23 16 -31.5 27.5t-8 22.5t9.5 24.5t23 33.5
q13 19 21.5 39t22.5 37z" />
    <glyph glyph-name="equal" unicode="=" horiz-adv-x="221" 
d="M26 146q-10 -1 -16 4.5t-7 12.5t3 14t14 9q15 1 36 5.5t42.5 7t41.5 2t34 -8.5q13 -12 5.5 -25.5t-25.5 -8.5q-7 3 -20.5 2.5t-30.5 -3t-37 -6t-40 -5.5zM30 220q-9 3 -13.5 8.5t-4.5 12t4.5 12t13.5 7.5q37 0 72.5 1.5t71.5 1.5q11 -1 16 -7t5 -13t-5.5 -13t-15.5 -7
q-36 0 -72 -1.5t-72 -1.5z" />
    <glyph glyph-name="greater" unicode="&#x3e;" horiz-adv-x="154" 
d="M45 362q14 -17 22.5 -37t21.5 -39q13 -20 22.5 -33.5t10 -24.5t-8.5 -22.5t-31 -27.5q-14 -11 -28.5 -20t-32.5 -12q-19 2 -21.5 16.5t14.5 22.5q14 2 23 9t20 15q10 8 13.5 10t11.5 8l-3 5q-8 11 -11.5 15t-11.5 16q-12 17 -19.5 36.5t-20.5 34.5q-5 8 -4 15t6 11.5
t12 5.5t15 -4z" />
    <glyph glyph-name="question" unicode="?" horiz-adv-x="235" 
d="M0 561q-9 0 -15 4t-7.5 10t0.5 12.5t10 11.5q41 12 74 7.5t60 -21.5t48.5 -44.5t41.5 -60.5q8 -14 12 -31.5t0 -33.5q-6 -30 -21 -49.5t-35 -34.5t-43.5 -27.5t-46.5 -27.5q-5 -4 -9.5 -8.5l-9.5 -9.5q0 -5 1 -11t2 -9q5 -29 10 -57t7 -57q-2 -9 -7 -14t-11.5 -5
t-12.5 4.5t-9 12.5q-1 12 -6.5 36t-10 49.5t-5 48t8.5 31.5q15 15 42 29t53 29.5t45 34t19 41.5q-1 35 -17.5 65t-43 50t-59 27.5t-65.5 -2.5zM72 23q-9 -4 -16 -1.5t-10.5 8t-2.5 12.5t7 13q4 6 10.5 7.5t12.5 -1t9.5 -9t2.5 -15.5q-3 -9 -13 -14z" />
    <glyph glyph-name="at" unicode="@" horiz-adv-x="410" 
d="M266 232q1 -11 -3.5 -17t-11 -7.5t-13.5 2.5t-11 13h-10t-13 -4q-21 -13 -27 -35q-4 -12 -4.5 -26t4.5 -26q6 -14 12.5 -10.5t12 14t10 24t6.5 18.5l37 -11q5 -40 22.5 -47t34 6t25.5 39.5t-3 54.5q-17 41 -43 63.5t-56.5 29t-62 -1.5t-58 -28t-46.5 -50.5t-26 -68.5
q-5 -31 9 -54t40.5 -37.5t60.5 -21t68 -5.5t64.5 9.5t49.5 23.5q9 6 17 4t12 -7.5t3.5 -13.5t-8.5 -15q-22 -18 -62 -28t-83.5 -12t-82.5 4.5t-58 22.5q-17 14 -33.5 28.5t-27.5 31.5t-14 37.5t7 46.5q14 38 28 63.5t32.5 45t43.5 34.5t61 32q37 18 74 6t67.5 -40.5
t50.5 -67t22 -72.5q1 -26 -16 -50.5t-42 -38t-51 -11t-43 30.5q-9 -14 -25 -24q-22 -15 -37.5 -5t-24 31.5t-10 47t5.5 41.5t25 34t38 27t38 4t25 -34z" />
    <glyph glyph-name="A" unicode="A" 
d="M93 22q-2 -9 -7 -14t-11.5 -5t-12.5 4.5t-9 12.5q-3 46 -12.5 90.5t-19.5 89t-18 89.5t-8 91q0 18 4 39t11.5 41t19.5 37t28 27q9 6 18 13.5t18.5 13.5t20 8.5t22.5 -1.5q3 -1 10.5 -4t16 -7.5t15.5 -9.5t10 -11q29 -51 42.5 -111.5t18.5 -126.5l22 6q19 -2 21 -17
t-15 -23l-26 -6q3 -62 1.5 -121.5t-1.5 -112.5q-2 -9 -7 -14t-11.5 -5t-12.5 4.5t-9 12.5v111.5t-3 111.5q-38 -11 -78.5 -19t-75.5 0q11 -48 22.5 -96t15.5 -98zM48 260q3 -1 5.5 -1t4.5 -2q15 -1 34 -1.5t22 0.5q23 3 46.5 8.5t46.5 12.5q-3 42 -9 84q-2 14 -5 33.5
t-8 39.5t-12.5 39t-17.5 32q-5 7 -13 8.5t-15 5.5q-12 -8 -24.5 -14.5t-24.5 -14.5q-16 -11 -25 -30t-13.5 -41t-5 -44t0.5 -38q2 -20 4.5 -39t6.5 -38h2z" />
    <glyph glyph-name="B" unicode="B" horiz-adv-x="386" 
d="M26 586q3 10 10.5 14t14 2t11 -9t3.5 -17q-5 -20 -6 -40q31 6 67.5 6.5t69 -6t56.5 -19.5t30 -32q11 -33 6.5 -64.5t-20 -61t-39 -56t-49.5 -50.5q44 8 85.5 1t73.5 -39q11 -11 13 -26.5t-1.5 -32t-9.5 -32t-12 -26.5q-15 -27 -39 -48t-53 -35.5t-60 -23t-60 -11.5
q-12 0 -18 6q-8 -8 -18.5 -5t-15.5 16q-4 78 -13.5 155t-18.5 155q-5 42 -9.5 83t-5.5 83q-12 -8 -23 0.5t-6 25.5q7 13 30 25q1 15 2.5 30.5t4.5 31.5zM83 225q15 11 36 29t42.5 39t41.5 44.5t33 46.5t16.5 44.5t-7.5 39.5q-9 15 -24 22t-32.5 10t-36.5 2.5t-35 -1.5
q-3 -1 -12 -1h-3q-9 -1 -21.5 -2t-23.5 -3q0 -47 5.5 -93t10.5 -92zM86 204q5 -47 10 -93t8 -94l7 3q28 2 58 10.5t57 23.5t48.5 36.5t30.5 50.5q5 13 6.5 26.5t-6.5 24.5q-12 18 -38 22.5t-56.5 1t-60.5 -12t-50 -15.5q0 -1 -1 -1q-2 0 -2.5 -0.5t-1.5 -0.5z" />
    <glyph glyph-name="C" unicode="C" horiz-adv-x="377" 
d="M304 495q17 -8 14.5 -22.5t-21.5 -16.5q-30 5 -54.5 11t-47.5 7.5t-45.5 -5t-47.5 -27.5q-36 -30 -52 -75.5t-14 -94t19.5 -95t48.5 -77.5q28 -28 51 -40.5t47.5 -17t52.5 -4.5t66 -3q17 -8 14.5 -22.5t-21.5 -16.5q-30 2 -64 3.5t-67 8t-62 22t-49 46.5q-15 24 -34 47
t-24 50l-18 104q-3 19 2.5 49.5t17 60.5t28.5 55t37 34q22 11 44 20l44 18q16 6 33 5t34 -5.5t34 -10t34 -8.5z" />
    <glyph glyph-name="D" unicode="D" horiz-adv-x="402" 
d="M-56 520q-9 3 -13.5 8.5t-4.5 12t4.5 12t13.5 7.5q51 -3 101 -9q7 14 19 19q15 4 22.5 -6t2.5 -21q38 -7 80 -21q21 -7 41.5 -14.5t38.5 -19.5q17 -11 35 -21t31 -26l42 -53q11 -14 12.5 -33.5t4.5 -37.5q6 -32 -4.5 -62.5t-31.5 -59.5t-49 -55.5t-57 -50.5t-56.5 -45
t-46.5 -39q-8 -7 -15.5 -6.5t-13 5.5t-6 13t5.5 16q24 22 58 48t68 56t63 63.5t41.5 68.5t4 72t-49.5 74q-26 22 -57 39q-30 16 -70 29t-74 21q-2 0 -3 0.5t-3 0.5l6 -31q0 2 -0.5 4t-0.5 4q0 4 1 -3.5t2 -11.5l7 -57q2 -29 3 -56.5t-1 -57.5q-2 -72 -7.5 -142.5
t-7.5 -142.5q-2 -9 -7 -14t-11.5 -5t-12.5 4.5t-9 12.5q1 50 5 100t7 99.5t4 99.5t-3 100q-2 15 -8.5 45t-6.5 59q-23 4 -42.5 5t-51.5 3z" />
    <glyph glyph-name="E" unicode="E" horiz-adv-x="307" 
d="M18 266q-6 2 -8 4q-7 5 -9 11.5t-0.5 12.5t6.5 9.5t12 3.5q2 35 2.5 70.5t1.5 71.5q0 4 -0.5 14t-1 23.5t-0.5 28.5t1 29q-8 1 -12 7t-4 12.5t4 12.5t13 8q3 0 5 1q3 9 8 13q10 6 18.5 3.5t11.5 -10.5q58 9 116.5 12.5t116.5 5.5q11 -1 16 -7t5 -13t-5.5 -13t-15.5 -7
q-17 0 -25.5 -0.5t-13.5 -0.5t-11 -0.5t-19 -1.5q-42 -5 -84 -7.5t-84 -8.5q0 -6 1 -11q1 -43 0 -88q-1 -39 -1.5 -78.5t-2.5 -78.5q18 -3 37 -1t38 6.5t37 9.5t34 10q10 3 17 -1.5t9 -11t-1 -14t-13 -11.5q-35 -10 -77.5 -20.5t-82.5 -5.5q-2 -51 -4 -100.5t-2 -100.5
q17 -3 42 -2t50.5 4.5t47.5 7.5l33 6q19 -2 21 -17t-15 -23q-15 -3 -37 -7t-47 -7t-50 -4t-46 2q-2 -8 -7.5 -11.5t-11.5 -3t-11.5 4.5t-8.5 12v11l-10 9l-3 24l9 19z" />
    <glyph glyph-name="F" unicode="F" horiz-adv-x="208" 
d="M9 584q1 10 6.5 16t12.5 6.5t13 -4.5t8 -16v-8q7 -1 14 -1.5t13 -0.5q29 0 56.5 2t55.5 3q11 -1 16 -7t5 -13t-5.5 -13t-15.5 -7q-28 -1 -56 -3t-56 -2q-7 0 -13.5 0.5t-12.5 1.5q2 -57 4.5 -114t6.5 -114q1 -1 2 -1t3 -1q9 -6 21.5 -4.5t26 6.5t26 10.5t20.5 7.5
q10 3 17 -1.5t9 -11t-1 -14t-13 -11.5q-14 -3 -27.5 -8.5t-27 -10t-27 -6.5t-26.5 1q5 -74 8.5 -147.5t5.5 -148.5q-2 -9 -7 -14t-11.5 -5t-12.5 4.5t-9 12.5q-2 142 -13 283t-15 283q-10 0 -17 10q0 1 -0.5 1.5t-0.5 1.5l9 28l8 3v6v0z" />
    <glyph glyph-name="G" unicode="G" horiz-adv-x="345" 
d="M239 550q-2 -9 -7 -14t-11.5 -5t-12.5 4.5t-9 12.5q0 5 -0.5 10t-0.5 10q-13 13 -27 11t-27.5 -13t-25.5 -28t-22 -34t-16 -31t-8 -19q-15 -47 -23 -100t-8.5 -106.5t7.5 -106t25 -99.5q3 -9 14 -9t23 4t23 10t15 8q19 9 42.5 25.5t41.5 38t26 46t-4 48.5q-14 0 -23.5 -1
t-20 -3t-24 -4.5t-34.5 -6.5q-9 5 -22 10q0 1 -2 5l9 28q15 7 30 12.5t31 7.5q18 2 34.5 1t30.5 -6q25 -2 42 -10q5 -3 6.5 -13.5t1.5 -22t-1 -21.5t-1 -13q-3 -54 -12.5 -107t-11.5 -108q-2 -9 -7 -14t-11.5 -5t-12.5 4.5t-9 12.5q1 34 5 67.5t9 66.5q-24 -27 -54 -48
t-54 -32q-10 -5 -23.5 -10.5t-27.5 -8t-27.5 -0.5t-23.5 12q-14 14 -22.5 34.5t-13 43t-6.5 45t-3 39.5q-7 100 7 194t56 184q12 26 40.5 44t57 21.5t50.5 -10t22 -51.5z" />
    <glyph glyph-name="H" unicode="H" horiz-adv-x="271" 
d="M4 568q1 10 6.5 16t12.5 6.5t13 -4.5t8 -16q0 -74 0.5 -147t1.5 -146l78 16l78 16v143q0 35 -1 70.5t-6 69.5q-2 4 -2 5v7l39 9q8 -38 9 -79t1 -80v-143q9 -5 9 -15t-9 -18v-285l-40 -3v278q-39 -8 -77.5 -16t-77.5 -16q1 -60 1.5 -120.5t0.5 -121.5q-2 -9 -7 -14
t-11.5 -5t-12.5 4.5t-9 12.5q0 60 -0.5 118t-1.5 118h-3q-2 -1 -6 -1h-5q1 11 1 20.5v19.5l12 2q-1 75 -1.5 149.5t-0.5 149.5z" />
    <glyph glyph-name="I" unicode="I" horiz-adv-x="217" 
d="M23 41q17 9 27 -1q12 0 24 0.5t25 0.5q7 64 6.5 127.5t-5 127.5t-10.5 127.5t-9 128.5q-25 -2 -47 0.5t-33 13.5q-6 8 -5.5 15.5t5 12t11.5 5.5t14 -3q4 1 8 -1t8 -3q12 -1 24 -0.5t24 1.5q7 5 17 2l57 9q19 -2 21 -17t-15 -23l-50 -8q3 -65 9 -128.5t11 -127.5t6 -128
t-6 -129q42 3 86 3q11 -1 16 -7t5 -13t-5.5 -13t-15.5 -7q-43 0 -85.5 -2t-85.5 -2q-9 -1 -19 -1.5t-17 7.5v30l4 3v0z" />
    <glyph glyph-name="J" unicode="J" horiz-adv-x="301" 
d="M168 608q1 10 6.5 16t12.5 6.5t13 -4.5t8 -16q1 -19 1.5 -31t1.5 -23t2.5 -23t4.5 -30q7 -41 18.5 -88.5t20 -97t9.5 -97t-12 -88.5q-11 -35 -32 -67.5t-48.5 -52t-61 -21t-69.5 26.5q-11 9 -16.5 22t-13.5 24q-3 9 -1 16t7.5 10t13 2.5t14.5 -6.5q11 -17 19 -32t28 -23
q19 -8 39.5 3t38 30.5t29.5 42t15 37.5q12 57 7 115.5t-16 116.5t-23.5 116.5t-15.5 115.5z" />
    <glyph glyph-name="K" unicode="K" horiz-adv-x="299" 
d="M27 602q3 10 10.5 14t14 2t11 -9t3.5 -17q-15 -66 -15.5 -134t-0.5 -136q0 -31 0.5 -61t1.5 -60q39 56 66.5 116.5t53.5 124.5q1 2 6.5 16t12.5 31t14 33t11 23q-7 10 -1 20.5t22 8.5q18 -5 20.5 -18.5t-3 -29t-14 -30.5t-11.5 -22q-28 -63 -53.5 -125t-59.5 -121
q12 -7 22 -18.5t18 -19.5q44 -45 89 -84.5t80 -93.5q4 -9 2 -16.5t-8 -11.5t-14 -3t-14 9q-32 51 -73.5 91t-86.5 78q-7 7 -13.5 14t-13.5 13q-2 2 -3.5 4t-3.5 3h-3q-17 -28 -41 -57l3 -121q-2 -9 -7 -14t-11.5 -5t-12.5 4.5t-9 12.5q-2 77 -3.5 153t-2.5 153q0 72 1 143
t16 140z" />
    <glyph glyph-name="L" unicode="L" horiz-adv-x="218" 
d="M6 609q1 10 6.5 16t12.5 6.5t13 -4.5t8 -16q3 -78 7 -156.5t9 -157.5q4 -66 7 -134t14 -134q17 5 35 9.5t35 10.5q10 3 17 -1.5t9 -11t-1 -14t-13 -11.5t-23 -9t-26.5 -9t-27 -5.5t-24.5 1.5l-18 17q-11 74 -18 149.5t-11 151t-6 151.5t-5 151z" />
    <glyph glyph-name="M" unicode="M" horiz-adv-x="480" 
d="M48 23q-2 -9 -7 -14t-11.5 -5t-12.5 4.5t-9 12.5q5 112 21.5 221.5t44.5 218.5q10 35 19 75t26 72q7 2 14 3.5t14 3.5q9 -7 13.5 -19t6 -26t1.5 -27.5t1 -23.5q8 -45 15 -91t16 -92t21 -91.5t29 -88.5l7 16q6 14 9.5 29.5t5.5 30.5q5 31 14 78.5t22 96t31 91t41 64.5
l33 -9q22 -65 27.5 -133.5t5.5 -138.5t0.5 -139t14.5 -136q1 -11 -3.5 -17t-11 -7.5t-13.5 2.5t-11 13q-8 39 -11.5 80.5t-4.5 83t-1.5 82.5t-2.5 79q0 9 -1.5 38t-3.5 60.5t-4.5 57t-5.5 27.5q-19 -46 -33 -93.5t-26 -96.5q-6 -23 -9.5 -46.5t-8.5 -47.5q-1 -9 -7 -32.5
t-16.5 -46t-25 -34.5t-33.5 3q-5 4 -10 15t-9 22.5t-6.5 21t-3.5 11.5q-23 69 -35 139.5t-26 141.5q-1 3 -3 21t-4 40q-5 -19 -9.5 -37.5t-8.5 -35.5q-27 -106 -44 -211.5t-21 -215.5z" />
    <glyph glyph-name="N" unicode="N" horiz-adv-x="316" 
d="M51 11q-2 -9 -7 -14t-11.5 -5t-12.5 4.5t-9 12.5q2 55 11 108.5t9 108.5q0 31 -3 62t-5.5 61.5t-3 61t3.5 61.5l18 17q18 1 30.5 -9t22 -25t16 -32t12.5 -30q35 -78 62.5 -158t56.5 -161q0 125 -8.5 247.5t-8.5 247.5q1 10 6.5 16t12.5 6.5t13 -4.5t8 -16
q0 -105 5.5 -208.5t9.5 -209.5q2 -39 4.5 -83t-8.5 -83l-33 -8q-12 12 -20 29t-14.5 35t-12 36.5t-10.5 33.5q-12 35 -26 79t-30 88t-34 84.5t-37 69.5q-3 -26 -1.5 -51.5t5 -51t6.5 -51.5t3 -52q0 -54 -9 -108t-11 -109z" />
    <glyph glyph-name="O" unicode="O" horiz-adv-x="329" 
d="M182 634q10 3 17 -1.5t9 -11t-1 -14t-13 -11.5l-4 -2q18 -10 34.5 -31.5t30 -45t22 -44.5t11.5 -30q10 -30 17 -69t10 -79.5t0.5 -79t-12.5 -68.5q-5 -14 -11.5 -35t-16.5 -42t-23.5 -38t-32.5 -23q-14 -4 -29 -7.5t-30 -6.5q-21 -4 -40 7t-35 30.5t-29 44.5t-22.5 50
t-16 47t-8.5 36q-17 88 -8 164.5t38 159.5q8 22 25.5 38.5t31.5 33.5q15 17 39.5 19.5t46.5 8.5zM166 560q-14 -7 -23 2t-6 20q-4 -2 -7.5 -4t-7.5 -4q-36 -24 -54.5 -69t-25.5 -96t-4 -102t10 -88q4 -21 11.5 -50.5t20.5 -57.5t32.5 -49.5t46.5 -25.5q25 -4 43.5 8.5
t31 32.5t20 43t11.5 40q14 66 9.5 137t-24.5 134q-9 30 -16.5 46t-15.5 27t-19 22.5t-29 31.5q-3 2 -2.5 2.5t-1.5 -0.5zM175 556h-1h1z" />
    <glyph glyph-name="P" unicode="P" horiz-adv-x="169" 
d="M14 594q-5 7 -5 14.5t3.5 12t9.5 6.5t13 -1q3 0 8 -2.5t9 -2.5q4 -1 8 0.5t6 -2.5q8 0 15 -0.5t15 -1.5q19 -2 40.5 -10.5t42 -21t36 -29t22.5 -34.5q15 -40 7 -73.5t-31 -59t-57 -41.5t-71 -21q-9 -2 -14 3l3 -54q1 -36 3.5 -74t2.5 -75.5t-4.5 -74t-16.5 -71.5
q-6 -9 -13.5 -11.5t-13.5 0.5t-9.5 10.5t-0.5 17.5q11 32 15 66.5t4 70t-3 71t-4 68.5q-4 79 -9.5 158t-8.5 159zM57 579q2 -54 5.5 -108t6.5 -109q6 4 10 5q22 2 41.5 8t36.5 19q12 8 22.5 19t17.5 23q15 25 9 50t-24 44.5t-43.5 32.5t-49.5 15h-13.5t-18.5 1z" />
    <glyph glyph-name="Q" unicode="Q" horiz-adv-x="341" 
d="M149 630q6 -1 12 -1.5t11 -2.5q5 7 14 8t18 -7q49 -63 74 -128t31 -145q3 -35 1.5 -78.5t-9.5 -78.5q-8 -30 -11 -43.5t-6 -23t-9 -22t-18 -39.5q-3 -6 -5.5 -10.5t-5.5 -9.5q8 -26 15.5 -51t9.5 -53q-2 -9 -7 -14t-11.5 -5t-12.5 4.5t-9 12.5q-2 19 -6 37t-9 35
q-19 -14 -40.5 -15.5t-42 7t-39 27t-31.5 44.5q-17 33 -31.5 67.5t-20.5 71.5q-5 29 -5 63t3.5 68.5t10.5 67.5t16 60q5 16 13.5 43t21.5 52t32 43t46 16zM182 150q1 10 6.5 16t12.5 6.5t13 -4.5t8 -16q1 -24 8 -50q22 46 32 106q13 70 7 143q-5 70 -24 123.5t-57 106.5
q-10 3 -19.5 6.5t-20.5 1.5q-18 -2 -30.5 -18.5t-21.5 -37.5t-15 -41.5t-9 -32.5q-10 -39 -16.5 -80t-7 -81.5t6 -81t22.5 -78.5q17 -39 33.5 -61.5t32.5 -31t31 -4.5t28 18q-8 23 -13 45t-7 46z" />
    <glyph glyph-name="R" unicode="R" horiz-adv-x="246" 
d="M74 343q-10 -6 -20 -9q-2 -62 -5.5 -122.5t-9.5 -121.5q-2 -18 1 -35t1 -35l-40 -3v6q1 12 1.5 9t0.5 -6.5t0 -2.5v21q0 11 -2 21.5t-2 21.5q4 68 8.5 135.5t6.5 135.5v2q1 17 1.5 34t0.5 34q0 13 -2.5 39t-4.5 55h-1q-10 -1 -16 4.5t-7 12.5t3 14t14 9q5 0 7 1
q1 17 4.5 30t9.5 21q7 5 14.5 4t12.5 -5.5t6 -11.5t-4 -15q-1 -1 -1 -15q1 0 2 0.5t2 0.5q-2 -1 -4 -1v-1l8 2h-4q24 6 54 10.5t57 1t46 -19.5t21 -52q2 -27 -9.5 -49.5t-30.5 -41t-42 -33.5t-44 -27q-1 0 -1 -1q2 -2 3.5 -4t3.5 -5q20 -49 28 -98t20 -101q7 -32 16.5 -62.5
t19.5 -62.5q7 -11 -1 -24l-1 -1q-8 3 -17 5.5t-18 4.5q-26 72 -39 145.5t-30 147.5q-2 10 -8 19t-9 18v1zM56 431v-28t-1 -28q20 8 45.5 24.5t47.5 35.5t35.5 39t9.5 36q-2 11 -6 19t-15 13t-25 6t-30 -1.5t-32.5 -6.5t-32.5 -8q2 -29 3 -59t1 -42z" />
    <glyph glyph-name="S" unicode="S" horiz-adv-x="312" 
d="M276 558q1 -9 -2 -15t-9 -9t-13 -1.5t-13 9.5q-5 14 -17 16.5t-25.5 -1t-26.5 -10.5t-21 -13q-31 -21 -44.5 -53.5t-2.5 -69.5q10 -33 33 -58t49.5 -47.5t51 -45.5t38.5 -54q21 -49 21.5 -86t-15 -63t-43 -40.5t-62.5 -18t-74.5 3.5t-76.5 25q-15 10 -9.5 24t23.5 13
q30 -14 71.5 -22t77.5 -2t57.5 31t10.5 78q-8 37 -37 67.5t-61.5 59.5t-60.5 59t-33 66q-2 14 -3 26.5t-3 25.5q-2 22 10 46.5t33 45t47 35.5t51 19t46 -5t32 -36z" />
    <glyph glyph-name="T" unicode="T" horiz-adv-x="182" 
d="M-6 569q-9 3 -13.5 8.5t-4.5 12t4.5 12t13.5 7.5q56 1 111 5.5t110 5.5q11 -1 16 -7t5 -13t-5.5 -13t-15.5 -7q-21 -1 -42 -1.5t-41 -2.5v-546q-2 -9 -7 -14t-11.5 -5t-12.5 4.5t-9 12.5v545q-25 -2 -49 -3t-49 -1z" />
    <glyph glyph-name="U" unicode="U" horiz-adv-x="279" 
d="M-4 528q1 10 6.5 16t12.5 6.5t13 -4.5t8 -16q0 -49 -1.5 -98.5t-1 -99t4 -98.5t13.5 -98q3 -16 8.5 -42t14.5 -51.5t21.5 -46.5t30.5 -28q33 27 52.5 71t28.5 97t10.5 111.5t-1 115t-6 107.5t-4.5 90q1 10 6.5 16t12.5 6.5t13 -4.5t8 -16q2 -82 7.5 -156.5t3 -146.5
t-17.5 -143.5t-54 -147.5q-7 -14 -20 -22t-24 -18h-9.5t-9.5 -1q-24 9 -38.5 22t-24.5 29.5t-16.5 36.5t-13.5 43q-17 57 -24.5 115.5t-9.5 117.5t-0.5 118.5t1.5 118.5z" />
    <glyph glyph-name="V" unicode="V" horiz-adv-x="269" 
d="M4 613q1 10 6.5 16t12.5 6.5t13 -4.5t8 -16q3 -54 18.5 -105.5t29.5 -104.5q16 -57 27 -114t24 -114l7 -33q10 47 21.5 93t22.5 92.5t19.5 93.5t11.5 95q1 10 6.5 16t12.5 6.5t13 -4.5t8 -16q-3 -53 -12 -104t-21 -102t-25 -102t-23 -103q-8 -38 -8.5 -76t-8.5 -75
l-37 -3q-8 22 -7 46.5t-1 47.5q-2 30 -6.5 60t-11.5 59q-11 48 -20.5 96t-21.5 96q-8 32 -17 63t-17.5 62.5t-15 63t-8.5 64.5z" />
    <glyph glyph-name="W" unicode="W" horiz-adv-x="373" 
d="M88 206q-17 103 -32.5 204.5t-38.5 202.5q-5 7 -4 15v2h1v4l38 3q4 -14 5.5 -27t3.5 -27q15 -72 28 -142t24 -143q1 -4 0 3.5t-2 14.5q6 -38 11.5 -75t13.5 -74l9 -41q5 30 11.5 59.5t15.5 59.5l24 16l19 -2l14 -13q9 -22 16 -45t13 -46t12.5 -46t16.5 -44
q13 63 14 131.5t3 137.5t10.5 135.5t35.5 125.5q10 -1 19 -1.5t18 -2.5l1 -2q1 -12 -5 -20q-6 -15 -9.5 -31t-8.5 -32l-3 -14q-1 -2 -1.5 -7.5t-0.5 -3.5v1q-9 -69 -11 -137.5t-5 -138.5q-2 -46 -7 -90.5t-17 -89.5q-2 -8 -11 -11.5t-15 -6.5l-28 8q-21 47 -32.5 95.5
t-31.5 95.5q-7 -26 -11 -46t-7 -41.5t-6.5 -47t-8.5 -62.5v-1h-4l-36 -2q-5 51 -18.5 100t-22.5 99zM111 316q-2 6 -1 5q0 -4 1 -5z" />
    <glyph glyph-name="X" unicode="X" horiz-adv-x="255" 
d="M13 569q1 9 5.5 15t10.5 7.5t12.5 -1.5t10.5 -12q27 -104 57 -207q16 53 30.5 106t25.5 109v13q1 10 6.5 16t12.5 6.5t13 -4.5t8 -16q1 -32 -5.5 -66t-16.5 -68t-22 -67.5t-21 -63.5q-3 -9 -5.5 -18t-5.5 -17q23 -77 47.5 -152t51.5 -149q1 -11 -3.5 -17t-11 -7.5
t-13.5 2.5t-11 13q-22 60 -42 120t-39 121q-20 -72 -35 -144.5t-20 -149.5q-2 -9 -7 -14t-11.5 -5t-12.5 4.5t-9 12.5q6 97 27 186.5t47 178.5q-20 67 -38 133.5t-36 134.5z" />
    <glyph glyph-name="Y" unicode="Y" horiz-adv-x="243" 
d="M-5 604q-6 9 -5 17t6 12.5t13 4.5t16 -7q34 -45 52 -95.5t35 -104.5q5 -14 10 -29t12 -29q12 3 19 -5q11 20 22.5 37.5t22.5 36.5q25 42 48 84t52 82q7 8 15 9t14 -3t8 -12t-4 -17q-38 -53 -68.5 -110t-65.5 -112q-8 -13 -16 -26.5t-19 -24.5q-1 -1 -3 -1q2 -58 5 -116
t-1 -116q-2 -26 -7.5 -51.5t-9.5 -51.5v-1q-2 1 -6 1q-8 0 -16.5 -0.5t-17.5 -1.5v6q0 5 2 11q4 23 8.5 44.5t6.5 44.5q3 60 0 119.5t-4 119.5q-10 11 -16 27t-13 30q-13 28 -22 58t-18.5 59.5t-22 57.5t-32.5 53z" />
    <glyph glyph-name="Z" unicode="Z" horiz-adv-x="320" 
d="M27 593q2 0 8 -2q28 -3 57.5 -0.5t58.5 3.5t57.5 -2t54.5 -15q2 -9 3 -18l2 -18q-24 -15 -36 -33.5t-18.5 -41t-11 -48.5t-13.5 -54q-28 -86 -53 -170.5t-33 -174.5q6 -6 30 -5t51.5 4t51 6.5t29.5 4.5q19 -2 21 -17t-15 -23q-14 -1 -36.5 -5t-47.5 -7t-50 -3.5t-43 6.5
q-8 -7 -18 -3.5t-15 15.5q7 102 33.5 197t57.5 192q9 27 14 50.5t11 44.5t14.5 39.5t24.5 34.5q-23 4 -47.5 3.5t-49.5 -2t-50 -2t-48 3.5q-3 0 -5 1l7 39h4v0z" />
    <glyph glyph-name="bracketleft" unicode="[" horiz-adv-x="186" 
d="M136 621q11 -1 16 -7t5 -13t-5.5 -13t-15.5 -7q-9 0 -20.5 1.5t-24 2t-25 -0.5t-22.5 -4q-7 -87 -4 -174t5 -175q1 -41 2 -81.5t1 -82.5q1 -26 -1.5 -56.5t7.5 -56.5q9 0 13 -0.5t6.5 -0.5h5.5h10q12 13 25.5 5.5t10.5 -24.5q-8 -16 -25.5 -21t-36.5 -0.5t-34 17.5
t-19 33q-4 25 -2.5 51t0.5 51q-1 45 -1.5 76.5t-1 59.5t-1 57.5t-0.5 69.5q0 24 -0.5 48t-0.5 48q0 21 -0.5 42t-0.5 41q0 51 4.5 75.5t18 33.5t40 7.5t71.5 -2.5z" />
    <glyph glyph-name="backslash" unicode="\" horiz-adv-x="191" 
d="M46 611q2 -20 10.5 -39.5t16.5 -39.5q6 -18 10 -38t8 -38q26 -110 47.5 -218.5t26.5 -222.5q-3 -8 -9 -12.5t-12.5 -4.5t-12 5t-6.5 14q-5 111 -26 216.5t-46 212.5q-5 17 -8 34.5t-9 34.5q-8 24 -18 46t-12 46q3 18 18.5 20t21.5 -16z" />
    <glyph glyph-name="bracketright" unicode="]" horiz-adv-x="184" 
d="M26 -64q9 11 19.5 9.5t15.5 -10.5q2 -2 5 -2.5t5 -1.5q2 0 4.5 -0.5t4.5 0.5q1 1 1.5 2t2.5 2q0 86 -0.5 172t2.5 174q2 49 4.5 86t5 70.5t5 68t3.5 79.5q-22 -1 -44 -2.5t-43 3.5l-15 30q0 1 0.5 1.5t0.5 1.5q17 18 31 4q17 -2 35.5 0t36.5 2q11 -2 14 -5q16 3 23.5 -7
t0.5 -22q-2 -78 -8.5 -153.5t-9.5 -153.5q-3 -93 -2.5 -185t0.5 -186h-7q-6 -11 -17.5 -16.5t-24.5 -6t-25.5 3.5t-21.5 13l-3 24q0 2 0.5 2.5t0.5 2.5z" />
    <glyph glyph-name="asciicircum" unicode="^" horiz-adv-x="259" 
d="M66 619q4 12 12.5 15t15.5 -1l9 2q10 1 22.5 -8.5t24.5 -22t21 -25t14 -18.5q8 -10 15.5 -19t14.5 -19q8 -2 13 -8.5t3 -17.5q0 -1 -0.5 -1.5t-0.5 -2.5q-5 -3 -10.5 -6t-10.5 -7q-12 3 -26 18t-28 34t-27.5 36.5t-24.5 24.5q-15 -27 -31.5 -53t-33.5 -52q-8 5 -17 8.5
t-18 7.5q3 17 11.5 31t18.5 27.5t19 27.5t14 29z" />
    <glyph glyph-name="underscore" unicode="_" horiz-adv-x="344" 
d="M17 -34q28 1 54.5 3.5t54.5 4.5q30 1 50 2t37.5 1h37h49.5q11 -1 16 -7t5 -13t-5.5 -13t-15.5 -7h-50t-37 -0.5t-37 -1t-50 -1.5q-27 -1 -53.5 -4t-53.5 -4h-2h-4q0 4 0.5 7.5t0.5 7.5v25h3v0z" />
    <glyph glyph-name="grave" unicode="`" horiz-adv-x="147" 
d="M2 592q-6 9 -5 17t6 12.5t13 4.5t16 -7q22 -23 42 -46t41 -46q8 -3 11.5 -9t2.5 -12t-6.5 -11t-14.5 -6q-7 0 -22.5 14.5t-32.5 33t-32 35t-19 20.5z" />
    <glyph glyph-name="a" unicode="a" horiz-adv-x="247" 
d="M41 179q-6 -9 -13.5 -11.5t-13.5 0.5t-9.5 10.5t-0.5 17.5q13 20 32.5 31.5t41 14.5t44 -1.5t41.5 -15.5q10 -5 15.5 -15t11.5 -20q10 -15 15.5 -35.5t7.5 -42.5t2 -44v-39l-38 -9q-1 0 -2 -1v4l-2 4q-5 -7 -12 -9q-32 -11 -66.5 -9t-55.5 16.5t-21.5 39.5t35.5 59
q11 10 27 12.5t33 -1t32.5 -11t26.5 -17.5q-3 34 -16 62q-7 17 -22 26t-32 10t-34 -5.5t-27 -20.5zM149 56q7 2 12 0q-5 10 -11 16q-16 18 -32 22.5t-28.5 1t-20 -12t-7.5 -17.5t10 -15t32 -5q15 1 23 3t22 7zM210 40q2 -5 1 1z" />
    <glyph glyph-name="b" unicode="b" horiz-adv-x="267" 
d="M28 597q1 10 6.5 16t12.5 6.5t13 -4.5t8 -16q-2 -91 -8 -180t-7 -180q-1 -19 -0.5 -37t1.5 -36q0 1 2 3q10 14 23.5 32t30.5 23q25 9 47.5 2.5t40 -23t27.5 -39.5t10 -46q0 -14 -8 -27.5t-20 -24.5t-25.5 -20t-24.5 -15q-32 -17 -73 -23q-10 -1 -16 4.5t-7 12.5t3 14
t14 9q17 2 31.5 6.5t28.5 11.5q9 5 20 12t19.5 15.5t13.5 19.5t3 23q-2 9 -8.5 20t-16 20t-21 13t-21.5 -2q-12 -6 -21 -18t-17 -23q-16 -24 -27 -55l-6 -21q0 -31 -3 -61v-1h-7l-33 -2q-3 16 -2 32.5t5 33.5q0 42 -2 82.5t-1 82.5q1 91 7 180t8 180z" />
    <glyph glyph-name="c" unicode="c" horiz-adv-x="228" 
d="M182 177q-2 -9 -7 -14t-11.5 -5t-12.5 4.5t-9 12.5v1q-11 4 -23 8t-24 6q-21 2 -34 -10t-19 -30t-4 -38t11 -34q11 -16 26 -22t31 -5.5t32.5 5.5t30.5 12q9 2 15.5 -1t9.5 -8.5t1.5 -12.5t-8.5 -13q-35 -17 -69.5 -20t-61.5 10t-43.5 41.5t-14.5 73.5q1 14 6.5 29
t14.5 24q8 8 14 17.5t17 11.5q15 4 36.5 6t41.5 -2t35.5 -15t18.5 -32z" />
    <glyph glyph-name="d" unicode="d" horiz-adv-x="224" 
d="M119 592q1 10 6.5 16t12.5 6.5t13 -4.5t8 -16q2 -60 9.5 -119t10.5 -119q3 -65 3 -129t1 -129q2 -17 2 -33.5v-32.5h-1q0 -2 0.5 -4.5t0.5 -4.5l-40 3v3q-18 -5 -28.5 -9t-19.5 -5.5t-19.5 0.5t-27.5 9q-22 9 -32.5 33.5t-11.5 54t7 56.5t23 40q18 15 37.5 23t43.5 -6
q8 -5 14 -10l12 -10q-1 37 -1.5 74t-2.5 74q-3 60 -10.5 119.5t-9.5 119.5zM144 70q0 9 -0.5 18t-0.5 19q-3 31 -16.5 55.5t-46.5 29.5q-12 -10 -22 -33.5t-11.5 -47.5t7.5 -41.5t35 -14.5q14 2 25.5 6.5t24.5 7.5q1 0 2 0.5t3 0.5z" />
    <glyph glyph-name="e" unicode="e" horiz-adv-x="261" 
d="M188 122q-11 -9 -27 -11.5t-33.5 -2.5t-35.5 0.5t-34 -2.5q-8 -6 -16 -6h-3q7 -26 26 -43.5t48 -17.5q20 0 37.5 5.5t34.5 13.5q2 0 5 3q4 9 11 14q3 2 6 2.5t5 1.5q8 -5 14.5 -9.5t13.5 -9.5q-2 -17 -23 -30.5t-47.5 -21.5t-53 -9.5t-39.5 5.5q-28 15 -45.5 32t-26 37
t-9.5 44t4 55q3 22 14 36t26.5 21t34 8t36.5 -2q17 -2 29.5 -15t26.5 -24q7 -5 15 -14.5t12.5 -20t4 -21t-10.5 -18.5zM99 196q-15 7 -26 4.5t-18.5 -11.5t-12 -21.5t-6.5 -25.5q14 5 29 6t30 1h30.5t29.5 3q-4 6 -11 12.5t-15 12.5t-16 11t-14 8z" />
    <glyph glyph-name="f" unicode="f" horiz-adv-x="104" 
d="M-45 351q-9 3 -13.5 8.5t-4.5 12t4.5 12t13.5 7.5q16 -1 28 -2t23 -3q-2 50 -1 100t9 85q4 15 25.5 22.5t47 7.5t47.5 -7.5t27 -23.5q1 -10 -3 -16t-10 -8t-13 0.5t-11 9.5q-9 5 -19.5 4.5t-18.5 -0.5q-12 0 -18 0.5t-16 -4.5q-4 -43 -5 -85.5t0 -85.5q11 2 23.5 5
t28.5 11q9 2 15.5 -1t9.5 -8.5t1.5 -12.5t-8.5 -13q-34 -15 -69 -17l3 -69q1 -35 1 -72t2 -73.5t6.5 -73t15.5 -70.5q1 -11 -3.5 -17t-11 -7.5t-13.5 2.5t-11 13q-11 35 -16 72t-7 74.5t-2 75t-1 73.5l-3 71l-53 3v0z" />
    <glyph glyph-name="g" unicode="g" horiz-adv-x="257" 
d="M165 183l9 5q15 -2 24 -12t13 -22.5t4.5 -27t-0.5 -25.5q0 -2 -0.5 -3.5t-0.5 -3.5q13 -32 24 -66.5t12.5 -66.5t-9 -61t-41.5 -50q-11 -7 -24 -7.5t-26 -2.5q-10 -1 -16 4.5t-7 12.5t3 14t14 9q17 3 30.5 4.5t24.5 15.5q9 11 11 28.5t-0.5 37.5t-8 41.5t-12.5 41.5
q-20 -23 -47 -36.5t-53 -9.5q-40 6 -61 25t-26 43.5t3.5 51.5t27.5 49t45 36t56 13q5 -3 10.5 -6.5t10.5 -7.5l10 -21v-3zM165 112q-5 12 -10.5 24t-5.5 24q-12 -2 -21 10q-1 4 -5 12q-14 0 -32.5 -13.5t-33 -32t-19 -38.5t10.5 -33q34 -29 64 -19.5t53 41.5l6 9z" />
    <glyph glyph-name="h" unicode="h" horiz-adv-x="235" 
d="M-12 565q-4 10 -0.5 17.5t10.5 10t14.5 0t12.5 -11.5q17 -39 24 -91t8.5 -107t0.5 -107.5t-1 -91.5v-38q10 28 24 47.5t35 21.5t39 1t32 -18q10 -12 14.5 -36.5t5.5 -52t-0.5 -53.5t-1.5 -40q-2 -9 -7 -14t-11.5 -5t-12.5 4.5t-9 12.5q1 24 1.5 48.5t-1.5 48.5
q0 3 -1 13.5t-2.5 22t-3.5 20.5t-5 9q-7 0 -14 1t-14 -2q-16 -7 -25.5 -28t-15.5 -47t-8.5 -51t-4.5 -39h-11t-11 -1t-9.5 -2t-9.5 -3q0 1 0.5 2t0.5 3q-8 26 -9.5 54t-3.5 55q-1 40 0.5 101t0.5 125.5t-7.5 124t-23.5 96.5z" />
    <glyph glyph-name="i" unicode="i" horiz-adv-x="114" 
d="M27 174q1 10 6.5 16t12.5 6.5t13 -4.5t8 -16q6 -38 8.5 -76.5t6.5 -76.5q3 -7 2 -14q0 -1 -0.5 -2t-0.5 -2l-39 4q-6 42 -8.5 82.5t-8.5 82.5zM54 319q9 -5 12 -12t1 -14t-9.5 -10.5t-17.5 -0.5h-1l-8 2q1 10 1 20v20h1q4 0 8 -2q5 0 13 -3z" />
    <glyph glyph-name="j" unicode="j" horiz-adv-x="164" 
d="M44 203q1 10 6.5 16t12.5 6.5t13 -4.5t8 -16v-12t1 -4.5t3 -9.5t6 -26q14 -63 20.5 -127.5t-11.5 -128.5q-6 -21 -24 -34.5t-40.5 -18.5t-45.5 -2t-39 15q-5 7 -5 14.5t4 13t11 6.5t15 -3q6 -4 15.5 -5.5t20 -1t20 3t14.5 6.5q14 10 19 28t7 32q6 48 -2 97t-18 96
q-2 14 -6.5 29.5t-4.5 29.5zM30 319q-9 3 -13.5 8.5t-4.5 12t4.5 12t13.5 7.5h5q11 -1 16 -7t5 -13t-5.5 -13t-15.5 -7h-5z" />
    <glyph glyph-name="k" unicode="k" horiz-adv-x="220" 
d="M119 358q3 10 10.5 14t14 2t11 -9t3.5 -17q-6 -24 -20 -40t-29 -29t-28 -26t-19 -30q-2 -6 15 -19.5t40.5 -30t46 -33.5t31.5 -30q4 -9 2 -16.5t-8 -11.5t-14 -3t-14 9q-8 12 -25.5 24t-37 24.5t-38 26t-29.5 28.5q-3 -98 -3 -196q-2 -9 -7 -14t-11.5 -5t-12.5 4.5
t-9 12.5q1 141 6 281t6 281q1 10 6.5 16t12.5 6.5t13 -4.5t8 -16q-1 -76 -3 -151t-4 -151q9 14 22 25.5t25.5 23t23 24.5t15.5 30z" />
    <glyph glyph-name="l" unicode="l" horiz-adv-x="99" 
d="M22 503q1 10 6.5 16t12.5 6.5t13 -4.5t8 -16q1 -60 1.5 -105t0.5 -82t0.5 -70.5t0.5 -70.5t0.5 -82t1.5 -106q-2 -9 -7 -14t-11.5 -5t-12.5 4.5t-9 12.5q-1 61 -1.5 106t-0.5 82t-0.5 70t-0.5 70t-0.5 82t-1.5 106z" />
    <glyph glyph-name="m" unicode="m" horiz-adv-x="333" 
d="M19 216q8 0 15.5 0.5t14.5 0.5v-16t1 -16q0 2 0.5 2.5t0.5 2.5q4 11 10.5 23.5t15.5 22t20.5 12.5t26.5 -4q13 -6 21.5 -26t14.5 -47q13 31 35 50l25 2q24 -17 38.5 -44t22.5 -58t11.5 -63t5.5 -59q-2 -9 -7 -14t-11.5 -5t-12.5 4.5t-9 12.5q-1 13 -4.5 41t-9.5 57.5
t-15 54t-20 31.5q-11 -11 -16.5 -35t-8 -51.5t-3 -53t-0.5 -39.5l-40 -8v6q-5 51 -11 104t-24 102q-12 -4 -18.5 -32t-9.5 -62.5t-4 -67t-1 -44.5h-10.5t-11.5 -1l-18 -6v5q-11 55 -17.5 107.5t-6.5 109.5h4q2 0 3 0.5t3 0.5z" />
    <glyph glyph-name="n" unicode="n" horiz-adv-x="272" 
d="M40 72q-3 30 -9.5 59t-20.5 54q-12 9 -8 27l2 4l33 2q9 -14 15.5 -30t11.5 -33q8 14 18 27.5t22 25.5q9 8 20 15t23.5 10.5t24.5 2t23 -10.5q24 -22 33 -51.5t10.5 -61.5t0 -64.5t2.5 -61.5q3 -6 2 -13t-9 -13l-1 -1l-15 7.5t-15 6.5q-5 24 -4 52.5t1 57t-4 55t-17 45.5
q-9 14 -21 12t-23.5 -12t-21 -23.5t-13.5 -21.5q-16 -26 -16 -54.5t-2 -58.5v-9h-1l-33 -3l-6 -1v1q-5 31 -2 59z" />
    <glyph glyph-name="o" unicode="o" horiz-adv-x="236" 
d="M122 203q1 -1 2 -1q26 -2 44.5 -21.5t26.5 -46.5t4.5 -56t-21.5 -50q-9 -10 -22.5 -14.5t-28 -6t-29 -0.5t-25.5 2q-35 2 -53.5 21t-23 45.5t3.5 55t25 49.5t42 29t55 -6zM106 160q-10 -5 -17 -1.5t-10 10.5q-16 -4 -26.5 -18.5t-15 -32t-2 -34t13.5 -23.5q16 -11 37 -13
t39 0q21 3 30 17t8 32t-9 35.5t-21 26.5q-2 2 -8 4h-6q-6 0 -13 -3z" />
    <glyph glyph-name="p" unicode="p" horiz-adv-x="273" 
d="M2 179q2 17 14.5 21.5t21.5 -8.5q7 12 17 21t23 11q12 2 26 0.5t25 -6.5q23 -8 37.5 -12t25.5 -10t20.5 -15.5t21.5 -28.5q15 -23 4.5 -47t-32.5 -44.5t-48.5 -35.5t-42.5 -21q-8 -3 -17.5 -1t-19.5 3l-15 10l-4 7q2 -25 4.5 -50t3.5 -47.5t-1.5 -42t-10.5 -33.5l-33 -7
q-9 13 -12.5 37t-3.5 54t1.5 64t2 67.5t-0.5 63t-7 50.5zM85 185q-19 -21 -24.5 -51.5t-3.5 -65.5q7 4 16 2.5t14 -12.5l6 -13q19 -2 37 5.5t32 20t23.5 29.5t11.5 35q-19 24 -49.5 37t-62.5 13z" />
    <glyph glyph-name="q" unicode="q" horiz-adv-x="254" 
d="M188 196q1 -11 -3.5 -17t-11 -7.5t-13.5 2.5t-11 13q-2 6 -21 4.5t-40.5 -10.5t-37 -24t-10.5 -35q4 -16 25 -20t45 0t44.5 15t22.5 25v3q7 0 14 0.5t14 1.5h12q0 -34 -4.5 -69t-8 -69.5t-3.5 -69t9 -68.5h1q6 4 12 7.5t12 6.5q9 2 15.5 -1t9.5 -8.5t1.5 -12.5t-8.5 -13
l-31 -20h-9.5t-9.5 -1l-17.5 10.5t-12.5 15.5q-10 23 -12.5 50.5t-1 57t5.5 60t7 59.5q-23 -13 -51 -19t-53.5 -2.5t-44.5 16.5t-23 37q-4 23 6.5 44t29.5 37.5t42.5 26t45.5 11t39.5 -7t24.5 -29.5z" />
    <glyph glyph-name="r" unicode="r" horiz-adv-x="220" 
d="M11 219q-3 9 -1 16t7.5 10t13 2.5t14.5 -6.5q4 -7 7.5 -13t6.5 -13q5 10 15 20q22 21 43 30t39 6t30.5 -19t18.5 -46q1 -11 -3.5 -17t-11 -7.5t-13.5 2.5t-11 13q-7 32 -22 36.5t-41 -26.5q-11 -14 -18.5 -32t-12.5 -38q1 -17 0.5 -34t1.5 -34q2 -15 3.5 -28.5
t-0.5 -29.5q-10 0 -20 -0.5t-20 -1.5q-7 23 -8 56.5t4 68.5q0 23 -4.5 44t-17.5 41z" />
    <glyph glyph-name="s" unicode="s" horiz-adv-x="306" 
d="M198 146q-19 -1 -23 15q-16 5 -39 1.5t-39 -9.5q22 -9 50.5 -15.5t54.5 -15.5t45.5 -23t24.5 -37l-8 -23q-20 -13 -59 -22t-79.5 -9.5t-74.5 9.5t-43 36l6 18l12 12q7 4 14 3.5t12 -4.5t6.5 -11t-2.5 -14q17 -6 39 -8.5t45 -1.5t45.5 5t40.5 12q-12 13 -40.5 21t-58.5 16
t-55 18t-29 27q-3 12 6 23t25.5 18.5t37.5 11.5t41.5 4t37.5 -5.5t26 -16.5v-25q-7 -7 -19 -10z" />
    <glyph glyph-name="t" unicode="t" horiz-adv-x="97" 
d="M-92 268q-9 3 -13.5 8.5t-4.5 12t4.5 12t13.5 7.5q26 0 52.5 2t52.5 5l4 126q1 10 6.5 16t12.5 6.5t13 -4.5t8 -16l-4 -124l60 3q11 -1 16 -7t5 -13t-5.5 -13t-15.5 -7l-62 -3q-2 -68 0.5 -134.5t13.5 -133.5q1 -11 -3.5 -17t-11 -7.5t-13.5 2.5t-11 13
q-11 69 -13.5 136.5t-0.5 136.5q-26 -3 -52 -5t-52 -2z" />
    <glyph glyph-name="u" unicode="u" horiz-adv-x="231" 
d="M6 188q1 10 6.5 16t12.5 6.5t13 -4.5t8 -16q2 -23 7 -46t7 -46q1 -11 -0.5 -23.5t-1.5 -24.5q32 28 47 63t30 73q6 2 12.5 3t13.5 3l-1 2q1 0 1.5 -0.5t1.5 -0.5q-1 0 -2 -1l14 -18q1 -15 0.5 -31.5t1.5 -33t7 -31t16 -26.5q8 -17 -3 -27t-27 0q-14 15 -21 32.5t-10 37.5
q-10 -20 -22.5 -39.5t-26 -33t-27.5 -18.5t-27 4q-11 7 -14.5 18t-3.5 23t1.5 24.5t0.5 22.5q-2 23 -7 46t-7 46z" />
    <glyph glyph-name="v" unicode="v" horiz-adv-x="200" 
d="M-5 192q-6 9 -5 17t6 12.5t13 4.5t16 -7q15 -18 25.5 -39t19.5 -43.5t18 -44.5t22 -41q9 43 23 84.5t15 85.5v2l40 3v-3q-1 -33 -9.5 -63t-16.5 -63q-6 -22 -10.5 -42.5t-13.5 -41.5l-28 -11q-25 8 -40 32t-26 52.5t-21.5 57.5t-27.5 48z" />
    <glyph glyph-name="w" unicode="w" horiz-adv-x="287" 
d="M8 177q-2 3 -2 7.5t-2 7.5q-9 7 -9 20q1 1 1 3l18 4t17 4q16 -21 27.5 -53.5t19.5 -63.5q1 18 3.5 35.5t7.5 32t14 24t23 12.5q6 1 11.5 -4.5t10 -14t7 -16t3.5 -9.5q4 -9 7.5 -18t6.5 -18q8 -21 16 -42.5t19 -41.5q4 42 2.5 84t-1.5 84q1 10 6.5 16t12.5 6.5t13 -4.5
t8 -16q0 -8 3 -38t3.5 -66t-4 -70.5t-19.5 -52.5q-8 0 -15 -0.5t-15 -1.5q-29 29 -45 70t-31 82l-6 -35q-2 -14 -2.5 -26t-1 -24.5t-2 -26t-7.5 -28.5l-33 -7q-9 12 -14.5 26.5t-9 30.5t-6.5 31.5t-7 28.5q-5 19 -12 35t-16 33z" />
    <glyph glyph-name="x" unicode="x" horiz-adv-x="181" 
d="M13 196q-4 10 -0.5 17.5t10.5 10t14.5 0t12.5 -11.5q12 -30 29 -61q10 21 20 41.5t19 41.5q12 14 26 7.5t11 -24.5q-12 -28 -25 -54.5t-27 -53.5q23 -38 49 -72q8 -17 -3 -27t-27 0l-39 56q-16 -35 -27 -67q-6 -9 -13.5 -11.5t-13.5 0.5t-9.5 10.5t-0.5 17.5q17 48 39 92
q-26 45 -45 88z" />
    <glyph glyph-name="y" unicode="y" horiz-adv-x="228" 
d="M9 206q1 9 5.5 15t10.5 7.5t12.5 -1.5t10.5 -12q7 -38 24.5 -76t42.5 -67q7 4 12.5 14.5t10 24.5t7.5 28.5t5 25.5q-1 23 -0.5 49.5t8.5 38.5l23 9q17 -6 18.5 -21.5t-3.5 -29.5q-1 -9 -1.5 -18.5t-2.5 -18.5q-1 -27 -2.5 -54t-3.5 -53q-3 -40 -7 -70.5t-7.5 -56.5
t-6 -50.5t-2.5 -52.5q-2 -9 -7 -14t-11.5 -5t-12.5 4.5t-9 12.5q0 33 5 65.5t9 65.5q2 20 3.5 39t3.5 39q-20 -19 -43.5 -7t-43.5 47q-8 15 -13.5 26.5t-12.5 26.5q-8 17 -13.5 34t-8.5 35zM195 208v1v-1z" />
    <glyph glyph-name="z" unicode="z" horiz-adv-x="242" 
d="M-2 168q-9 3 -13.5 8.5t-4.5 12t4.5 12t13.5 7.5q40 0 60 0.5t34.5 0t30 -2.5t45.5 -6l14 -14q7 -26 -6.5 -47.5t-35 -40t-45.5 -34.5t-39 -31q35 -5 66 -1.5t62 18.5q9 2 15.5 -1t9.5 -8.5t1.5 -12.5t-8.5 -13q-42 -21 -82 -23t-86 4l-18 17q-5 24 7 43.5t31 35t40 29
t35 25.5q9 7 16 16q-37 5 -73.5 5.5t-73.5 0.5z" />
    <glyph glyph-name="braceleft" unicode="{" horiz-adv-x="194" 
d="M136 619q19 -2 21 -17t-15 -23q-19 -2 -32.5 -3.5t-29.5 -14.5q-18 -15 -24.5 -52.5t-5.5 -81t5.5 -85.5t7.5 -67t2.5 -47.5t-11.5 -39.5q7 -5 13 -11.5t12 -11.5q8 -7 17 -15t14 -19q4 -11 1.5 -35t-7.5 -52t-9.5 -53.5t-4.5 -38.5q0 -9 1 -22.5t4 -27t8.5 -25
t15.5 -17.5l8 -3q2 1 9 1q8 9 20 5t15 -19q-3 -20 -16 -25.5t-29 -2t-31 13t-21 21.5q-22 46 -24 97t14 99q0 11 3 20.5t5 20.5q1 4 1.5 10t-0.5 11q0 3 -2 7l-22 23l-12 12t-15 12l-7 -2l-24 23l2 7q3 2 5.5 3.5t4.5 3.5l-1 1q1 0 2 0.5t2 0.5l8 6h1q1 0 1 1q10 9 11.5 25
t-1 33.5t-6 34.5t-4.5 29q-1 15 -3 37.5t-3 48.5t0.5 53.5t7 52t15.5 44t27 30.5q12 8 20 12t15.5 6t16.5 3t24 3z" />
    <glyph glyph-name="bar" unicode="|" horiz-adv-x="146" 
d="M23 611q1 10 6.5 16t12.5 6.5t13 -4.5t8 -16q0 -112 2.5 -224t14.5 -225q3 -29 9.5 -71.5t11 -88t3.5 -87.5t-12 -70l-39 4v5q0 8 5 15q5 19 4 53.5t-4.5 75.5t-8.5 83.5t-9 78.5q-12 112 -14.5 224t-2.5 225z" />
    <glyph glyph-name="braceright" unicode="}" horiz-adv-x="206" 
d="M26 619q15 -2 24 -3t16.5 -3t15.5 -6t20 -12q17 -11 27 -30.5t15.5 -44t7 -52t0.5 -53.5t-3 -48.5t-3 -37.5q-1 -12 -4.5 -29t-6 -34.5t-1 -33.5t11.5 -25q0 -1 1 -1h1l8 -6q1 0 2 -0.5t2 -0.5l-1 -1q2 -2 4.5 -3.5t5.5 -3.5l2 -7l-24 -23l-7 2q-8 -5 -15 -12l-12 -12
l-22 -23q-2 -4 -2 -7q-1 -5 -0.5 -11t1.5 -10q2 -11 5 -20.5t3 -20.5q16 -48 14 -99t-24 -97q-6 -12 -21 -21.5t-31 -13t-29 2t-16 25.5q3 15 15 19t20 -5q7 0 9 -1l8 3q10 6 15.5 17.5t8.5 25t4 27t1 22.5q0 13 -4.5 38.5t-9.5 53.5t-8 52t2 35t14 19t17 15q6 5 12 11.5
t13 11.5q-11 17 -11.5 39.5t2.5 47.5t7.5 67t5.5 85.5t-5.5 81t-24.5 52.5q-16 13 -29.5 14.5t-32.5 3.5q-17 8 -15 23t21 17z" />
    <glyph glyph-name="asciitilde" unicode="~" horiz-adv-x="295" 
d="M207 158q-25 6 -47 23.5t-41.5 30.5t-37.5 12.5t-34 -31.5q2 -8 -4 -15t-17 -8h-3l-18 17q0 15 7 24.5t16 19.5q20 22 36.5 29.5t31.5 5t29 -11.5t28 -20.5t29.5 -22t33.5 -14.5q11 4 20 9t20 7q19 -2 21 -17t-15 -23q-14 -2 -26.5 -10.5t-28.5 -4.5z" />
    <glyph glyph-name="fraction" unicode="&#x2044;" horiz-adv-x="187" 
d="M137 611q6 18 21.5 16t18.5 -20q-2 -24 -12 -46t-18 -46q-6 -17 -9 -34.5t-8 -34.5q-25 -107 -46 -212.5t-26 -216.5q-2 -9 -7 -14t-11.5 -5t-12.5 4.5t-9 12.5q5 114 26.5 222.5t47.5 218.5q4 18 8 38t10 38q8 20 16.5 39.5t10.5 39.5z" />
  </font>
</defs>
</svg>
